SplineFontDB: 2.0
FontName: Kinnari-Italic
FullName: Kinnari Italic
FamilyName: Kinnari
Weight: Medium
Copyright: Kinnari Italic by TLWG, based on Kinnari Normal and Norasi Italic.\nCopyright (C) 1999 Db Type. All Rights Reserved.\nCopyright (C) 2007 National Electronics and Computer Technology Center. All Rights Reserved.
Version: 001.003: 2007-04-17
ItalicAngle: -15.5
UnderlinePosition: -70
UnderlineWidth: 25
Ascent: 800
Descent: 200
NeedsXUIDChange: 1
FSType: 0
OS2Version: 0
OS2_WeightWidthSlopeOnly: 0
OS2_UseTypoMetrics: 0
CreationTime: 1136287438
ModificationTime: 1198244042
PfmFamily: 17
TTFWeight: 500
TTFWidth: 5
LineGap: 138
VLineGap: 0
Panose: 0 0 0 0 0 0 0 0 0 0
OS2TypoAscent: 0
OS2TypoAOffset: 1
OS2TypoDescent: 0
OS2TypoDOffset: 1
OS2TypoLinegap: 0
OS2WinAscent: 0
OS2WinAOffset: 1
OS2WinDescent: 0
OS2WinDOffset: 1
HheadAscent: 0
HheadAOffset: 1
HheadDescent: 0
HheadDOffset: 1
OS2Vendor: 'PfEd'
Lookup: 4 0 1 "'liga' Standard Ligatures in Latin lookup 2"  {"'liga' Standard Ligatures in Latin lookup 2 subtable"  } ['liga' ('latn' <'dflt' > ) ]
Lookup: 6 0 0 "'ccmp' Thai General Composition"  {"'ccmp' Thai Below Vowel Tone Reordering"  "'ccmp' Thai General Composition"  } ['ccmp' ('thai' <'KUY ' 'PAL ' 'THA ' 'dflt' > ) ]
Lookup: 6 0 0 "'ccmp' Thai Conditional Descender Removal"  {"'ccmp' Thai Conditional Descender Removal"  } ['ccmp' ('thai' <'KUY ' 'PAL ' 'THA ' 'dflt' > ) ]
Lookup: 5 0 0 "Required Thai Descender Removal"  {"Required Thai Descender Removal"  } [' RQD' ('thai' <'PAL ' > ) ]
Lookup: 1 0 0 "Thai Descender Removal Single Substitution"  {"Thai Descender Removal Single Substitution" ("descless" ) } []
Lookup: 2 0 0 "Thai Sara Am Decomposition"  {"Thai Sara Am Decomposition"  } []
Lookup: 2 0 0 "Thai Tone Nikhahit Attachment"  {"Thai Tone Nikhahit Attachment"  } []
Lookup: 1 0 0 "Thai Sara Am Lakkhang"  {"Thai Sara Am Lakkhang"  } []
Lookup: 1 0 0 "Thai Tone Low Variant"  {"Thai Tone Low Variant" ("low" ) } []

StartChar: .notdef
Encoding: 0 0 0
Width: 384
Flags: W
HStem: 0 23<28 384> 568 23<126 482>
Fore
144 568 m 1
 28 23 l 1
 366 23 l 1
 482 568 l 1
 144 568 l 1
384 0 m 1
 0 0 l 1
 126 591 l 1
 510 591 l 1
 384 0 l 1
EndSplineSet
EndChar
StartChar: exclam
Encoding: 33 33 2
Width: 332
Flags: W
HStem: -12 107<87 93> 646 20G<244 275.5>
Fore
138 177 m 1
 120 182 l 1
 161 371 168 407 192 551 c 0
 207 634 226 666 262 666 c 0
 289 666 302 649 302 617 c 0
 302 587 291 555 264 494 c 0
 217 391 193 333 138 177 c 1
91 95 m 0
 120 95 145 70 145 41 c 0
 145 13 120 -12 89 -12 c 0
 62 -12 40 12 40 42 c 0
 40 70 64 95 91 95 c 0
EndSplineSet
EndChar
StartChar: quotedbl
Encoding: 34 34 3
Width: 418
Flags: W
HStem: 646 20G<209.5 231 388 408.5>
Fore
344 420 m 1
 324 420 l 1
 331 523 340 601 346 625 c 0
 352 647 376 666 400 666 c 0
 417 666 432 653 432 637 c 0
 432 621 401 545 344 420 c 1
166 420 m 1
 144 420 l 1
 152 523 161 601 167 625 c 0
 171 647 196 666 223 666 c 0
 239 666 253 653 253 637 c 0
 253 621 223 546 166 420 c 1
EndSplineSet
EndChar
StartChar: numbersign
Encoding: 35 35 4
Width: 499
Flags: W
HStem: 0 21G<18 79 208 270> 212 55<12 97 179 289 371 454> 212 252<86 289 253 454> 410 54<85 171 253 363 444 529> 657 20G<272 333 463 524>
Fore
464 267 m 1xd8
 454 212 l 1xd8
 349 212 l 1xa8
 270 0 l 1
 208 0 l 1
 289 212 l 1xc8
 158 212 l 1xa8
 79 0 l 1
 18 0 l 1
 97 212 l 1xc8
 1 212 l 1xa8
 13 267 l 1
 119 267 l 1
 171 410 l 1
 76 410 l 1xd8
 86 464 l 1
 192 464 l 1
 272 677 l 1
 333 677 l 1
 253 464 l 1
 382 464 l 1
 463 677 l 1
 524 677 l 1
 444 464 l 1xa8
 541 464 l 1
 529 410 l 1
 423 410 l 1
 371 267 l 1
 464 267 l 1xd8
363 410 m 1
 233 410 l 1
 179 267 l 1
 309 267 l 1
 363 410 l 1
EndSplineSet
EndChar
StartChar: dollar
Encoding: 36 36 5
Width: 499
Flags: W
HStem: 642 26<302 341>
VStem: 123 78<513 538> 379 77<163 190>
Fore
497 612 m 1
 469 498 l 1
 454 499 l 1
 453 574 431 609 369 633 c 1
 313 395 l 1
 431 305 456 270 456 190 c 0
 456 120 420 60 360 29 c 0
 322 10 289 3 215 0 c 1
 193 -89 l 1
 160 -89 l 1
 182 1 l 1
 119 15 67 37 31 67 c 1
 59 190 l 1
 75 193 l 1
 85 88 111 51 189 32 c 1
 258 330 l 1
 207 366 186 382 166 410 c 0
 135 445 123 476 123 513 c 0
 123 565 151 612 198 639 c 0
 239 664 267 668 341 668 c 1
 357 731 l 1
 393 731 l 1
 376 664 l 1
 423 652 464 636 497 612 c 1
283 420 m 1
 335 642 l 1
 296 642 287 640 268 633 c 0
 226 618 201 583 201 538 c 0
 201 494 220 464 283 420 c 1
289 306 m 1
 221 25 l 1
 327 34 379 79 379 163 c 0
 379 215 363 245 294 300 c 2
 289 306 l 1
EndSplineSet
EndChar
StartChar: percent
Encoding: 37 37 6
Width: 832
Flags: W
HStem: 0 29<587 605> 289 35<198 216> 338 33<681 696> 583 25<430 471> 631 31<295 304>
VStem: 79 76<387 419> 376 27<530 551> 469 74<101 136> 765 25<242 266>
Fore
683 371 m 0
 750 371 790 330 790 264 c 0
 790 187 757 108 705 51 c 0
 672 18 631 0 587 0 c 0
 513 0 469 50 469 136 c 0
 469 252 577 371 683 371 c 0
694 338 m 0
 662 338 634 319 606 280 c 0
 573 231 543 149 543 101 c 0
 543 54 564 29 605 29 c 0
 634 29 664 44 686 67 c 0
 732 119 765 196 765 259 c 0
 765 303 732 338 694 338 c 0
653 677 m 1
 267 -13 l 1
 220 -13 l 1
 570 612 l 1
 527 590 504 583 458 583 c 0
 431 583 416 584 395 593 c 1
 397 590 397 590 397 587 c 0
 401 570 403 554 403 541 c 0
 403 489 374 413 335 363 c 0
 297 315 249 289 198 289 c 0
 130 289 79 346 79 419 c 0
 79 542 187 662 297 662 c 0
 324 662 352 653 365 642 c 2
 382 625 l 2
 395 614 420 608 453 608 c 0
 519 608 562 627 612 677 c 1
 653 677 l 1
368 601 m 1
 341 606 333 611 316 624 c 0
 309 630 305 631 300 631 c 0
 237 631 155 494 155 387 c 0
 155 347 179 324 214 324 c 0
 296 324 376 437 376 549 c 0
 376 565 375 579 368 601 c 1
EndSplineSet
EndChar
StartChar: ampersand
Encoding: 38 38 7
Width: 777
Flags: W
HStem: -18 49<595 642> 331 19<530 542.667> 634 32<470 485>
VStem: 76 94<141 164> 324 80<460 504> 517 69<559.014 580>
Fore
530 350 m 1
 715 350 l 1
 715 333 l 1
 665 328 658 322 606 248 c 0
 596 230 558 177 520 125 c 1
 560 59 595 31 642 31 c 0
 665 31 683 40 712 62 c 1
 724 50 l 1
 680 1 645 -18 595 -18 c 0
 541 -18 502 4 457 62 c 1
 354 -4 321 -18 258 -18 c 0
 146 -18 76 42 76 141 c 0
 76 193 100 240 148 280 c 0
 185 309 229 333 331 378 c 1
 330 393 330 403 328 409 c 0
 325 435 324 451 324 460 c 0
 324 582 390 666 483 666 c 0
 542 666 586 625 586 573 c 0
 586 538 567 502 532 472 c 0
 505 447 476 428 415 397 c 1
 438 294 469 209 501 160 c 1
 564 236 580 265 580 299 c 0
 580 321 568 328 530 331 c 1
 530 350 l 1
333 346 m 1
 233 308 170 236 170 164 c 0
 170 91 226 34 297 34 c 0
 349 34 391 51 438 89 c 1
 404 133 369 218 333 346 c 1
410 428 m 1
 454 456 456 458 473 473 c 0
 504 502 517 532 517 577 c 0
 517 617 504 634 472 634 c 0
 428 634 404 592 404 504 c 0
 404 478 406 458 410 428 c 1
EndSplineSet
EndChar
StartChar: quotesingle
Encoding: 39 39 8
Width: 213
Flags: W
HStem: 646 20G<197.5 219>
Fore
152 420 m 1
 132 420 l 1
 138 476 146 593 155 625 c 0
 163 650 187 666 208 666 c 0
 230 666 242 652 242 636 c 0
 242 618 193 510 152 420 c 1
EndSplineSet
EndChar
StartChar: parenleft
Encoding: 40 40 9
Width: 332
Flags: W
VStem: 42 69<85 180>
Fore
160 -174 m 1
 141 -182 l 1
 105 -116 89 -83 76 -41 c 0
 54 28 42 103 42 180 c 0
 42 256 53 318 79 381 c 0
 122 485 171 551 302 669 c 1
 315 653 l 1
 250 586 218 539 186 460 c 0
 141 349 111 205 111 85 c 0
 111 -12 123 -75 160 -174 c 1
EndSplineSet
EndChar
StartChar: parenright
Encoding: 41 41 10
Width: 332
Flags: W
VStem: 220 69<305 401>
Fore
29 -180 m 1
 16 -166 l 1
 78 -101 107 -59 136 6 c 0
 186 113 220 275 220 401 c 0
 220 502 205 583 171 664 c 1
 190 669 l 1
 234 589 250 554 267 485 c 0
 281 425 289 360 289 305 c 0
 289 230 277 167 249 101 c 0
 204 -7 152 -72 29 -180 c 1
EndSplineSet
EndChar
StartChar: asterisk
Encoding: 42 42 11
Width: 499
Flags: W
HStem: 646 20G<300 321>
VStem: 302 17<414 445 476 503>
Fore
319 499 m 2
 319 473 l 1
 362 502 368 505 417 561 c 0
 434 579 441 582 454 582 c 0
 476 582 492 567 492 545 c 0
 492 519 478 508 435 501 c 0
 388 494 371 486 328 458 c 1
 365 439 l 2
 379 432 403 425 431 420 c 0
 475 413 492 401 492 378 c 0
 492 356 475 338 454 338 c 0
 439 338 428 347 409 371 c 0
 382 403 359 423 327 442 c 2
 319 445 l 1
 319 393 324 371 338 330 c 0
 346 311 347 303 347 294 c 0
 347 272 331 255 308 255 c 0
 289 255 272 271 272 293 c 0
 272 302 275 313 283 334 c 0
 297 371 302 395 302 417 c 0
 302 422 302 429 300 445 c 1
 297 442 294 441 286 437 c 0
 253 417 240 404 212 371 c 0
 196 352 180 340 163 340 c 0
 144 340 127 357 127 376 c 0
 127 400 145 413 187 420 c 0
 233 428 250 435 294 461 c 1
 283 469 l 2
 258 483 226 494 189 499 c 0
 144 508 127 519 127 546 c 0
 127 565 144 582 163 582 c 0
 179 582 190 574 209 551 c 0
 242 516 262 498 300 476 c 1
 300 519 297 542 284 587 c 0
 277 608 275 617 275 625 c 0
 275 650 289 666 311 666 c 0
 331 666 346 650 346 627 c 0
 346 617 343 603 335 577 c 0
 324 543 319 521 319 499 c 2
EndSplineSet
EndChar
StartChar: plus
Encoding: 43 43 12
Width: 673
Flags: W
HStem: 0 21G<305 371> 220 66<86 305 371 590>
VStem: 305 66<0 220 286 505>
Fore
305 286 m 1
 305 505 l 1
 371 505 l 1
 371 286 l 1
 590 286 l 1
 590 220 l 1
 371 220 l 1
 371 0 l 1
 305 0 l 1
 305 220 l 1
 86 220 l 1
 86 286 l 1
 305 286 l 1
EndSplineSet
EndChar
StartChar: comma
Encoding: 44 44 13
Width: 249
Flags: W
Fore
4 -129 m 1
 -4 -111 l 1
 48 -78 70 -50 70 -23 c 0
 70 -13 66 -4 51 9 c 0
 32 26 26 37 26 54 c 0
 26 81 48 101 78 101 c 0
 110 101 135 70 135 29 c 0
 135 -26 89 -82 4 -129 c 1
EndSplineSet
EndChar
StartChar: hyphen
Encoding: 45 45 14
Width: 332
Flags: W
HStem: 192 63<62 270>
Fore
283 255 m 1
 270 192 l 1
 48 192 l 1
 63 255 l 1
 283 255 l 1
EndSplineSet
EndChar
StartChar: period
Encoding: 46 46 15
Width: 249
Flags: W
HStem: -12 21G<67 96>
Fore
82 100 m 0
 111 100 138 75 138 42 c 0
 138 13 111 -12 81 -12 c 0
 53 -12 26 15 26 42 c 0
 26 75 53 100 82 100 c 0
EndSplineSet
EndChar
StartChar: slash
Encoding: 47 47 16
Width: 276
Flags: W
HStem: 646 20G<313 387>
Fore
313 666 m 1
 387 666 l 1
 7 -18 l 1
 -64 -18 l 1
 313 666 l 1
EndSplineSet
EndChar
StartChar: zero
Encoding: 48 48 17
Width: 499
Flags: W
HStem: -7 28<191 209> 647 30<332 343>
VStem: 32 79<157 212> 417 80<423 521>
Fore
341 677 m 0
 438 677 497 582 497 423 c 0
 497 278 420 113 319 40 c 0
 278 7 236 -7 193 -7 c 0
 97 -7 32 81 32 212 c 0
 32 448 185 677 341 677 c 0
334 647 m 0
 290 647 250 617 215 554 c 0
 163 461 111 262 111 157 c 0
 111 70 144 21 196 21 c 0
 242 21 283 56 321 122 c 0
 378 223 417 388 417 521 c 0
 417 602 388 647 334 647 c 0
EndSplineSet
EndChar
StartChar: one
Encoding: 49 49 18
Width: 499
Flags: W
HStem: 0 15<48 61.1667 297 328>
VStem: 401 8<669 675>
Fore
48 0 m 1
 48 15 l 1
 127 21 149 31 161 67 c 1
 299 560 l 2
 305 579 306 587 306 595 c 0
 306 614 291 625 268 625 c 2
 211 623 l 1
 211 639 l 1
 223 640 230 642 231 642 c 2
 322 661 l 1
 401 675 l 2
 401 677 404 677 404 677 c 2
 407 677 409 672 409 669 c 0
 409 664 407 655 403 640 c 2
 261 122 l 1
 259 116 l 1
 258 113 256 107 253 100 c 0
 246 75 242 56 242 47 c 0
 242 25 264 15 312 15 c 2
 328 15 l 1
 328 0 l 1
 48 0 l 1
EndSplineSet
EndChar
StartChar: two
Encoding: 50 50 19
Width: 499
Flags: W
HStem: 0 76<111 368> 603 74<242 290>
VStem: 366 87<480 505>
Fore
400 139 m 1
 417 132 l 1
 368 0 l 1
 12 0 l 1
 12 18 l 1
 223 242 l 2
 289 311 333 374 357 428 c 0
 363 441 366 460 366 480 c 0
 366 551 312 603 242 603 c 0
 182 603 138 574 101 508 c 1
 81 516 l 1
 108 587 136 623 187 650 c 0
 217 666 255 677 290 677 c 0
 381 677 453 602 453 505 c 0
 453 439 420 390 303 272 c 2
 111 81 l 1
 111 76 l 1
 300 76 l 2
 354 76 376 89 400 139 c 1
EndSplineSet
EndChar
StartChar: three
Encoding: 51 51 20
Width: 499
Flags: W
HStem: -7 98<59 127> 634 43<290 327>
VStem: 327 79<195 249> 379 87<536 554>
Fore
179 567 m 1xd0
 163 573 l 1
 195 636 256 677 327 677 c 0xe0
 406 677 466 623 466 549 c 0xd0
 466 480 431 448 311 401 c 1
 311 398 l 1
 376 368 406 321 406 249 c 0
 406 160 356 76 277 29 c 0
 234 4 185 -7 127 -7 c 0
 56 -7 15 15 15 53 c 0
 15 78 31 91 59 91 c 0
 78 91 94 83 123 63 c 0
 152 41 176 31 195 31 c 0
 234 31 281 59 305 100 c 0
 318 123 327 160 327 195 c 0xe0
 327 274 293 330 231 350 c 0
 207 360 193 360 141 360 c 1
 141 376 l 1
 229 393 272 407 313 437 c 0
 357 464 379 501 379 543 c 0
 379 598 343 634 290 634 c 0
 248 634 212 612 179 567 c 1xd0
EndSplineSet
EndChar
StartChar: four
Encoding: 52 52 21
Width: 499
Flags: W
HStem: 0 21G<214 293> 176 66<357 439> 657 20G<438 479>
Fore
453 242 m 1
 439 176 l 1
 338 176 l 1
 293 0 l 1
 214 0 l 1
 264 179 l 1
 1 179 l 1
 21 245 l 1
 438 677 l 1
 479 677 l 1
 357 242 l 1
 453 242 l 1
277 242 m 1
 374 562 l 1
 369 562 l 1
 64 245 l 1
 64 242 l 1
 277 242 l 1
EndSplineSet
EndChar
StartChar: five
Encoding: 53 53 22
Width: 499
Flags: W
HStem: -7 42<122 179> 595 71<234 469>
VStem: 350 69<242 280>
Fore
237 595 m 1
 199 507 l 1
 280 486 316 472 353 437 c 0
 395 395 419 341 419 280 c 0
 419 122 286 -7 122 -7 c 0
 56 -7 15 15 15 50 c 0
 15 75 32 89 56 89 c 0
 70 89 86 83 111 64 c 0
 141 42 158 35 179 35 c 0
 270 35 350 133 350 242 c 0
 350 294 330 346 297 371 c 0
 261 400 229 412 130 434 c 1
 130 448 l 1
 234 666 l 1
 491 666 l 1
 469 595 l 1
 237 595 l 1
EndSplineSet
EndChar
StartChar: six
Encoding: 54 54 23
Width: 499
Flags: W
HStem: -7 26<197 214> 412 35<259 291>
VStem: 29 76<149 204> 374 87<264 286>
Fore
521 686 m 1
 521 669 l 1
 403 656 270 555 199 428 c 1
 204 426 l 1
 231 439 264 447 291 447 c 0
 391 447 461 374 461 271 c 0
 461 120 349 -7 212 -7 c 0
 103 -7 29 76 29 204 c 0
 29 347 107 489 234 583 c 0
 319 646 387 671 521 686 c 1
259 412 m 0
 212 412 180 391 152 346 c 0
 126 300 105 217 105 149 c 0
 105 67 142 19 204 19 c 0
 246 19 281 40 312 85 c 0
 349 138 374 215 374 284 c 0
 374 360 330 412 259 412 c 0
EndSplineSet
EndChar
StartChar: seven
Encoding: 55 55 24
Width: 499
Flags: W
HStem: -7 21G<79 149> 593 73<157 444>
Fore
538 656 m 1
 149 -7 l 1
 79 -7 l 1
 445 590 l 1
 444 593 l 1
 223 593 l 2
 164 593 138 579 89 521 c 1
 75 530 l 1
 157 666 l 1
 532 666 l 1
 538 656 l 1
EndSplineSet
EndChar
StartChar: eight
Encoding: 56 56 25
Width: 499
Flags: W
HStem: -7 22<215 250> 653 24<318 334>
VStem: 29 69<152 173> 138 77<524 543> 369 75<154 175> 425 69<535 543>
Fore
330 382 m 1xf4
 415 294 444 240 444 173 c 0xf8
 444 70 352 -7 229 -7 c 0
 146 -7 86 22 53 79 c 0
 38 104 29 133 29 161 c 0
 29 249 100 319 226 360 c 1
 160 434 138 472 138 526 c 0
 138 615 211 677 318 677 c 0
 420 677 494 617 494 535 c 0
 494 464 447 420 330 382 c 1xf4
248 344 m 1
 229 337 229 337 226 335 c 0
 148 300 98 230 98 155 c 0
 98 75 154 15 233 15 c 0
 311 15 369 75 369 155 c 0
 369 211 357 229 248 344 c 1
311 398 m 1
 335 412 335 412 344 415 c 0
 400 444 425 482 425 535 c 0xf4
 425 605 382 653 318 653 c 0
 255 653 215 609 215 541 c 0
 215 498 233 472 311 398 c 1
EndSplineSet
EndChar
StartChar: nine
Encoding: 57 57 26
Width: 499
Flags: W
HStem: 229 46<220 256> 650 27<306 328>
VStem: 69 88<397 431> 417 75<458 519>
Fore
23 -18 m 1
 23 1 l 1
 103 18 152 44 224 105 c 1
 286 163 335 227 352 272 c 1
 349 274 l 1
 296 242 261 229 220 229 c 0
 130 229 69 305 69 409 c 0
 69 548 185 677 311 677 c 0
 420 677 492 589 492 458 c 0
 492 324 423 189 308 98 c 0
 226 34 158 6 23 -18 c 1
318 650 m 0
 284 650 253 637 229 612 c 0
 186 568 157 488 157 415 c 0
 157 327 193 275 256 275 c 0
 294 275 335 291 362 318 c 0
 393 347 417 439 417 519 c 0
 417 601 379 650 318 650 c 0
EndSplineSet
EndChar
StartChar: colon
Encoding: 58 58 27
Width: 332
Flags: W
HStem: -12 112<97 115> 330 111<202 211>
Fore
105 100 m 0
 136 100 161 75 161 42 c 0
 161 13 136 -12 104 -12 c 0
 75 -12 50 15 50 42 c 0
 50 75 75 100 105 100 c 0
205 441 m 0
 236 441 261 416 261 384 c 0
 261 354 236 330 204 330 c 0
 174 330 149 354 149 384 c 0
 149 416 174 441 205 441 c 0
EndSplineSet
EndChar
StartChar: semicolon
Encoding: 59 59 28
Width: 332
Flags: W
HStem: 330 111<201 207>
Fore
37 -129 m 1
 26 -111 l 1
 79 -78 103 -50 103 -23 c 0
 103 -13 97 -4 82 9 c 0
 63 26 57 37 57 54 c 0
 57 81 79 101 108 101 c 0
 141 101 166 70 166 29 c 0
 166 -26 120 -82 37 -129 c 1
205 441 m 0
 236 441 261 416 261 384 c 0
 261 354 236 330 204 330 c 0
 174 330 149 354 149 384 c 0
 149 416 174 441 205 441 c 0
EndSplineSet
EndChar
StartChar: less
Encoding: 60 60 29
Width: 673
Flags: W
Fore
592 -10 m 1
 83 220 l 1
 83 286 l 1
 592 516 l 1
 592 444 l 1
 171 253 l 1
 592 62 l 1
 592 -10 l 1
EndSplineSet
EndChar
StartChar: equal
Encoding: 61 61 30
Width: 673
Flags: W
HStem: 120 66<86 590> 319 68<86 590>
Fore
590 387 m 1
 590 319 l 1
 86 319 l 1
 86 387 l 1
 590 387 l 1
590 186 m 1
 590 120 l 1
 86 120 l 1
 86 186 l 1
 590 186 l 1
EndSplineSet
EndChar
StartChar: greater
Encoding: 62 62 31
Width: 673
Flags: W
Fore
83 -10 m 1
 83 62 l 1
 504 253 l 1
 83 444 l 1
 83 516 l 1
 592 286 l 1
 592 220 l 1
 83 -10 l 1
EndSplineSet
EndChar
StartChar: question
Encoding: 63 63 32
Width: 499
Flags: W
HStem: -12 104<185 187> 642 22<307 326>
VStem: 132 105<40 42> 185 79<541 555> 398 74<535 557>
Fore
215 174 m 1xd8
 199 176 l 1
 215 275 229 297 311 393 c 1
 376 463 398 505 398 557 c 0
 398 611 369 642 318 642 c 0
 275 642 248 624 248 595 c 0
 248 586 250 580 256 567 c 0
 261 555 264 549 264 542 c 0
 264 521 246 507 223 507 c 0
 199 507 185 524 185 555 c 0
 185 620 242 664 324 664 c 0
 413 664 472 612 472 535 c 0
 472 475 453 447 338 354 c 0
 267 297 237 259 223 204 c 2
 215 174 l 1xd8
185 92 m 0
 212 92 237 69 237 40 c 0xe8
 237 13 212 -12 185 -12 c 0xd8
 155 -12 132 12 132 40 c 0xe8
 132 69 155 92 185 92 c 0
EndSplineSet
EndChar
StartChar: at
Encoding: 64 64 33
Width: 919
Flags: W
HStem: -18 39<470 504> 139 43<410 451> 636 30<480 504>
VStem: 119 82<301 335> 321 72<248 271> 766 40<365 383>
Fore
587 450 m 1
 598 486 l 1
 666 486 l 1
 601 234 l 2
 599 227 598 218 598 212 c 0
 598 186 611 171 636 171 c 0
 661 171 686 183 705 202 c 0
 741 242 766 308 766 368 c 0
 766 513 637 636 480 636 c 0
 318 636 201 499 201 313 c 0
 201 142 324 21 494 21 c 0
 560 21 608 34 686 67 c 1
 699 40 l 1
 603 -4 554 -18 482 -18 c 0
 278 -18 119 130 119 319 c 0
 119 513 278 666 480 666 c 0
 664 666 806 539 806 376 c 0
 806 248 721 138 623 138 c 0
 576 138 539 167 533 209 c 1
 497 166 453 139 410 139 c 0
 360 139 321 187 321 250 c 0
 321 321 352 398 403 450 c 0
 434 482 475 499 516 499 c 0
 551 499 565 491 587 450 c 1
530 456 m 0
 505 458 472 438 442 406 c 0
 410 368 393 318 393 265 c 0
 393 212 415 182 451 182 c 0
 507 182 564 281 570 394 c 0
 573 431 557 454 530 456 c 0
EndSplineSet
EndChar
StartChar: A
Encoding: 65 65 34
Width: 610
Flags: W
HStem: 0 16<125.8 136 318 328.667 552.6 564> 226 36<174 374> 648 20G<368 394>
Fore
564 16 m 1
 564 0 l 1
 318 0 l 1
 318 16 l 1
 382 22 395 31 395 69 c 0
 395 78 395 86 394 95 c 1
 374 226 l 1
 154 226 l 1
 97 113 l 2
 81 79 78 70 78 51 c 0
 78 26 85 21 136 16 c 1
 136 0 l 1
 -51 0 l 1
 -51 16 l 1
 -12 23 -1 35 78 168 c 1
 368 668 l 1
 394 668 l 1
 488 103 l 1
 501 29 507 21 564 16 c 1
174 262 m 1
 369 262 l 1
 325 521 l 1
 174 262 l 1
EndSplineSet
EndChar
StartChar: B
Encoding: 66 66 35
Width: 610
Flags: W
HStem: 0 29<217.349 250> 331 32<237 289.393> 623 30<130 394> 637 16<130 140.333>
VStem: 431 108<191 214> 486 101<495 518>
Fore
-7 0 m 1xe8
 -7 16 l 1
 48 26 56 32 73 89 c 1
 196 532 l 1
 204 557 207 582 207 596 c 0
 207 624 192 631 130 637 c 1xd8
 130 653 l 1
 388 653 l 2
 517 653 587 601 587 505 c 0xe4
 587 466 573 432 545 409 c 0
 513 379 483 368 413 352 c 1
 464 330 485 316 505 294 c 1
 527 272 539 237 539 201 c 0
 539 82 431 0 274 0 c 2
 -7 0 l 1xe8
237 331 m 1
 226 280 220 256 207 212 c 0
 183 132 171 83 171 72 c 0
 171 45 193 29 234 29 c 0
 357 29 431 97 431 204 c 0
 431 258 406 302 365 319 c 0
 346 327 303 331 237 331 c 1
313 595 m 2
 248 363 l 1
 338 363 387 371 420 390 c 0
 463 415 486 458 486 516 c 0
 486 589 450 623 371 623 c 0xe4
 331 623 319 617 313 595 c 2
EndSplineSet
EndChar
StartChar: C
Encoding: 67 67 36
Width: 666
Flags: W
HStem: -18 44<327 353> 630 36<465 482>
VStem: 66 113<221 255>
Fore
652 464 m 1
 634 469 l 1
 624 576 573 630 480 630 c 0
 415 630 352 602 305 554 c 0
 226 472 179 352 179 231 c 0
 179 103 242 26 353 26 c 0
 435 26 494 57 583 145 c 1
 601 130 l 1
 510 26 431 -18 327 -18 c 0
 174 -18 66 89 66 243 c 0
 66 464 259 666 472 666 c 0
 504 666 543 661 589 649 c 0
 609 645 623 642 630 642 c 0
 650 642 661 647 668 664 c 1
 688 664 l 1
 652 464 l 1
EndSplineSet
EndChar
StartChar: D
Encoding: 68 68 37
Width: 720
Flags: W
HStem: 0 29<216 266> 623 30<130 394> 637 16<130 140.333>
VStem: 589 111<382 411>
Fore
130 637 m 1xb0
 130 653 l 1xd0
 409 653 l 2
 586 653 700 548 700 384 c 0
 700 268 643 158 546 86 c 0
 469 31 362 0 245 0 c 2
 -7 0 l 1
 -7 16 l 1
 48 26 56 32 73 89 c 1
 196 532 l 2
 204 557 207 582 207 596 c 0
 207 623 192 631 130 637 c 1xb0
313 595 m 2
 192 163 l 2
 174 103 170 81 170 67 c 0
 170 41 189 29 234 29 c 0
 338 29 420 60 479 120 c 0
 546 187 589 300 589 409 c 0
 589 486 562 549 513 586 c 0
 480 609 431 623 374 623 c 0
 334 623 319 617 313 595 c 2
EndSplineSet
EndChar
StartChar: E
Encoding: 69 69 38
Width: 610
Flags: W
HStem: 0 34<238 505> 325 38<302 333> 620 33<138 448> 637 16<138 148.167>
Fore
634 653 m 1xd0
 603 499 l 1
 582 502 l 1
 583 519 584 535 584 546 c 0
 584 606 549 620 393 620 c 0xe0
 335 620 325 617 319 595 c 2
 253 360 l 1
 289 362 319 363 333 363 c 0
 423 368 432 374 470 458 c 1
 488 454 l 1
 420 223 l 1
 400 227 l 1
 404 249 407 262 407 278 c 0
 407 296 404 305 400 311 c 0
 390 319 360 327 322 325 c 0
 311 325 278 327 245 328 c 1
 234 290 226 256 212 212 c 0
 187 125 176 78 176 67 c 0
 176 42 201 34 256 34 c 0
 331 34 398 42 437 60 c 0
 479 81 505 105 552 170 c 1
 568 163 l 1
 505 0 l 1
 -1 0 l 1
 -1 16 l 1
 56 26 63 34 81 89 c 1
 204 532 l 2
 208 549 214 584 214 596 c 0
 214 623 199 631 138 637 c 1xd0
 138 653 l 1xe0
 634 653 l 1xd0
EndSplineSet
EndChar
StartChar: F
Encoding: 70 70 39
Width: 610
Flags: W
HStem: 0 16<7 15.1429 241.333 261> 325 35<264 335> 620 33<146 456> 637 16<146 157>
Fore
645 653 m 1xd0
 612 499 l 1
 592 502 l 1
 593 514 593 516 595 521 c 0
 595 535 595 539 595 545 c 0
 595 606 560 620 391 620 c 0xe0
 350 620 335 614 330 595 c 1
 264 360 l 1
 432 363 435 365 480 454 c 1
 498 450 l 1
 422 215 l 1
 404 220 l 1
 412 250 413 264 413 278 c 0
 413 299 406 312 391 319 c 0
 382 324 375 325 335 325 c 0
 313 325 291 327 255 328 c 1
 193 105 l 2
 187 83 185 67 185 60 c 0
 185 29 202 19 261 16 c 1
 261 0 l 1
 7 0 l 1
 7 16 l 1
 64 23 72 29 89 89 c 1
 212 532 l 1
 220 557 224 582 224 596 c 0
 224 625 212 631 146 637 c 1xd0
 146 653 l 1xe0
 645 653 l 1xd0
EndSplineSet
EndChar
StartChar: G
Encoding: 71 71 40
Width: 720
Flags: W
HStem: -18 37<338 367> 300 19<456 485> 631 35<452 471>
VStem: 53 110<223 255>
Fore
707 662 m 1
 659 464 l 1
 642 469 l 1
 636 513 628 533 612 560 c 0
 583 605 527 631 463 631 c 0
 397 631 335 605 290 558 c 0
 211 475 163 347 163 224 c 0
 163 92 234 19 365 19 c 0
 409 19 447 31 469 53 c 0
 480 64 483 73 505 145 c 0
 527 220 535 248 535 270 c 0
 535 287 519 297 485 300 c 0
 480 300 469 302 456 303 c 1
 456 319 l 1
 722 319 l 1
 722 303 l 1
 658 299 642 287 625 231 c 1
 576 44 l 1
 499 1 428 -18 338 -18 c 0
 252 -18 179 9 127 60 c 0
 81 108 53 179 53 246 c 0
 53 466 245 666 456 666 c 0
 497 666 539 658 589 642 c 0
 611 636 623 631 633 631 c 0
 659 631 677 642 693 666 c 1
 707 662 l 1
EndSplineSet
EndChar
StartChar: H
Encoding: 72 72 41
Width: 720
Flags: W
HStem: 0 16<228.714 237 354 363.429 617.333 628> 327 41<248 521> 637 16<130 140.333 388 403 520 528.429>
Fore
768 653 m 1
 768 637 l 1
 710 627 702 621 686 562 c 1
 554 82 l 2
 551 75 549 67 549 59 c 0
 549 29 564 22 628 16 c 1
 628 0 l 1
 354 0 l 1
 354 16 l 1
 420 23 439 38 456 89 c 1
 521 327 l 1
 236 327 l 1
 170 82 l 2
 168 75 167 67 167 60 c 0
 167 31 179 23 237 16 c 1
 237 0 l 1
 -7 0 l 1
 -7 16 l 1
 48 26 56 32 73 89 c 1
 196 532 l 2
 204 557 207 580 207 595 c 0
 207 623 192 631 130 637 c 1
 130 653 l 1
 403 653 l 1
 403 637 l 1
 343 633 316 614 302 562 c 1
 248 368 l 1
 533 368 l 1
 579 532 l 2
 586 557 590 580 590 595 c 0
 590 623 579 630 520 637 c 1
 520 653 l 1
 768 653 l 1
EndSplineSet
EndChar
StartChar: I
Encoding: 73 73 42
Width: 332
Flags: W
HStem: 0 16<227.857 236> 637 16<138 146.143>
Fore
-7 0 m 1
 -7 16 l 1
 48 26 56 32 73 89 c 1
 196 532 l 2
 204 557 207 580 207 595 c 0
 207 623 195 630 138 637 c 1
 138 653 l 1
 384 653 l 1
 384 637 l 1
 327 627 319 621 302 562 c 1
 179 120 l 2
 170 88 168 76 168 57 c 0
 168 29 179 23 236 16 c 1
 236 0 l 1
 -7 0 l 1
EndSplineSet
EndChar
StartChar: J
Encoding: 74 74 43
Width: 443
Flags: W
HStem: -18 31<111 124> 637 16<237 247.5>
VStem: -6 92<53 80>
Fore
491 653 m 1
 491 637 l 1
 434 628 428 623 409 562 c 1
 306 192 l 2
 286 116 265 70 237 40 c 0
 207 1 163 -18 111 -18 c 0
 41 -18 -6 18 -6 70 c 0
 -6 103 13 125 40 125 c 0
 64 125 88 103 88 78 c 2
 88 67 l 1
 86 62 86 59 86 53 c 0
 86 26 98 13 122 13 c 0
 146 13 160 28 171 67 c 2
 302 532 l 2
 311 560 313 582 313 596 c 0
 313 623 300 631 237 637 c 1
 237 653 l 1
 491 653 l 1
EndSplineSet
EndChar
StartChar: K
Encoding: 75 75 44
Width: 666
Flags: W
HStem: 0 16<246 255 607.5 618> 634 19<499 527>
Fore
722 653 m 1
 722 637 l 1
 699 633 675 623 647 601 c 2
 347 375 l 1
 521 72 l 1
 549 25 555 22 618 16 c 1
 618 0 l 1
 343 0 l 1
 343 16 l 1
 356 18 368 19 372 19 c 0
 404 22 417 29 417 45 c 0
 417 64 404 100 379 141 c 2
 259 349 l 1
 196 120 l 1
 190 100 l 2
 185 79 183 70 183 60 c 0
 183 29 192 23 255 16 c 1
 255 0 l 1
 7 0 l 1
 7 16 l 1
 66 25 70 29 89 89 c 1
 212 532 l 2
 220 557 223 580 223 595 c 0
 223 623 208 631 146 637 c 1
 146 653 l 1
 419 653 l 1
 419 637 l 1
 360 633 333 612 318 562 c 1
 265 369 l 1
 417 475 l 2
 505 538 561 590 561 615 c 0
 561 625 551 631 527 634 c 0
 523 634 513 636 499 637 c 1
 499 653 l 1
 722 653 l 1
EndSplineSet
EndChar
StartChar: L
Encoding: 76 76 45
Width: 555
Flags: W
HStem: 0 37<232 501> 637 16<130 140.333 388 403>
Fore
403 653 m 1
 403 637 l 1
 343 633 316 614 302 562 c 1
 179 120 l 2
 174 101 168 78 168 70 c 0
 168 44 193 37 270 37 c 0
 357 37 398 42 434 59 c 0
 478 81 504 113 539 185 c 1
 560 179 l 1
 501 0 l 1
 -7 0 l 1
 -7 16 l 1
 48 26 56 32 73 89 c 1
 196 532 l 2
 204 557 207 580 207 595 c 0
 207 623 192 631 130 637 c 1
 130 653 l 1
 403 653 l 1
EndSplineSet
EndChar
StartChar: M
Encoding: 77 77 46
Width: 832
Flags: W
HStem: 0 16<-18 -9.33333 169.8 180 461 470.286 722.667 734> 637 16<133 150.333>
Fore
873 653 m 1
 873 637 l 1
 814 628 809 623 791 562 c 1
 668 120 l 1
 659 89 658 76 658 59 c 0
 658 28 666 22 734 16 c 1
 734 0 l 1
 461 0 l 1
 461 16 l 1
 526 23 546 38 562 91 c 1
 691 561 l 1
 313 0 l 1
 297 0 l 1
 236 546 l 1
 119 113 l 1
 113 97 108 70 108 60 c 0
 108 32 129 21 180 16 c 1
 180 0 l 1
 -18 0 l 1
 -18 16 l 1
 34 22 48 42 81 146 c 1
 186 519 l 2
 187 521 187 526 189 529 c 0
 193 543 196 555 198 560 c 0
 204 577 208 592 208 601 c 0
 208 623 185 634 133 637 c 1
 133 653 l 1
 315 653 l 1
 371 160 l 1
 706 653 l 1
 873 653 l 1
EndSplineSet
EndChar
StartChar: N
Encoding: 78 78 47
Width: 666
Flags: W
HStem: 0 16<-21 -12.7143 168.6 179> 637 16<116 127.75 527 536.5>
Fore
727 653 m 1
 727 637 l 1
 664 623 661 617 623 488 c 2
 479 -15 l 1
 461 -15 l 1
 231 535 l 1
 117 113 l 1
 111 92 108 72 108 59 c 0
 108 31 127 21 179 16 c 1
 179 0 l 1
 -21 0 l 1
 -21 16 l 1
 37 23 45 37 83 164 c 1
 202 582 l 1
 185 620 163 633 116 637 c 1
 116 653 l 1
 277 653 l 1
 485 154 l 1
 587 535 l 1
 587 535 587 539 589 542 c 0
 596 562 598 574 598 586 c 0
 598 623 584 631 527 637 c 1
 527 653 l 1
 727 653 l 1
EndSplineSet
EndChar
StartChar: O
Encoding: 79 79 48
Width: 720
Flags: W
HStem: -18 33<276 301> 633 33<459 482>
VStem: 60 106<185 221>
Fore
475 666 m 0
 608 666 706 560 699 417 c 0
 688 192 486 -18 278 -18 c 4
 151 -18 60 81 60 221 c 0
 60 338 119 460 220 554 c 0
 300 625 390 666 475 666 c 0
464 633 m 0
 393 633 331 595 275 514 c 0
 215 428 166 278 166 185 c 0
 166 76 211 15 294 15 c 0
 365 15 428 54 482 133 c 0
 546 227 595 374 595 480 c 0
 595 576 543 633 464 633 c 0
EndSplineSet
EndChar
StartChar: P
Encoding: 80 80 49
Width: 610
Flags: W
HStem: 0 16<0 8.14286> 305 36<301 336> 623 30<146 385> 637 16<146 154.286>
VStem: 502 103<504 518>
Fore
146 637 m 1xd8
 146 653 l 1xe8
 394 653 l 2
 530 653 605 601 605 504 c 0
 605 445 576 390 526 353 c 0
 483 322 416 305 334 305 c 0
 293 305 267 308 242 313 c 1
 189 120 l 2
 179 83 177 75 177 62 c 0
 177 28 182 25 245 16 c 1
 245 0 l 1
 0 0 l 1
 0 16 l 1
 57 23 64 29 82 89 c 1
 201 516 l 1
 212 560 217 582 217 595 c 0
 217 621 204 630 146 637 c 1xd8
322 595 m 2
 250 347 l 1
 278 343 286 341 303 341 c 0
 365 341 404 350 435 368 c 0
 479 393 502 439 502 504 c 0
 502 551 491 582 464 599 c 0
 445 612 407 623 368 623 c 0
 340 623 328 617 322 595 c 2
EndSplineSet
EndChar
StartChar: Q
Encoding: 81 81 50
Width: 720
Flags: W
HStem: -183 67<429 483> 633 33<448 483>
VStem: 60 106<183 221> 595 104<434 480>
Fore
278 -16 m 1
 226 -73 l 1
 250 -73 l 1
 250 -73 252 -73 256 -72 c 0
 262 -70 309 -81 360 -92 c 0
 437 -111 458 -116 483 -116 c 0
 557 -116 598 -97 653 -38 c 1
 668 -48 l 1
 642 -85 628 -100 605 -117 c 0
 554 -157 483 -183 429 -183 c 0
 393 -183 338 -173 277 -157 c 0
 233 -144 204 -138 185 -138 c 0
 145 -138 107 -148 69 -168 c 1
 59 -154 l 1
 136 -100 145 -92 236 -12 c 1
 192 -1 170 7 144 29 c 0
 89 70 60 139 60 221 c 0
 60 338 119 458 220 554 c 1
 300 625 390 666 470 666 c 0
 603 666 699 568 699 434 c 0
 699 275 598 113 450 29 c 0
 394 -1 356 -12 278 -16 c 1
464 633 m 0
 393 633 331 595 275 514 c 0
 214 428 166 278 166 183 c 0
 166 78 212 18 293 18 c 0
 366 18 428 56 483 135 c 0
 546 227 595 374 595 480 c 0
 595 576 545 633 464 633 c 0
EndSplineSet
EndChar
StartChar: R
Encoding: 82 82 51
Width: 610
Flags: W
HStem: 0 16<222.286 231 552.333 567> 623 30<132 381>
VStem: 483 104<495 513>
Fore
567 16 m 1
 567 0 l 1
 419 0 l 1
 296 324 l 1
 231 330 l 1
 174 120 l 1
 166 85 163 72 163 62 c 0
 163 29 170 23 231 16 c 1
 231 0 l 1
 -13 0 l 1
 -13 16 l 1
 42 25 50 31 67 89 c 1
 190 532 l 1
 198 560 204 583 204 595 c 0
 204 606 196 618 189 623 c 0
 179 630 174 631 132 637 c 1
 132 653 l 1
 379 653 l 2
 514 653 587 602 587 508 c 0
 587 464 570 425 538 395 c 0
 501 365 469 350 391 333 c 1
 483 88 l 1
 502 37 523 19 567 16 c 1
308 595 m 2
 243 366 l 1
 267 362 278 360 294 360 c 0
 419 360 483 412 483 511 c 0
 483 584 442 623 359 623 c 0
 327 623 313 617 308 595 c 2
EndSplineSet
EndChar
StartChar: S
Encoding: 83 83 52
Width: 499
Flags: W
HStem: -18 36<207 231> 633 33<309 332>
VStem: 130 90<499 532> 344 87<149 182>
Fore
469 469 m 1
 450 472 l 1
 448 538 439 571 417 596 c 0
 397 620 366 633 330 633 c 0
 261 633 220 595 220 532 c 0
 220 482 229 469 318 376 c 0
 409 286 431 248 431 182 c 0
 431 69 344 -18 229 -18 c 0
 198 -18 171 -12 125 4 c 0
 100 15 83 18 73 18 c 0
 53 18 42 7 35 -15 c 1
 18 -15 l 1
 51 208 l 1
 70 207 l 1
 70 199 69 190 69 183 c 0
 69 88 132 18 215 18 c 0
 289 18 344 75 344 149 c 0
 344 193 331 220 284 268 c 0
 277 275 264 291 245 311 c 0
 229 330 215 343 207 352 c 0
 146 416 130 445 130 499 c 0
 130 598 205 666 309 666 c 0
 340 666 372 661 394 652 c 0
 417 645 428 642 439 642 c 0
 461 642 472 646 485 666 c 1
 508 666 l 1
 469 469 l 1
EndSplineSet
EndChar
StartChar: T
Encoding: 84 84 53
Width: 555
Flags: W
HStem: 0 16<64 77.2 346 354> 618 35<101 315 101 492>
Fore
633 653 m 1
 589 491 l 1
 573 492 l 1
 574 508 576 524 576 538 c 0
 576 593 543 618 472 618 c 2
 416 618 l 1
 277 120 l 1
 268 86 265 75 265 62 c 0
 265 31 277 22 316 19 c 0
 324 19 338 18 354 16 c 1
 354 0 l 1
 64 0 l 1
 64 16 l 1
 130 21 155 37 171 89 c 1
 315 618 l 1
 163 620 130 603 78 495 c 1
 59 499 l 1
 101 653 l 1
 633 653 l 1
EndSplineSet
EndChar
StartChar: U
Encoding: 85 85 54
Width: 720
Flags: W
HStem: -18 41<317 344> 637 16<127 138 390.429 400 565 576>
VStem: 103 89<139 148>
Fore
765 653 m 1
 765 637 l 1
 703 623 699 618 661 488 c 2
 579 204 l 2
 535 53 451 -18 319 -18 c 0
 193 -18 103 51 103 146 c 0
 103 187 116 250 145 359 c 2
 198 551 l 1
 202 568 205 584 205 596 c 0
 205 625 193 631 127 637 c 1
 127 653 l 1
 400 653 l 1
 400 637 l 1
 333 630 316 617 294 546 c 0
 294 541 291 535 290 527 c 0
 223 296 192 174 192 141 c 0
 192 70 249 23 333 23 c 0
 401 23 456 54 495 116 c 0
 517 149 532 190 549 255 c 0
 555 274 560 291 562 305 c 0
 611 473 637 576 637 590 c 0
 637 603 630 618 620 624 c 0
 608 631 598 634 565 637 c 1
 565 653 l 1
 765 653 l 1
EndSplineSet
EndChar
StartChar: V
Encoding: 86 86 55
Width: 610
Flags: W
HStem: 637 16<76 84 307 316 502 509.333 665 688>
Fore
688 653 m 1
 688 637 l 1
 665 636 649 624 631 598 c 2
 259 -18 l 1
 240 -18 l 1
 155 502 l 1
 133 627 132 630 76 637 c 1
 76 653 l 1
 316 653 l 1
 316 637 l 1
 253 630 240 620 240 586 c 0
 240 580 240 576 242 571 c 1
 308 127 l 1
 513 483 l 2
 546 541 565 584 565 603 c 0
 565 623 546 631 502 637 c 1
 502 653 l 1
 688 653 l 1
EndSplineSet
EndChar
StartChar: W
Encoding: 87 87 56
Width: 832
Flags: W
HStem: 637 16<70 78.5 299.143 308 368 390.375 368 425 596 605 721 730>
Fore
907 653 m 1
 907 637 l 1
 869 625 858 617 831 565 c 2
 527 -18 l 1
 508 -18 l 1
 458 437 l 1
 453 437 l 1
 231 -18 l 1
 212 -18 l 1
 149 499 l 1
 138 590 133 609 122 621 c 0
 113 630 104 633 70 637 c 1
 70 653 l 1
 308 653 l 1
 308 637 l 1
 246 630 234 621 234 582 c 0
 234 580 234 573 234 568 c 1
 278 163 l 1
 451 510 l 1
 442 579 l 1
 435 628 425 636 368 637 c 1
 368 653 l 1
 605 653 l 1
 605 637 l 1
 551 631 538 620 538 579 c 1
 538 564 l 1
 579 163 l 1
 765 530 l 2
 778 557 787 582 787 598 c 0
 787 625 775 631 721 637 c 1
 721 653 l 1
 907 653 l 1
EndSplineSet
EndChar
StartChar: X
Encoding: 88 88 57
Width: 610
Flags: W
HStem: 0 16<185 185 294 307.2 557 567> 637 16<76 85.5 332.286 340 447 455.333>
Fore
655 653 m 1
 655 637 l 1
 612 623 582 601 530 542 c 1
 360 349 l 1
 463 89 l 1
 488 29 497 23 567 16 c 1
 567 0 l 1
 294 0 l 1
 294 16 l 1
 360 21 371 26 371 56 c 0
 371 70 366 86 359 104 c 2
 291 270 l 1
 141 97 l 2
 127 82 120 64 120 50 c 0
 120 25 138 16 185 16 c 1
 185 0 l 1
 -29 0 l 1
 -29 16 l 1
 23 26 53 53 190 215 c 0
 204 231 237 271 274 313 c 1
 168 576 l 2
 149 623 133 631 76 637 c 1
 76 653 l 1
 340 653 l 1
 340 637 l 1
 286 630 270 621 270 596 c 0
 270 583 272 565 284 541 c 1
 343 393 l 1
 488 560 l 2
 502 576 508 587 508 601 c 0
 508 624 497 631 447 637 c 1
 447 653 l 1
 655 653 l 1
EndSplineSet
EndChar
StartChar: Y
Encoding: 89 89 58
Width: 555
Flags: W
HStem: 0 16<78 91.2 360 368> 637 16<320 330 444 456>
Fore
91 637 m 1
 91 653 l 1
 330 653 l 1
 330 637 l 1
 270 631 258 625 258 601 c 0
 258 586 270 543 294 457 c 0
 311 404 313 391 325 347 c 1
 340 365 346 374 363 393 c 0
 467 514 513 579 513 606 c 0
 513 623 499 631 472 634 c 0
 467 636 456 636 444 637 c 1
 444 653 l 1
 633 653 l 1
 633 637 l 1
 603 623 595 617 562 576 c 2
 344 306 l 1
 315 205 l 2
 313 201 312 193 309 185 c 0
 286 107 278 78 278 56 c 0
 278 31 291 21 331 19 c 0
 337 18 352 18 368 16 c 1
 368 0 l 1
 78 0 l 1
 78 16 l 1
 144 21 166 37 183 89 c 1
 245 302 l 1
 167 571 l 1
 149 625 146 628 91 637 c 1
EndSplineSet
EndChar
StartChar: Z
Encoding: 90 90 59
Width: 555
Flags: W
HStem: 0 37<123 499> 617 36<120 473>
Fore
606 653 m 1
 606 639 l 1
 123 37 l 1
 284 37 l 2
 366 37 416 44 450 64 c 0
 483 83 502 107 535 171 c 1
 554 168 l 1
 499 0 l 1
 -6 0 l 1
 -6 15 l 1
 473 617 l 1
 302 617 l 2
 227 617 174 603 145 580 c 0
 126 562 114 546 92 502 c 1
 75 507 l 1
 120 653 l 1
 606 653 l 1
EndSplineSet
EndChar
StartChar: bracketleft
Encoding: 91 91 60
Width: 388
Flags: W
HStem: -152 26<148 209> 636 28<218 384>
Fore
384 636 m 1
 322 636 l 2
 293 636 281 627 275 601 c 2
 116 -78 l 2
 111 -92 111 -92 111 -98 c 0
 111 -117 127 -126 160 -126 c 2
 215 -126 l 1
 209 -152 l 1
 21 -152 l 1
 218 664 l 1
 391 664 l 1
 384 636 l 1
EndSplineSet
EndChar
StartChar: backslash
Encoding: 92 92 61
Width: 276
Flags: W
HStem: 646 20G<-41 31>
Fore
-41 666 m 1
 31 666 l 1
 319 -18 l 1
 248 -18 l 1
 -41 666 l 1
EndSplineSet
EndChar
StartChar: bracketright
Encoding: 93 93 62
Width: 388
Flags: W
HStem: -152 26<18 185> 636 28<192 253>
Fore
19 -126 m 1
 81 -126 l 2
 111 -126 120 -119 127 -89 c 2
 289 587 l 2
 291 603 291 605 291 609 c 0
 291 627 275 636 243 636 c 2
 186 636 l 1
 193 664 l 1
 382 664 l 1
 185 -152 l 1
 12 -152 l 1
 19 -126 l 1
EndSplineSet
EndChar
StartChar: asciicircum
Encoding: 94 94 63
Width: 421
Flags: W
HStem: 646 20G<182 242>
Fore
67 300 m 1
 0 300 l 1
 182 666 l 1
 242 666 l 1
 422 300 l 1
 354 300 l 1
 211 590 l 1
 67 300 l 1
EndSplineSet
EndChar
StartChar: underscore
Encoding: 95 95 64
Width: 499
Flags: W
HStem: -125 50<0 499>
Fore
499 -125 m 1
 0 -125 l 1
 0 -75 l 1
 499 -75 l 1
 499 -125 l 1
EndSplineSet
EndChar
StartChar: grave
Encoding: 96 96 65
Width: 219
Flags: W
Fore
312 453 m 1
 290 442 l 1
 267 485 212 579 205 603 c 0
 198 625 217 650 237 661 c 0
 256 669 284 669 290 646 c 0
 297 621 308 505 312 453 c 1
EndSplineSet
EndChar
StartChar: a
Encoding: 97 97 66
Width: 499
Flags: W
HStem: -12 50<119 160>
VStem: 18 83<98 117> 297 74<31 54>
Fore
464 110 m 1
 476 100 l 1
 401 9 376 -10 337 -10 c 0
 309 -10 297 1 297 31 c 0
 297 56 300 67 319 146 c 1
 231 22 189 -12 119 -12 c 0
 56 -12 18 29 18 100 c 0
 18 258 171 441 303 441 c 0
 346 441 375 420 382 382 c 1
 394 431 l 1
 397 434 l 1
 458 441 l 1
 464 438 l 1
 463 429 461 428 458 417 c 0
 412 245 371 75 371 54 c 0
 371 47 376 41 384 41 c 0
 393 41 406 51 437 82 c 0
 442 89 450 95 464 110 c 1
309 419 m 0
 270 422 223 390 182 333 c 0
 139 270 101 167 101 113 c 0
 101 67 125 38 160 38 c 0
 187 38 223 56 246 82 c 0
 315 157 365 274 365 357 c 0
 365 393 343 417 309 419 c 0
EndSplineSet
EndChar
StartChar: b
Encoding: 98 98 67
Width: 499
Flags: W
HStem: -12 24<150 169> 393 48<318 357>
VStem: 23 85<40 45> 388 85<304 323>
Fore
110 643 m 1
 110 661 l 1
 177 668 212 674 264 683 c 1
 268 678 l 1
 223 507 215 480 164 290 c 1
 234 400 287 441 357 441 c 0
 423 441 473 391 473 321 c 0
 473 164 308 -12 157 -12 c 0
 100 -12 23 19 23 42 c 2
 23 45 l 1
 160 546 l 1
 161 554 l 1
 163 560 164 565 166 573 c 0
 171 595 174 606 174 617 c 0
 174 639 168 642 110 643 c 1
318 393 m 0
 270 393 226 354 182 277 c 0
 139 204 108 105 108 45 c 0
 108 23 125 12 155 12 c 0
 198 12 242 34 278 70 c 0
 337 133 388 240 388 306 c 0
 388 359 360 393 318 393 c 0
EndSplineSet
EndChar
StartChar: c
Encoding: 99 99 68
Width: 443
Flags: W
HStem: -12 37<177 207> 420 21<300 321>
VStem: 29 87<139 149> 338 87<350 362>
Fore
350 105 m 1
 366 97 l 1
 306 21 250 -12 177 -12 c 0
 83 -12 29 44 29 139 c 0
 29 294 170 441 319 441 c 0
 379 441 425 406 425 360 c 0
 425 334 404 313 376 313 c 0
 353 313 338 328 338 352 c 0
 338 360 340 368 347 381 c 0
 352 390 353 395 353 400 c 0
 353 412 338 420 315 420 c 0
 275 420 236 401 207 372 c 0
 151 313 116 224 116 139 c 0
 116 67 149 25 207 25 c 0
 256 25 294 47 350 105 c 1
EndSplineSet
EndChar
StartChar: d
Encoding: 100 100 69
Width: 499
Flags: W
HStem: -12 49<120 160>
VStem: 15 88<103 124> 287 76<32 60>
Fore
463 111 m 1
 475 101 l 1
 423 28 371 -13 330 -13 c 0
 305 -13 287 4 287 32 c 0
 287 56 289 70 300 122 c 1
 231 21 187 -12 120 -12 c 0
 56 -12 15 32 15 103 c 0
 15 253 177 441 308 441 c 0
 346 441 365 425 372 382 c 1
 416 546 l 2
 431 598 431 603 431 617 c 0
 431 639 423 642 369 643 c 1
 369 661 l 1
 434 666 469 672 521 683 c 1
 527 678 l 1
 476 478 456 398 428 306 c 0
 395 196 363 75 363 60 c 0
 363 48 371 40 381 40 c 0
 398 40 409 48 463 111 c 1
311 417 m 0
 283 420 246 401 218 372 c 0
 152 302 103 186 103 103 c 0
 103 64 126 37 160 37 c 0
 252 37 356 209 356 360 c 0
 356 397 341 416 311 417 c 0
EndSplineSet
EndChar
StartChar: e
Encoding: 101 101 70
Width: 443
Flags: W
HStem: -12 46<163 212> 417 24<311 333>
VStem: 31 88<109 133> 346 66<371 381>
Fore
357 108 m 1
 371 97 l 1
 311 29 234 -12 163 -12 c 0
 85 -12 31 45 31 126 c 0
 31 275 187 441 333 441 c 0
 382 441 412 415 412 374 c 0
 412 287 306 211 157 190 c 2
 127 186 l 1
 120 154 119 139 119 125 c 0
 119 70 155 34 212 34 c 0
 255 34 286 50 357 108 c 1
152 252 m 2
 135 208 l 1
 221 229 259 248 296 283 c 0
 327 312 346 349 346 379 c 0
 346 401 333 417 311 417 c 0
 261 417 186 341 152 252 c 2
EndSplineSet
EndChar
StartChar: f
Encoding: 102 102 71
Width: 276
Flags: W
HStem: -207 21<-68 -58> 395 33<41 125 211 313> 656 22<331 340>
VStem: -146 65<-170 -146> -146 76<-148 -142> 354 69<612 645>
Fore
35 395 m 1xf4
 42 428 l 1
 133 428 l 1
 164 524 185 570 214 609 c 0
 250 656 289 678 338 678 c 0
 387 678 423 650 423 612 c 0
 423 590 404 573 382 573 c 0
 360 573 346 589 346 612 c 0
 346 620 347 625 352 634 c 0
 354 639 354 642 354 645 c 0
 354 650 346 656 333 656 c 0
 277 656 240 584 211 428 c 1
 319 428 l 1
 313 395 l 1
 204 395 l 1
 132 76 l 1
 91 -108 21 -207 -67 -207 c 0
 -111 -207 -146 -180 -146 -146 c 0xf4
 -146 -123 -130 -105 -110 -105 c 0
 -89 -105 -70 -122 -70 -144 c 0xec
 -70 -149 -72 -152 -76 -160 c 0
 -79 -164 -81 -167 -81 -170 c 0
 -81 -179 -72 -186 -60 -186 c 0
 -18 -186 15 -130 37 -23 c 1
 125 395 l 1
 35 395 l 1xf4
EndSplineSet
EndChar
StartChar: g
Encoding: 103 103 72
Width: 499
Flags: W
HStem: -207 22<169 200> 151 20<230 246> 366 38<412 472> 419 22<283.463 299>
VStem: 7 56<-96 -78> 97 77<248 270> 325 60<-89 -60> 352 79<311 349> 352 120<349 404>
Fore
472 404 m 1xfc80
 472 366 l 1xfc80
 422 366 l 1
 428 346 431 327 431 311 c 0xfd
 431 231 337 151 246 151 c 0
 237 151 223 152 215 154 c 0
 212 155 209 155 208 155 c 0
 195 155 171 129 171 114 c 0
 171 100 198 83 242 72 c 0
 337 47 385 3 385 -60 c 0xfe
 385 -146 300 -207 174 -207 c 0
 75 -207 7 -161 7 -92 c 0
 7 -45 26 -26 125 40 c 1
 105 53 98 64 98 78 c 0
 98 103 116 122 174 163 c 1
 119 187 97 218 97 270 c 0
 97 365 186 441 297 441 c 0
 335 441 368 431 395 413 c 0
 403 407 409 404 412 404 c 2
 472 404 l 1xfc80
148 28 m 0
 141 28 98 -4 85 -22 c 0
 69 -41 63 -59 63 -82 c 0
 63 -146 110 -185 190 -185 c 0
 267 -185 325 -144 325 -89 c 0xfe
 325 -44 289 -16 182 18 c 0
 166 22 157 25 152 26 c 0
 151 26 149 28 148 28 c 0
296 419 m 0
 231 419 174 338 174 248 c 0
 174 201 196 171 234 171 c 0
 268 171 299 193 321 234 c 0
 340 270 352 313 352 349 c 0xfd
 352 395 333 419 296 419 c 0
EndSplineSet
EndChar
StartChar: h
Encoding: 104 104 73
Width: 499
Flags: W
HStem: -9 47<333 382> 390 51<341 382> 642 14<111 118.5>
VStem: 289 79<34 56> 371 77<363 374>
Fore
464 117 m 1
 478 105 l 1
 417 18 382 -9 333 -9 c 0
 305 -9 289 7 289 34 c 0
 289 45 294 76 308 125 c 2
 363 333 l 2
 368 349 371 360 371 365 c 0
 371 378 357 390 341 390 c 0
 308 390 239 328 187 249 c 0
 146 187 133 154 94 0 c 1
 19 0 l 1
 154 513 l 2
 160 535 163 548 164 549 c 0
 173 579 179 603 179 617 c 0
 179 631 154 647 141 642 c 0
 139 642 138 642 138 642 c 2
 111 642 l 1
 111 656 l 1
 171 664 209 669 268 683 c 1
 272 678 l 1
 152 230 l 1
 246 375 316 441 382 441 c 0
 420 441 448 415 448 374 c 0
 448 350 429 275 400 182 c 0
 382 129 368 66 368 56 c 0
 368 47 374 38 382 38 c 0
 398 38 412 48 464 117 c 1
EndSplineSet
EndChar
StartChar: i
Encoding: 105 105 74
Width: 276
Flags: W
HStem: -12 49<95 141> 548 105<207 223>
VStem: 48 77<45 53>
Fore
223 114 m 1
 234 103 l 1
 179 19 141 -12 95 -12 c 0
 64 -12 48 9 48 45 c 0
 48 66 56 97 70 155 c 2
 119 333 l 1
 125 352 127 368 127 376 c 0
 127 395 119 398 64 400 c 1
 64 416 l 1
 104 419 125 422 226 441 c 1
 229 439 l 1
 141 117 l 1
 139 116 l 1
 139 113 l 1
 138 105 133 98 133 95 c 0
 127 76 125 62 125 51 c 0
 125 44 132 37 141 37 c 0
 149 37 164 45 182 63 c 0
 190 75 198 82 223 114 c 1
214 653 m 0
 242 653 264 628 264 599 c 0
 264 571 242 548 215 548 c 0
 186 548 167 568 167 601 c 0
 167 631 187 653 214 653 c 0
EndSplineSet
EndChar
StartChar: j
Encoding: 106 106 75
Width: 276
Flags: W
HStem: -207 22<-47 -28> 400 16<73 104> 548 105<224 229>
VStem: -125 69<-173 -146> -125 83<-148 -139> 179 96<592 610>
Fore
246 439 m 1xf4
 142 28 l 2
 103 -130 42 -207 -45 -207 c 0
 -91 -207 -125 -182 -125 -146 c 0xf4
 -125 -122 -107 -104 -83 -104 c 0
 -62 -104 -42 -120 -42 -141 c 0xec
 -42 -149 -45 -154 -51 -163 c 0
 -56 -167 -56 -168 -56 -173 c 0
 -56 -180 -50 -185 -38 -185 c 0
 1 -185 25 -141 59 -3 c 2
 130 289 l 1
 142 333 146 359 146 369 c 0
 146 379 144 388 141 393 c 0
 135 395 116 401 107 401 c 2
 100 400 l 1
 73 400 l 1
 73 416 l 1
 104 417 154 425 243 441 c 1
 246 439 l 1xf4
226 653 m 0
 253 653 275 628 275 599 c 0
 275 571 253 548 227 548 c 0
 198 548 179 568 179 601 c 0
 179 631 199 653 226 653 c 0
EndSplineSet
EndChar
StartChar: k
Encoding: 107 107 76
Width: 443
Flags: W
HStem: -12 53<318 354> 412 16<278 304 445.667 461>
Fore
415 108 m 1
 429 98 l 1
 384 15 357 -12 318 -12 c 0
 289 -12 271 7 239 70 c 0
 221 107 195 168 179 212 c 1
 138 180 l 1
 89 0 l 1
 15 0 l 1
 141 483 l 1
 144 492 l 2
 145 499 148 511 152 524 c 0
 166 571 171 598 174 615 c 1
 173 634 154 642 105 640 c 1
 105 656 l 1
 166 664 204 669 262 683 c 1
 267 678 l 1
 146 221 l 1
 164 233 176 243 190 253 c 0
 283 325 333 374 333 394 c 0
 333 404 319 412 294 412 c 2
 278 412 l 1
 278 428 l 1
 461 428 l 1
 461 412 l 1
 415 409 382 390 236 258 c 1
 253 220 268 183 272 170 c 0
 312 75 333 41 354 41 c 0
 369 41 381 53 398 83 c 2
 415 108 l 1
EndSplineSet
EndChar
StartChar: l
Encoding: 108 108 77
Width: 276
Flags: W
HStem: -12 44<89 132> 640 16<119 126.25>
VStem: 40 77<43 52>
Fore
229 123 m 1
 242 114 l 1
 176 18 141 -12 89 -12 c 0
 57 -12 40 9 40 45 c 0
 40 50 42 60 45 70 c 2
 182 599 l 1
 185 608 186 614 186 617 c 0
 186 633 166 640 119 640 c 1
 119 656 l 1
 177 664 215 669 274 683 c 1
 278 678 l 1
 127 100 l 1
 127 97 126 92 125 89 c 0
 120 69 117 57 117 50 c 0
 117 40 122 32 132 32 c 0
 149 32 168 47 201 89 c 0
 209 101 220 111 229 123 c 1
EndSplineSet
EndChar
StartChar: m
Encoding: 109 109 78
Width: 720
Flags: W
HStem: -9 47<555 603> 390 51<334 374>
VStem: 354 77<365 381> 516 74<37 54> 593 76<350 368>
Fore
688 117 m 1
 705 105 l 1
 699 98 l 2
 646 23 602 -9 555 -9 c 0
 529 -9 516 7 516 37 c 0
 516 47 519 66 527 103 c 1
 586 333 l 1
 590 352 593 363 593 368 c 0
 593 379 584 390 573 390 c 0
 543 390 494 346 445 277 c 0
 394 207 374 157 334 0 c 1
 259 0 l 1
 322 234 354 354 354 365 c 0
 354 379 347 390 334 390 c 0
 300 390 240 333 185 248 c 0
 149 196 135 160 86 0 c 1
 12 0 l 1
 25 51 28 62 51 144 c 0
 86 270 110 360 110 372 c 0
 110 387 97 394 70 394 c 2
 45 394 l 1
 45 410 l 1
 129 425 149 429 207 441 c 1
 209 439 l 1
 151 230 l 1
 243 375 313 441 374 441 c 0
 409 441 431 416 431 381 c 0
 431 362 416 305 391 229 c 1
 460 338 501 387 549 419 c 0
 574 434 595 441 612 441 c 0
 647 441 672 415 672 378 c 0
 672 372 669 354 669 350 c 2
 601 100 l 1
 595 75 590 59 590 54 c 0
 590 44 596 38 603 38 c 0
 620 38 640 56 668 91 c 0
 671 95 680 105 688 117 c 1
EndSplineSet
EndChar
StartChar: n
Encoding: 110 110 79
Width: 499
Flags: W
HStem: 0 21G<15 89> 390 51<337 376>
VStem: 287 75<45 56> 360 82<360 379>
Fore
460 117 m 1xe0
 475 104 l 1
 404 12 379 -9 334 -9 c 0
 300 -9 287 7 287 45 c 0xe0
 287 56 290 69 303 120 c 1
 347 286 l 2
 354 316 360 349 360 360 c 0
 360 379 352 390 337 390 c 0
 300 390 249 340 189 248 c 0
 145 180 136 158 89 0 c 1
 15 0 l 1
 110 350 l 1
 111 354 111 360 111 368 c 0
 111 387 100 393 48 394 c 1
 48 410 l 1
 135 426 157 431 209 441 c 1
 212 439 l 1
 146 221 l 1
 249 381 312 441 376 441 c 0
 415 441 442 416 442 379 c 0xd0
 442 366 438 344 434 324 c 1
 376 117 l 1
 362 62 362 62 362 54 c 0
 362 45 371 38 378 38 c 0
 393 38 410 54 439 91 c 2
 460 117 l 1xe0
EndSplineSet
EndChar
StartChar: o
Encoding: 111 111 80
Width: 499
Flags: W
HStem: -12 22<174 191> 420 21<306 325>
VStem: 26 85<101 129> 384 85<300 327>
Fore
325 441 m 0
 410 441 469 384 469 300 c 0
 469 226 428 141 362 76 c 0
 305 19 240 -12 174 -12 c 4
 83 -12 26 42 26 129 c 0
 26 286 174 441 325 441 c 0
313 420 m 0
 270 420 229 390 189 334 c 0
 141 264 111 174 111 101 c 0
 111 45 142 10 189 10 c 0
 231 10 270 35 308 88 c 0
 352 152 384 253 384 327 c 0
 384 382 356 420 313 420 c 0
EndSplineSet
EndChar
StartChar: p
Encoding: 112 112 81
Width: 499
Flags: W
HStem: -205 16<-75 -53.5> -12 19<154.149 182>
VStem: 379 90<306 330>
Fore
56 404 m 1
 54 419 l 1
 208 441 l 1
 209 442 l 1
 209 442 211 442 211 441 c 1
 212 439 l 1
 214 438 215 437 215 437 c 1
 212 428 l 1
 183 328 l 1
 242 409 289 441 354 441 c 0
 425 441 469 394 469 316 c 0
 469 157 315 -12 168 -12 c 0
 146 -12 127 -7 103 6 c 1
 83 -67 66 -146 66 -160 c 0
 66 -182 83 -190 130 -190 c 1
 130 -205 l 1
 -75 -205 l 1
 -75 -189 l 1
 -32 -187 -19 -176 -7 -130 c 0
 -1 -101 23 -6 50 94 c 0
 85 226 122 368 122 376 c 0
 122 393 95 412 82 404 c 0
 81 404 79 404 79 404 c 1
 56 404 l 1
316 398 m 0
 267 401 209 352 182 284 c 0
 152 209 117 79 117 45 c 0
 117 23 138 7 166 7 c 0
 217 7 265 40 308 98 c 0
 350 160 379 246 379 312 c 0
 379 371 360 395 316 398 c 0
EndSplineSet
EndChar
StartChar: q
Encoding: 113 113 82
Width: 499
Flags: W
HStem: -209 16<149 160> -12 54<127 167> 419 22<312 333>
VStem: 25 86<103 121>
Fore
391 -190 m 1
 391 -209 l 1
 149 -209 l 1
 149 -193 l 1
 215 -187 231 -180 245 -141 c 1
 333 152 l 1
 245 26 198 -12 127 -12 c 4
 64 -12 25 34 25 105 c 0
 25 256 186 441 318 441 c 0
 359 441 379 425 395 379 c 1
 410 426 l 1
 483 426 l 1
 319 -151 l 2
 318 -155 316 -160 316 -163 c 0
 316 -182 337 -190 374 -190 c 2
 391 -190 l 1
321 419 m 0
 291 419 259 401 229 371 c 0
 163 305 111 193 111 119 c 0
 111 72 133 42 167 42 c 0
 190 42 218 54 245 76 c 0
 312 133 379 275 379 357 c 0
 379 393 354 419 321 419 c 0
EndSplineSet
EndChar
StartChar: r
Encoding: 114 114 83
Width: 388
Flags: W
HStem: 0 21G<45 122> 376 65<313 365>
Fore
122 0 m 1
 45 0 l 1
 126 291 l 1
 142 360 142 360 142 374 c 0
 142 393 129 401 107 401 c 0
 100 401 97 401 73 397 c 1
 73 415 l 1
 146 426 155 428 229 441 c 1
 231 439 l 1
 179 223 l 1
 192 258 l 2
 208 297 248 357 289 398 c 0
 315 426 341 441 365 441 c 0
 393 441 412 420 412 390 c 0
 412 357 395 340 366 340 c 0
 346 340 338 346 330 362 c 0
 325 372 319 376 313 376 c 0
 297 376 270 346 236 289 c 0
 190 212 173 170 122 0 c 1
EndSplineSet
EndChar
StartChar: s
Encoding: 115 115 84
Width: 388
Flags: W
HStem: -12 22<152 162> 7 139<37 56> 303 120<322 346> 417 24<227 241>
VStem: 108 74<331 365> 229 76<86 119>
Fore
37 146 m 1x4c
 53 146 l 1x4c
 67 51 100 10 154 10 c 0
 198 10 229 42 229 86 c 0
 229 116 211 151 171 202 c 0
 130 256 108 299 108 331 c 0
 108 398 157 441 230 441 c 0x9c
 246 441 261 439 286 431 c 0
 305 426 315 423 322 423 c 0
 335 423 344 428 352 442 c 1
 366 442 l 1
 346 303 l 1
 330 303 l 1x2c
 319 381 290 417 237 417 c 0
 204 417 182 397 182 365 c 0
 182 337 198 306 236 259 c 0
 283 201 305 157 305 119 c 0
 305 42 245 -12 160 -12 c 0x9c
 144 -12 127 -7 105 -1 c 0
 85 4 67 7 56 7 c 0
 45 7 40 3 32 -13 c 1
 16 -13 l 1
 37 146 l 1x4c
EndSplineSet
EndChar
StartChar: t
Encoding: 116 116 85
Width: 276
Flags: W
HStem: -12 50<85 133> 395 33<215 291>
VStem: 37 82<26 59>
Fore
296 428 m 1
 291 395 l 1
 207 395 l 1
 119 63 l 2
 119 60 119 59 119 59 c 0
 119 45 125 38 133 38 c 0
 149 38 166 54 214 117 c 1
 227 110 l 1
 164 18 130 -12 85 -12 c 0
 59 -12 37 4 37 26 c 0
 37 35 45 70 54 100 c 0
 57 108 59 111 60 122 c 1
 132 395 l 1
 59 395 l 1
 57 398 57 401 57 401 c 0
 57 413 64 419 89 428 c 0
 122 437 183 486 223 538 c 0
 229 545 231 546 237 546 c 0
 242 546 245 543 245 536 c 0
 245 532 l 1
 215 428 l 1
 296 428 l 1
EndSplineSet
EndChar
StartChar: u
Encoding: 117 117 86
Width: 499
Flags: W
HStem: -9 47<337 378> 400 15<59 70.4>
VStem: 42 77<44 67> 289 79<40 56>
Fore
461 117 m 1
 475 108 l 1
 407 12 384 -9 337 -9 c 0
 308 -9 289 9 289 40 c 0
 289 60 305 129 334 236 c 1
 220 42 166 -12 95 -12 c 0
 60 -12 42 7 42 44 c 0
 42 62 48 97 67 167 c 1
 104 309 l 2
 113 343 119 368 119 376 c 0
 119 382 113 393 107 394 c 0
 98 398 97 400 59 400 c 1
 59 415 l 1
 116 420 151 428 208 441 c 1
 211 439 l 1
 120 76 l 2
 119 73 119 70 119 67 c 0
 119 53 127 42 141 42 c 0
 171 42 221 92 281 187 c 0
 327 261 334 277 391 432 c 1
 464 432 l 1
 387 133 l 2
 368 62 368 62 368 56 c 0
 368 44 371 38 378 38 c 0
 394 38 409 53 461 117 c 1
EndSplineSet
EndChar
StartChar: v
Encoding: 118 118 87
Width: 443
Flags: W
VStem: 333 93<382 407>
Fore
21 403 m 1
 21 416 l 1
 59 422 114 432 132 437 c 0
 141 439 146 441 152 441 c 0
 161 441 161 439 182 337 c 0
 193 264 201 211 207 70 c 1
 237 103 l 2
 309 176 375 287 375 333 c 0
 375 343 371 352 357 363 c 0
 338 379 333 391 333 407 c 0
 333 428 349 441 371 441 c 0
 400 441 426 415 426 382 c 0
 426 346 400 280 365 230 c 0
 264 88 170 -18 145 -18 c 0
 138 -18 136 -12 136 18 c 0
 136 75 125 226 114 294 c 0
 100 387 89 404 51 404 c 0
 40 404 32 404 21 403 c 1
EndSplineSet
EndChar
StartChar: w
Encoding: 119 119 88
Width: 666
Flags: W
HStem: 404 16<31 42>
VStem: 557 90<390 407>
Fore
16 404 m 1
 16 417 l 1
 28 419 38 420 42 420 c 0
 75 426 100 431 110 434 c 0
 123 438 133 441 141 441 c 0
 152 441 154 434 166 371 c 0
 176 300 187 196 190 126 c 1
 382 431 l 2
 387 438 390 439 395 439 c 0
 401 439 403 437 403 426 c 1
 435 75 l 1
 565 237 601 291 601 334 c 0
 601 346 595 356 579 371 c 0
 562 387 557 394 557 407 c 0
 557 428 573 441 596 441 c 0
 625 441 647 419 647 390 c 0
 647 325 573 199 437 37 c 0
 432 31 428 26 428 25 c 0
 400 -7 390 -18 382 -18 c 0
 375 -18 374 -15 371 12 c 1
 341 331 l 1
 253 174 l 2
 223 122 204 86 198 76 c 0
 163 7 145 -18 133 -18 c 0
 125 -18 123 -10 122 29 c 1
 117 117 l 1
 114 196 103 302 89 359 c 0
 83 397 73 407 45 404 c 0
 40 404 37 404 37 404 c 2
 16 404 l 1
EndSplineSet
EndChar
StartChar: x
Encoding: 120 120 89
Width: 443
Flags: W
HStem: -12 78<7 23> 368 73<404 416>
Fore
401 111 m 1
 416 103 l 1
 357 13 333 -12 294 -12 c 0
 262 -12 249 4 236 56 c 2
 207 176 l 1
 164 119 144 91 116 59 c 0
 66 -1 54 -12 23 -12 c 0
 -7 -12 -26 4 -26 31 c 0
 -26 51 -12 66 7 66 c 0
 15 66 26 63 40 56 c 0
 48 50 59 47 64 47 c 0
 76 47 97 64 116 95 c 1
 198 212 l 1
 168 335 l 2
 155 395 149 404 125 404 c 0
 116 404 105 401 67 393 c 1
 64 409 l 1
 75 412 l 2
 136 432 170 441 192 441 c 0
 220 441 230 420 245 353 c 2
 255 297 l 1
 324 404 362 441 406 441 c 0
 431 441 447 425 447 404 c 0
 447 382 434 368 412 368 c 0
 404 368 397 371 385 376 c 0
 375 382 368 385 360 385 c 0
 343 385 308 341 264 264 c 1
 264 249 274 204 299 103 c 0
 300 100 300 92 303 85 c 0
 311 57 319 44 334 44 c 0
 346 44 357 54 379 83 c 0
 390 97 394 103 401 111 c 1
EndSplineSet
EndChar
StartChar: y
Encoding: 121 121 90
Width: 443
Flags: W
HStem: -207 84<15 26> 404 35<45 145>
VStem: 333 93<387 404>
Fore
15 400 m 1
 15 417 l 1
 29 419 42 422 47 423 c 0
 100 434 136 439 145 439 c 0
 149 439 152 439 154 441 c 2
 158 441 l 2
 173 441 229 275 245 187 c 2
 264 72 l 1
 349 212 387 291 387 331 c 0
 387 346 379 354 360 365 c 0
 340 378 333 390 333 404 c 0
 333 426 349 441 371 441 c 0
 401 441 426 416 426 387 c 0
 426 337 398 265 330 142 c 0
 223 -56 91 -207 26 -207 c 0
 -1 -207 -23 -187 -23 -163 c 0
 -23 -141 -7 -123 15 -123 c 0
 26 -123 37 -127 53 -141 c 0
 63 -148 70 -151 76 -151 c 0
 89 -151 101 -144 122 -122 c 0
 133 -108 152 -83 185 -42 c 0
 199 -23 205 -7 205 7 c 0
 205 25 182 142 164 207 c 0
 119 379 103 404 45 404 c 0
 35 404 28 403 15 400 c 1
EndSplineSet
EndChar
StartChar: z
Encoding: 122 122 91
Width: 388
Flags: W
HStem: -81 21<268 283> 368 60<97 308>
VStem: 294 69<-10 4>
Fore
81 309 m 1
 64 313 l 1
 97 428 l 1
 379 428 l 1
 379 417 l 1
 89 73 l 1
 148 60 167 47 211 -10 c 0
 245 -53 256 -60 281 -60 c 0
 297 -60 308 -54 308 -45 c 0
 308 -42 306 -37 303 -29 c 0
 297 -19 294 -9 294 0 c 0
 294 18 308 31 328 31 c 0
 349 31 363 16 363 -4 c 0
 363 -45 319 -81 270 -81 c 0
 242 -81 207 -67 157 -37 c 0
 110 -7 78 4 53 4 c 0
 37 4 23 0 7 -13 c 1
 -1 -4 l 1
 308 368 l 1
 163 368 l 2
 116 368 103 359 81 309 c 1
EndSplineSet
EndChar
StartChar: braceleft
Encoding: 123 123 92
Width: 399
Flags: W
VStem: 51 75<-100 -96> 117 75<190 200>
Fore
407 687 m 1x40
 404 677 l 1
 341 661 316 631 294 552 c 2
 250 384 l 2
 229 300 202 272 138 255 c 1
 176 237 192 220 192 192 c 0x40
 192 174 174 97 148 1 c 0
 132 -59 126 -85 126 -100 c 0
 126 -138 141 -155 179 -166 c 1
 176 -177 l 1
 83 -174 51 -154 51 -100 c 0x80
 51 -76 62 -29 83 45 c 0
 105 122 117 174 117 198 c 0
 117 227 104 242 64 255 c 1
 129 272 151 296 170 369 c 1
 218 546 l 1
 249 653 294 687 407 687 c 1x40
EndSplineSet
EndChar
StartChar: bar
Encoding: 124 124 93
Width: 273
Flags: W
HStem: 646 20G<105 171>
VStem: 105 66<-18 666>
Fore
105 -18 m 1
 105 666 l 1
 171 666 l 1
 171 -18 l 1
 105 -18 l 1
EndSplineSet
EndChar
StartChar: braceright
Encoding: 125 125 94
Width: 399
Flags: W
VStem: 208 75<310 320> 274 75<609 624>
Fore
221 677 m 1x40
 224 687 l 1
 315 684 349 664 349 609 c 0x40
 349 587 338 539 316 464 c 0
 294 388 283 335 283 312 c 0
 283 283 296 270 335 255 c 1
 271 237 249 214 230 141 c 1
 182 -37 l 1
 151 -144 105 -177 -7 -177 c 1
 -4 -166 l 1
 59 -149 83 -122 105 -42 c 2
 149 126 l 2
 171 209 196 237 264 255 c 1
 224 272 208 291 208 318 c 0x80
 208 335 226 412 252 508 c 0
 267 565 274 596 274 609 c 0
 274 646 259 665 221 677 c 1x40
EndSplineSet
EndChar
StartChar: asciitilde
Encoding: 126 126 95
Width: 540
Flags: W
Fore
448 303 m 1
 502 271 l 1
 456 207 425 186 379 186 c 0
 334 186 316 192 227 240 c 0
 209 249 189 253 168 253 c 0
 138 253 120 242 94 204 c 1
 40 234 l 1
 86 299 117 319 163 319 c 0
 208 319 226 313 315 267 c 0
 333 256 353 252 374 252 c 0
 404 252 422 264 448 303 c 1
EndSplineSet
EndChar
StartChar: uni0E10.descless
Encoding: 128 63232 96
Width: 484
Flags: W
HStem: -8 43<276 295> 319 38<199 215> 526 68<295 340>
Fore
589 571 m 0
 528 461 431 490 415 496 c 0
 362 515 325 526 295 526 c 0
 257 526 233 508 208 472 c 1
 452 401 l 1
 465 393 497 392 480 332 c 2
 417 106 l 2
 399 41 351 -8 276 -8 c 0
 214 -8 182 45 199 106 c 2
 224 190 l 1
 207 187 197 191 183 195 c 0
 153 204 119 241 127 287 c 0
 133 321 166 357 213 357 c 0
 290 358 329 319 316 270 c 2
 263 78 l 2
 257 58 264 35 288 35 c 0
 313 35 331 58 336 77 c 2
 404 321 l 2
 413 353 410 364 390 370 c 2
 149 439 l 1
 171 478 237 598 340 594 c 0
 386 594 454 560 513 560 c 0
 538 560 560 566 579 582 c 0
 590 591 598 587 589 571 c 0
208 229 m 0
 237 229 251 252 251 274 c 0
 251 296 236 319 208 319 c 0
 180 319 166 296 166 274 c 0
 166 252 180 229 208 229 c 0
EndSplineSet
EndChar
StartChar: uni0E34.left
Encoding: 129 63233 97
Width: 0
Flags: W
Fore
-62 654 m 1
 -82 667 -183 722 -250 731 c 0
 -339 746 -425 733 -444 728 c 1
 -389 834 -288 900 -193 892 c 0
 -86 885 -30 796 -62 654 c 1
-94 719 m 1
 -100 803 -141 834 -209 843 c 0
 -267 851 -328 820 -361 779 c 1
 -361 779 -290 785 -229 773 c 0
 -143 756 -94 719 -94 719 c 1
EndSplineSet
EndChar
StartChar: uni0E35.left
Encoding: 130 63234 98
Width: 0
Flags: W
Fore
-62 654 m 1
 -82 667 -183 720 -250 731 c 0
 -342 746 -425 733 -444 728 c 1
 -399 820 -296 900 -201 892 c 0
 -168 891 -126 883 -95 852 c 1
 -67 951 l 1
 -3 951 l 1
 -56 762 l 1
 -56 762 -48 720 -62 654 c 1
-94 719 m 1
 -100 803 -141 834 -209 843 c 0
 -267 851 -328 820 -361 779 c 1
 -361 779 -290 785 -229 773 c 0
 -143 756 -94 719 -94 719 c 1
EndSplineSet
EndChar
StartChar: uni0E36.left
Encoding: 131 63235 99
Width: 0
Flags: W
HStem: 780 42<-63 -53> 905 43<-66 -58>
Fore
-63 822 m 0
 -38 822 -25 842 -26 863 c 0
 -25 884 -38 905 -64 905 c 0
 -89 905 -101 885 -101 864 c 0
 -101 843 -88 822 -63 822 c 0
-94 719 m 17
 -100 803 -141 834 -209 843 c 0
 -267 851 -328 820 -361 779 c 1
 -361 779 -290 785 -229 773 c 0
 -143 756 -94 719 -94 719 c 17
-62 654 m 1
 -82 667 -183 720 -250 731 c 0
 -342 746 -425 733 -444 728 c 1
 -398 822 -292 900 -198 892 c 0
 -158 889 -140 879 -140 879 c 1
 -134 908 -114 948 -60 948 c 0
 -15 948 18 904 18 865 c 0
 18 825 -13 779 -59 780 c 1
 -59 780 -44 735 -62 654 c 1
EndSplineSet
EndChar
StartChar: uni0E37.left
Encoding: 132 63236 100
Width: 0
Flags: W
Fore
-62 654 m 1
 -82 667 -183 720 -250 731 c 0
 -342 746 -425 733 -444 728 c 1
 -381 851 -266 902 -196 889 c 1
 -177 951 l 1
 -124 951 l 1
 -144 877 l 1
 -114 869 -93 845 -93 845 c 1
 -63 951 l 1
 -7 951 l 1
 -56 763 l 1
 -56 763 -45 723 -62 654 c 1
-94 719 m 1
 -100 803 -141 834 -209 843 c 0
 -267 851 -328 820 -361 779 c 1
 -361 779 -290 785 -229 773 c 0
 -143 756 -94 719 -94 719 c 1
EndSplineSet
EndChar
StartChar: ellipsis
Encoding: 133 8230 101
Width: 951
Flags: W
HStem: -14 21G<139.5 169.5 456.5 486.5 774 804>
Fore
860 45 m 0
 860 45 l 0
 851 12 819 -14 789 -14 c 0
 759 -14 744 14 752 45 c 0
 761 74 793 101 821 101 c 0
 850 101 869 75 860 45 c 0
544 45 m 0
 544 45 l 0
 535 12 501 -14 472 -14 c 0
 441 -14 426 14 434 45 c 0
 443 74 474 101 504 101 c 0
 533 101 553 75 544 45 c 0
226 45 m 0
 217 12 185 -14 154 -14 c 0
 125 -14 110 14 118 45 c 0
 127 74 159 101 186 101 c 0
 216 101 235 75 226 45 c 0
EndSplineSet
EndChar
StartChar: uni0E48.low_left
Encoding: 134 63237 102
Width: 0
Flags: W
Fore
-8 926 m 1
 -75 685 l 1
 -147 685 l 5
 -80 926 l 1
 -8 926 l 1
EndSplineSet
EndChar
StartChar: uni0E49.low_left
Encoding: 135 63238 103
Width: 0
Flags: W
HStem: 902 36<-283 -273>
VStem: -361 38<854.031 856.969>
Fore
-213 906 m 0
 -189 875 -195 843 -203 824 c 0
 -237 754 -293 716 -293 716 c 1
 -293 714 l 1
 -230 723 -92 766 -38 931 c 1
 40 931 l 17
 -85 637 -360 667 -388 670 c 1
 -379 703 l 1
 -370 707 -307 736 -281 778 c 1
 -281 778 -287 777 -302 780 c 0
 -341 786 -361 820 -361 854 c 0
 -361 895 -332 938 -275 938 c 0
 -249 938 -223 919 -213 906 c 0
-279 811 m 0
 -251 811 -237 833 -237 856 c 0
 -236 879 -251 902 -280 902 c 0
 -309 902 -324 880 -323 857 c 0
 -324 834 -309 811 -279 811 c 0
EndSplineSet
EndChar
StartChar: uni0E4A.low_left
Encoding: 136 63239 104
Width: 0
Flags: W
HStem: 666 30<-330 -317> 770 30<-330 -317> 849 54<-288 -273>
VStem: -286 30<726 734>
Fore
16 906 m 17
 -14 768 -105 684 -230 670 c 1
 -224 694 l 1
 -194 710 -173 744 -164 776 c 0
 -154 810 -159 842 -183 849 c 1
 -247 811 l 1
 -288 849 l 1
 -323 849 -352 810 -360 788 c 1
 -360 788 -352 800 -319 800 c 0
 -280 800 -257 770 -256 734 c 0
 -257 690 -285 666 -321 666 c 0
 -406 666 -420 720 -400 793 c 0
 -386 843 -323 903 -273 903 c 1
 -273 903 -234 857 -232 857 c 2
 -169 902 l 1
 -107 884 -100 839 -112 797 c 0
 -119 771 -134 745 -147 728 c 1
 -83 766 -48 834 -45 906 c 1
 16 906 l 17
-286 733 m 0
 -286 758 -304 770 -322 770 c 0
 -340 770 -358 758 -358 733 c 0
 -358 708 -340 696 -322 696 c 0
 -304 696 -286 708 -286 733 c 0
EndSplineSet
EndChar
StartChar: uni0E4B.low_left
Encoding: 137 63240 105
Width: 0
Flags: W
HStem: 676 21G<-200 -146> 776 58<-267 -173 -98 -7>
Fore
-7 777 m 1
 -116 776 l 1
 -146 676 l 1
 -200 676 l 1
 -173 776 l 1
 -283 777 l 1
 -267 834 l 1
 -158 836 l 1
 -132 935 l 1
 -69 935 l 1
 -98 836 l 1
 9 834 l 1
 -7 777 l 1
EndSplineSet
EndChar
StartChar: uni0E4C.low_left
Encoding: 138 63241 106
Width: 0
Flags: W
HStem: 670 33<-211 -202>
VStem: -283 35<735.941 751> -164 33<746 755.671>
Fore
49 954 m 17
 9 846 -120 825 -130 822 c 0
 -145 817 -173 815 -173 815 c 1
 -142 805 -131 778 -131 746 c 0
 -131 694 -168 670 -209 670 c 0
 -254 670 -283 709 -283 746 c 0
 -283 788 -249 831 -143 860 c 0
 -91 876 -30 906 -16 968 c 1
 49 954 l 17
-206 703 m 0
 -178 703 -165 724 -164 746 c 0
 -164 767 -178 788 -206 788 c 0
 -234 788 -248 767 -248 746 c 0
 -248 724 -234 703 -206 703 c 0
EndSplineSet
EndChar
StartChar: uni0E48.low
Encoding: 139 63242 107
Width: 0
Flags: W
HStem: 670 21G<15 87>
AnchorPoint: "AboveBase" 77.8311 645.12 mark 0
Fore
154 914 m 1
 87 670 l 1
 15 670 l 5
 82 914 l 1
 154 914 l 1
EndSplineSet
EndChar
StartChar: uni0E49.low
Encoding: 140 63243 108
Width: 0
Flags: W
HStem: 919 37<-64 -46>
VStem: -140 37<866 876>
AnchorPoint: "AboveBase" 77.833 645.12 mark 0
Fore
29 908 m 0
 42 878 40 842 27 822 c 0
 -19 744 -66 716 -66 716 c 1
 -64 716 l 1
 -64 716 134 722 206 952 c 1
 283 952 l 17
 166 636 -130 667 -161 670 c 1
 -151 705 l 1
 -143 708 -86 730 -53 775 c 1
 -55 774 l 1
 -55 774 -68 774 -82 780 c 0
 -120 794 -140 830 -140 866 c 0
 -139 911 -109 956 -48 956 c 0
 -13 956 15 935 29 908 c 0
-53 813 m 0
 -19 813 -1 840 -1 866 c 0
 -2 892 -18 919 -53 919 c 0
 -86 919 -103 892 -103 866 c 0
 -102 840 -86 813 -53 813 c 0
EndSplineSet
EndChar
StartChar: uni0E4A.low
Encoding: 141 63244 109
Width: 0
Flags: W
HStem: 666 32<-135 -126> 782 32<-135 -127> 876 56<-93 -75>
VStem: -93 33<729 747>
AnchorPoint: "AboveBase" 77.833 645.12 mark 0
Fore
-129 814 m 0
 -93 814 -60 782 -60 740 c 0
 -60 706 -87 666 -133 666 c 0
 -225 666 -237 733 -216 809 c 0
 -201 862 -132 931 -75 932 c 1
 -73 931 -31 883 -29 883 c 2
 42 932 l 1
 113 909 117 857 104 813 c 0
 93 773 69 739 69 739 c 1
 71 739 l 2
 127 770 189 852 192 926 c 1
 265 926 l 17
 231 799 130 691 -27 670 c 1
 -19 699 l 1
 15 718 40 756 50 792 c 0
 60 831 55 867 29 876 c 1
 -46 831 l 1
 -50 836 -93 876 -93 876 c 1
 -131 876 -170 824 -179 794 c 1
 -179 794 -162 814 -129 814 c 0
-93 739 m 0
 -93 768 -113 782 -132 782 c 0
 -152 782 -172 768 -172 739 c 0
 -172 712 -152 698 -132 698 c 0
 -112 698 -93 712 -93 739 c 0
EndSplineSet
EndChar
StartChar: uni0E4B.low
Encoding: 142 63245 110
Width: 0
Flags: W
HStem: 677 21G<22 79> 777 62<-43 48 127 216>
AnchorPoint: "AboveBase" 77.8311 645.12 mark 0
Fore
216 779 m 1
 108 777 l 1
 79 677 l 1
 22 677 l 1
 48 777 l 1
 -60 779 l 1
 -43 839 l 1
 64 840 l 1
 91 942 l 1
 157 942 l 1
 127 840 l 1
 233 839 l 1
 216 779 l 1
EndSplineSet
EndChar
StartChar: uni0E4C.low
Encoding: 143 63246 111
Width: 0
Flags: W
HStem: 668 39<4 13>
VStem: -73 39<747 756> 51 40<747 757>
AnchorPoint: "AboveBase" 77.833 645.12 mark 0
Fore
263 949 m 17
 215 854 103 835 66 826 c 8
 59 824 47 824 47 824 c 1
 77 811 91 784 91 751 c 0
 91 706 55 668 6 668 c 0
 -49 668 -73 715 -73 754 c 0
 -73 796 -38 837 72 871 c 0
 126 888 175 917 200 971 c 1
 263 949 l 17
11 707 m 0
 37 707 51 729 51 750 c 0
 51 772 37 794 11 794 c 0
 -19 794 -34 772 -34 750 c 0
 -34 729 -19 707 11 707 c 0
EndSplineSet
EndChar
StartChar: uni0E0D.descless
Encoding: 144 63247 112
Width: 762
Flags: W
HStem: -10 42<213 233> 121 44<214 235> 392 44<214 232 214 364> 547 51<399 422>
VStem: 268 41<69 88>
Fore
691 104 m 2
 677 54 600 -8 515 -8 c 0
 433 -8 390 48 408 112 c 2
 490 407 l 1
 516 506 466 547 399 547 c 0
 332 547 250 505 214 436 c 1
 376 436 l 1
 364 392 l 1
 354 392 317 392 317 392 c 2
 275 392 266 354 266 352 c 2
 214 165 l 1
 223 165 l 0
 280 165 309 122 309 78 c 0
 309 34 280 -10 221 -10 c 0
 128 -10 110 69 121 109 c 2
 181 324 l 2
 195 375 232 392 232 392 c 1
 152 392 l 1
 193 527 319 598 422 598 c 0
 517 598 592 539 565 413 c 1
 478 101 l 2
 467 61 486 29 527 29 c 0
 569 29 605 60 616 100 c 2
 753 594 l 1
 827 594 l 1
 691 104 l 2
223 32 m 0
 253 32 268 55 268 77 c 0
 268 99 254 121 224 121 c 0
 196 121 180 98 181 76 c 0
 181 54 195 32 223 32 c 0
EndSplineSet
EndChar
StartChar: quoteleft
Encoding: 145 8216 113
Width: 317
Flags: W
HStem: 456 21G<263 313.5>
Fore
377 524 m 0
 366 482 334 456 293 456 c 0
 233 456 225 515 239 565 c 0
 257 630 338 700 404 728 c 1
 410 700 l 1
 368 679 305 624 295 588 c 0
 293 582 291 578 296 578 c 0
 304 578 316 587 334 585 c 0
 366 584 388 561 377 524 c 0
EndSplineSet
EndChar
StartChar: quoteright
Encoding: 146 8217 114
Width: 317
Flags: W
Fore
268 659 m 0
 279 700 311 727 352 727 c 0
 412 727 420 668 406 617 c 0
 388 553 307 482 240 455 c 1
 235 482 l 1
 276 504 340 559 350 594 c 0
 352 601 354 605 348 605 c 0
 341 605 329 596 311 598 c 0
 279 599 257 622 268 659 c 0
EndSplineSet
EndChar
StartChar: quotedblleft
Encoding: 147 8220 115
Width: 451
Flags: W
HStem: 456 21G<205 255.5 440 490.5>
Fore
554 524 m 0
 543 482 511 456 470 456 c 0
 410 456 402 515 416 565 c 0
 434 630 514 700 582 728 c 1
 587 700 l 1
 546 679 482 624 472 588 c 0
 470 582 468 578 474 578 c 0
 480 578 493 587 511 585 c 0
 543 584 565 561 554 524 c 0
318 524 m 0
 307 482 276 456 235 456 c 0
 175 456 167 515 181 565 c 0
 199 630 279 700 346 728 c 1
 350 700 l 1
 309 679 246 624 236 588 c 0
 234 582 232 578 237 578 c 0
 245 578 256 587 275 585 c 0
 307 584 329 561 318 524 c 0
EndSplineSet
EndChar
StartChar: quotedblright
Encoding: 148 8221 116
Width: 451
Flags: W
Fore
224 659 m 0
 235 700 267 727 308 727 c 0
 368 727 376 668 362 617 c 0
 344 553 263 482 197 455 c 1
 191 482 l 1
 233 504 295 559 305 594 c 0
 307 601 310 605 304 605 c 0
 297 605 285 596 267 598 c 0
 235 599 213 622 224 659 c 0
460 659 m 0
 471 700 502 727 543 727 c 0
 604 727 611 668 597 617 c 0
 579 553 498 482 432 455 c 1
 427 482 l 1
 468 504 532 559 542 594 c 0
 544 601 546 605 540 605 c 0
 532 605 521 596 503 598 c 0
 470 599 449 622 460 659 c 0
EndSplineSet
EndChar
StartChar: bullet
Encoding: 149 8226 117
Width: 367
Flags: W
HStem: 430 20G<273.5 343.5>
Fore
396 319 m 0
 376 247 306 189 235 189 c 0
 167 189 128 247 148 319 c 0
 167 392 239 450 308 450 c 0
 379 450 417 392 396 319 c 0
EndSplineSet
EndChar
StartChar: endash
Encoding: 150 8211 118
Width: 732
Flags: W
HStem: 214 47<103 759>
Fore
759 214 m 1
 91 214 l 1
 104 261 l 1
 772 261 l 1
 759 214 l 1
EndSplineSet
EndChar
StartChar: emdash
Encoding: 151 8212 119
Width: 1464
Flags: W
HStem: 214 47<92 1503>
Fore
1503 214 m 1
 80 214 l 1
 93 261 l 1
 1516 261 l 1
 1503 214 l 1
EndSplineSet
EndChar
StartChar: uni0E31.left
Encoding: 152 63248 120
Width: 0
Flags: W
HStem: 677 51<-70 -47> 871 41<-164.404 -148>
VStem: -112 42<826 828>
Fore
315 908 m 17
 234 750 65 677 -65 677 c 0
 -166 677 -251 717 -245 815 c 0
 -242 867 -218 912 -154 912 c 0
 -114 912 -70 882 -70 826 c 0
 -70 758 -126 742 -126 742 c 1
 -101 733 -75 728 -49 728 c 0
 79 728 201 831 231 908 c 1
 315 908 l 17
-154 780 m 0
 -126 780 -112 803 -112 826 c 0
 -112 848 -126 871 -154 871 c 0
 -184 871 -199 848 -199 826 c 0
 -199 803 -184 780 -154 780 c 0
EndSplineSet
EndChar
StartChar: uni0E4D.left
Encoding: 153 63249 121
Width: 0
Flags: W
HStem: 676 41<-131 -113> 820 43<-121 -113>
VStem: -210 38<766 772> -71 39<756.871 773>
Fore
-121 676 m 0
 -181 676 -210 723 -210 770 c 0
 -211 816 -181 863 -121 863 c 0
 -62 863 -32 816 -32 769 c 0
 -32 722 -62 676 -121 676 c 0
-120 717 m 0
 -87 717 -71 742 -71 768 c 0
 -71 794 -88 820 -121 820 c 0
 -155 820 -172 795 -172 769 c 0
 -172 743 -154 717 -120 717 c 0
EndSplineSet
EndChar
StartChar: uni0E47.left
Encoding: 154 63250 122
Width: 0
Flags: W
HStem: 668 44<-132.108 -62.9345> 757 57<-304.519 -229.81> 795 39<-133.842 -62.9601>
VStem: -170 32<737.158 790.547> -58 37<717.688 789.886> -4 75<959.197 1028>
Back
52 995 m 17x4c
 24 895 -39 837 -181 868 c 0
 -240 880 -282 882 -310 822 c 0
 -324 794 -323 763 -318 753 c 1x4c
 -318 753 -297 800 -247 800 c 0x2c
 -197 800 -190 746 -168 734 c 1
 -168 734 -168 740 -168 748 c 0
 -168 797 -135 820 -101 820 c 0x1c
 -66 820 -29 795 -29 745 c 0
 -29 695 -70 667 -100 667 c 0
 -224 667 -206 745 -255 745 c 0xac
 -304 745 -314 684 -306 668 c 1
 -340 668 l 1
 -371 702 -384 773 -345 846 c 0
 -323 891 -263 952 -151 923 c 0
 -77 905 -34 911 -16 995 c 1
 52 995 l 17x4c
-63 745 m 0xac
 -63 771 -81 784 -99 784 c 0x1c
 -117 784 -135 771 -135 745 c 0
 -135 720 -117 708 -99 708 c 0
 -81 708 -63 720 -63 745 c 0xac
EndSplineSet
Refer: 197 3655 N 1 0 0 1 -142 0 2
EndChar
StartChar: uni0E48.left
Encoding: 155 63251 123
Width: 0
Flags: W
Fore
75 1226 m 1
 14 1006 l 1
 -58 1006 l 1
 3 1226 l 1
 75 1226 l 1
EndSplineSet
EndChar
StartChar: uni0E49.left
Encoding: 156 63252 124
Width: 0
Flags: W
HStem: 1085 34<-45 -36> 1203 36<-45 -27>
Fore
-42 1085 m 1
 -49 1085 -46 1085 -60 1088 c 0
 -94 1098 -111 1128 -112 1159 c 0
 -111 1199 -84 1239 -33 1239 c 0
 7 1239 45 1203 39 1154 c 0
 16 1072 -49 1035 -49 1035 c 1
 -50 1032 l 1
 55 1038 151 1098 196 1229 c 1
 268 1229 l 1
 199 1044 54 943 -140 997 c 1
 -131 1026 l 1
 -104 1034 -67 1053 -42 1085 c 1
-36 1119 m 0
 -9 1119 4 1140 5 1161 c 0
 5 1182 -9 1203 -36 1203 c 0
 -64 1203 -79 1182 -79 1161 c 0
 -79 1140 -65 1119 -36 1119 c 0
EndSplineSet
EndChar
StartChar: uni0E4A.left
Encoding: 157 63253 125
Width: 0
Flags: W
HStem: 991 29<-81 -72> 1175 54<-39 -23>
AnchorPoint: "AboveMark" -25.3486 970.68 mark 0
Fore
-152 1118 m 0
 -138 1169 -74 1229 -23 1229 c 1
 -23 1229 14 1183 16 1183 c 2
 81 1229 l 1
 142 1211 148 1166 137 1124 c 0
 129 1097 114 1071 101 1054 c 1
 167 1092 200 1157 204 1229 c 1
 265 1229 l 17
 234 1091 139 1012 19 995 c 1
 26 1020 l 1
 55 1036 76 1069 85 1101 c 0
 95 1135 90 1168 67 1175 c 1
 1 1137 l 1
 -39 1175 l 1
 -74 1175 -105 1136 -114 1112 c 1
 -114 1112 -93 1135 -54 1124 c 0
 -29 1117 -7 1089 -8 1059 c 0
 -10 1018 -35 991 -76 991 c 0
 -155 991 -172 1046 -152 1118 c 0
-38 1058 m 0
 -38 1083 -56 1096 -74 1096 c 0
 -92 1096 -110 1083 -110 1058 c 0
 -110 1033 -92 1020 -74 1020 c 0
 -56 1020 -38 1033 -38 1058 c 0
EndSplineSet
EndChar
StartChar: uni0E4B.left
Encoding: 158 63254 126
Width: 0
Flags: W
HStem: 1080 58<-115 -28 46 128>
Fore
128 1081 m 1
 29 1080 l 1
 2 992 l 1
 -52 992 l 1
 -28 1080 l 1
 -131 1081 l 1
 -115 1138 l 1
 -14 1140 l 1
 10 1229 l 1
 73 1229 l 1
 46 1140 l 1
 144 1138 l 1
 128 1081 l 1
EndSplineSet
EndChar
StartChar: uni0E4C.left
Encoding: 159 63255 127
Width: 0
Flags: W
HStem: 923 29<-34 -16>
VStem: 14 33<992 997>
Fore
45 1103 m 0
 70 1107 158 1140 176 1193 c 1
 228 1164 l 17
 166 1061 7 1061 13 1057 c 0
 36 1042 47 1019 47 995 c 0
 47 959 20 923 -28 923 c 0
 -72 923 -102 961 -97 1004 c 0
 -88 1062 -26 1091 45 1103 c 0
-25 952 m 0
 1 952 15 972 14 993 c 0
 14 1014 1 1035 -26 1035 c 0
 -53 1035 -66 1015 -66 994 c 0
 -66 973 -52 952 -25 952 c 0
EndSplineSet
EndChar
StartChar: uni0E01
Encoding: 161 3585 129
Width: 574
Flags: W
HStem: 0 21G<91 167 402 476> 392 44<214 232 214 364> 550 49<412 435>
Fore
476 0 m 1
 402 0 l 1
 515 407 l 2
 542 506 486 550 412 550 c 0
 341 550 254 509 214 436 c 1
 376 436 l 1
 364 392 l 1
 354 392 317 392 317 392 c 2
 276 392 262 343 262 341 c 2
 167 0 l 1
 91 0 l 1
 181 324 l 2
 194 373 232 392 232 392 c 1
 152 392 l 1
 189 527 324 599 435 599 c 0
 536 599 618 539 591 413 c 1
 476 0 l 1
EndSplineSet
EndChar
StartChar: uni0E02
Encoding: 162 3586 130
Width: 557
Flags: W
HStem: -8 43<340 352> 469 32<229 236> 548 49<297 325>
VStem: 274 31<425 436>
Fore
325 597 m 0
 415 598 447 531 425 449 c 2
 322 78 l 2
 316 57 328 35 352 35 c 0
 376 35 401 58 406 77 c 2
 550 594 l 1
 625 594 l 1
 489 106 l 2
 470 37 413 -22 340 -8 c 1
 272 -8 235 41 253 106 c 2
 350 453 l 2
 364 505 344 549 297 548 c 0
 243 548 220 506 213 496 c 1
 225 504 226 501 236 501 c 0
 281 499 305 462 305 425 c 0
 305 389 283 352 235 350 c 0
 158 346 130 431 167 497 c 0
 194 544 243 597 325 597 c 0
233 383 m 0
 260 383 274 404 274 425 c 0
 274 447 260 469 233 469 c 0
 204 469 190 448 190 427 c 0
 190 405 205 383 233 383 c 0
EndSplineSet
EndChar
StartChar: uni0E03
Encoding: 163 3587 131
Width: 604
Flags: W
HStem: -8 43<386 398> 311 31<216 221> 429 34<219 221> 574 20G<596 670>
Fore
274 593 m 1
 318 515 l 1
 410 591 l 1
 472 587 494 536 473 461 c 1
 367 78 l 1
 361 57 370 35 398 35 c 0
 425 35 447 58 452 77 c 2
 596 594 l 1
 670 594 l 1
 534 106 l 2
 516 39 459 -17 386 -8 c 1
 317 -8 282 45 299 106 c 1
 398 461 l 1
 407 495 410 524 390 524 c 1
 300 452 l 1
 255 524 l 1
 226 524 202 484 193 459 c 1
 193 459 186 463 219 463 c 0
 269 463 293 426 294 388 c 0
 293 350 268 311 218 311 c 0
 138 311 115 411 164 498 c 0
 192 548 232 581 274 593 c 1
219 342 m 0
 248 342 263 364 263 386 c 0
 263 407 248 429 219 429 c 0
 192 429 179 408 179 386 c 0
 179 364 193 342 219 342 c 0
EndSplineSet
EndChar
StartChar: uni0E04
Encoding: 164 3588 132
Width: 561
Flags: W
HStem: 0 21G<96 172 393 465> 273 36<335 353> 407 37<335 353> 553 46<383 404>
VStem: 392 31<358 369>
Fore
343 309 m 0
 343 309 l 0
 376 309 392 334 392 358 c 0
 392 382 376 407 343 407 c 0
 312 407 296 382 296 358 c 0
 296 334 312 309 343 309 c 0
207 321 m 1
 233 376 260 444 339 444 c 0
 395 444 423 401 423 358 c 0
 423 316 395 273 338 273 c 0
 302 273 264 301 264 301 c 1
 251 280 240 246 236 229 c 2
 172 0 l 1
 96 0 l 1
 158 224 l 2
 170 266 119 310 148 413 c 0
 177 519 289 599 402 599 c 0
 521 599 619 554 576 401 c 2
 465 0 l 1
 393 0 l 1
 504 401 l 2
 537 521 473 553 388 553 c 0
 295 553 210 479 192 413 c 0
 179 369 184 335 207 321 c 1
EndSplineSet
EndChar
StartChar: uni0E05
Encoding: 165 3589 133
Width: 560
Flags: W
HStem: 0 21G<96 172 391 464> 273 36<335 353> 407 37<335 353>
VStem: 392 31<358 369>
Fore
464 0 m 1
 391 0 l 1
 502 399 l 2
 518 458 534 504 480 538 c 1
 376 468 l 1
 307 538 l 1
 271 528 212 479 194 413 c 0
 181 366 188 335 209 321 c 1
 240 390 260 444 339 444 c 0
 395 444 423 401 423 358 c 0
 423 316 395 273 338 273 c 0
 305 273 268 295 268 295 c 1
 255 287 246 267 239 240 c 2
 172 0 l 1
 96 0 l 1
 160 229 l 2
 171 272 121 316 148 413 c 0
 180 530 282 581 327 594 c 1
 391 524 l 1
 493 594 l 1
 526 588 617 551 575 399 c 2
 464 0 l 1
343 309 m 0
 376 309 392 334 392 358 c 0
 392 382 376 407 343 407 c 0
 312 407 296 382 296 358 c 0
 296 334 312 309 343 309 c 0
EndSplineSet
EndChar
StartChar: uni0E06
Encoding: 166 3590 134
Width: 721
Flags: W
HStem: -8 206<269 329> 280 32<211 216> 399 34<214 216> 574 20G<712 786>
VStem: 258 31<346.186 361>
Fore
293 68 m 0
 314 144 l 1
 278 147 253 119 245 91 c 0
 240 75 242 60 249 51 c 0
 257 45 288 40 293 68 c 0
402 461 m 2
 411 495 415 524 394 524 c 1
 305 452 l 1
 258 524 l 1
 229 524 196 482 184 413 c 1
 184 413 181 433 214 433 c 0
 264 433 289 395 289 357 c 0
 289 319 263 280 213 280 c 0
 130 280 122 390 155 470 c 0
 186 545 235 581 277 593 c 1
 323 515 l 1
 415 591 l 1
 477 587 499 536 478 461 c 2
 403 190 l 1
 403 190 523 170 568 77 c 1
 712 594 l 1
 786 594 l 1
 621 0 l 1
 544 0 l 1
 506 134 391 141 391 141 c 1
 369 57 351 -8 269 -8 c 0
 205 -8 188 42 202 92 c 0
 216 145 264 199 329 198 c 1
 402 461 l 2
214 312 m 0
 243 312 258 334 258 356 c 0
 258 377 243 399 214 399 c 0
 187 399 174 378 174 356 c 0
 174 334 188 312 214 312 c 0
EndSplineSet
EndChar
StartChar: uni0E07
Encoding: 167 3591 135
Width: 416
Flags: W
HStem: 0 21G<241 320> 418 37<335 347> 556 38<339 353>
VStem: 256 36<495 513>
Fore
320 0 m 1
 241 0 l 1
 128 338 l 1
 145 395 l 1
 271 98 l 1
 361 425 l 1
 354 420 357 418 345 418 c 0
 286 418 256 460 256 504 c 0
 256 548 288 594 353 594 c 0
 469 594 459 501 455 488 c 2
 320 0 l 1
341 455 m 0
 374 455 391 480 391 506 c 0
 391 531 374 556 341 556 c 0
 308 556 292 531 292 506 c 0
 292 480 308 455 341 455 c 0
EndSplineSet
EndChar
StartChar: uni0E08
Encoding: 168 3592 136
Width: 538
Flags: W
HStem: -5 43<321 335> 276 40<271 277> 406 41<268 282> 544 54<380 400>
Fore
471 109 m 2
 453 43 398 -5 321 -5 c 0
 258 -5 218 48 235 109 c 2
 282 281 l 1
 275 275 279 276 271 276 c 0
 218 276 188 321 190 367 c 0
 194 413 225 447 275 447 c 0
 358 449 382 373 369 326 c 2
 301 81 l 2
 296 60 307 38 333 38 c 0
 361 38 381 61 386 80 c 2
 480 419 l 2
 501 495 460 544 383 544 c 0
 279 544 201 464 184 439 c 1
 157 453 l 1
 193 508 291 598 398 598 c 0
 524 598 589 533 556 413 c 2
 471 109 l 2
271 316 m 0
 300 316 314 338 314 361 c 0
 314 384 300 406 271 406 c 0
 242 406 228 384 228 361 c 0
 228 338 242 316 271 316 c 0
EndSplineSet
EndChar
StartChar: uni0E09
Encoding: 169 3593 137
Width: 586
Flags: W
HStem: -8 40<458 470> 544 54<408 440>
VStem: 143 38<311 318> 511 43<77 79>
Fore
401 123 m 1
 302 97 249 13 240 0 c 1
 169 0 l 1
 236 240 l 1
 179 223 144 270 143 318 c 0
 144 359 168 400 223 404 c 0
 310 411 341 361 322 292 c 2
 266 91 l 1
 273 89 l 1
 273 89 332 166 460 172 c 1
 527 415 l 2
 548 490 500 544 408 544 c 0
 307 544 217 464 198 439 c 1
 172 453 l 1
 246 553 352 598 440 598 c 0
 550 598 633 530 601 416 c 2
 601 416 534 169 532 167 c 2
 530 155 514 150 514 150 c 1
 514 147 l 1
 542 132 554 104 554 77 c 0
 555 35 524 -8 468 -8 c 0
 436 -8 399 17 388 55 c 0
 380 85 395 117 401 123 c 1
401 123 m 0
224 272 m 0
 252 272 267 295 267 319 c 0
 268 341 253 364 225 364 c 0
 196 364 182 341 181 317 c 0
 181 295 195 272 224 272 c 0
466 32 m 0
 496 32 511 55 511 77 c 0
 511 99 497 121 467 121 c 0
 439 121 423 98 424 76 c 0
 424 54 438 32 466 32 c 0
EndSplineSet
EndChar
StartChar: uni0E0A
Encoding: 170 3594 138
Width: 556
Flags: W
HStem: 0 49<174 378> 468 32<229 236> 547 49<297 324>
VStem: 274 31<424 435>
Fore
434 117 m 2
 494 333 l 2
 508 383 497 409 449 422 c 1
 457 450 l 1
 512 463 535 481 549 531 c 2
 567 594 l 1
 643 594 l 1
 639 582 627 539 627 539 c 2
 615 494 595 443 529 436 c 1
 591 429 580 366 567 321 c 2
 507 105 l 2
 496 65 455 0 378 0 c 2
 161 0 l 1
 175 49 l 1
 236 49 l 1
 348 453 l 2
 361 502 356 547 297 547 c 0
 243 547 220 505 212 495 c 1
 224 503 226 500 236 500 c 0
 281 498 305 461 305 424 c 0
 305 388 282 351 235 349 c 0
 158 345 129 430 167 496 c 0
 194 543 242 596 324 596 c 0
 459 596 429 465 425 451 c 2
 425 451 416 416 314 49 c 1
 328 48 352 49 352 49 c 2
 384 49 420 65 434 117 c 2
233 382 m 0
 260 382 274 403 274 424 c 0
 274 446 260 468 233 468 c 0
 204 468 190 447 190 426 c 0
 190 404 205 382 233 382 c 0
EndSplineSet
EndChar
StartChar: uni0E0B
Encoding: 171 3595 139
Width: 618
Flags: W
HStem: 0 49<226 427> 311 31<212 229> 429 34<222 229> 574 20G<616 692>
Fore
727 591 m 1,32,33
427 0 m 2,9,-1
 213 0 l 1,37,-1
 227 49 l 1,38,-1
 287 49 l 1,39,-1
 401 461 l 2,8,9
 410 495 415 524 394 524 c 1,10,-1
 305 452 l 1,11,-1
 258 524 l 1,12,13
 229 524 205 484 196 459 c 1,14,15
 196 459 189 463 222 463 c 0,16,17
 272 463 296 426 297 388 c 0,18,19
 296 350 271 311 221 311 c 0,20,21
 141 311 118 411 167 498 c 0,22,23
 195 548 235 581 277 593 c 1,24,-1
 323 515 l 1,25,-1
 415 591 l 1,26,27
 477 587 498 536 477 461 c 2,28,-1
 363 49 l 1,4,-1
 401 49 l 2,2,3
 433 49 469 65 483 117 c 2,4,-1
 543 333 l 2,0,0
 557 383 546 409 498 422 c 1,0,0
 506 450 l 1,0,0
 561 463 584 481 598 531 c 2,0,0
 616 594 l 1,5,-1
 692 594 l 1,6,-1
 688 582 676 539 676 539 c 2,0,0
 664 494 644 443 578 436 c 1,0,0
 640 429 629 366 616 321 c 2,0,0
 556 105 l 2,7,8
 545 65 504 0 427 0 c 2,9,-1
222 342 m 0,40,41
 251 342 266 364 266 386 c 0,42,43
 266 407 251 429 222 429 c 0,44,45
 195 429 182 408 182 386 c 0,46,47
 182 364 196 342 222 342 c 0,40,41
EndSplineSet
EndChar
StartChar: uni0E0C
Encoding: 172 3596 140
Width: 777
Flags: W
HStem: -8 39<203 215> 392 44<214 232 214 364> 550 49<412 435>
VStem: 254 39<64.9693 76.9375 77.0313 87.0927>
Fore
842 594 m 1
 677 0 l 1
 602 0 l 1
 613 111 509 120 509 120 c 1
 490 52 468 -8 397 -8 c 0
 342 -8 327 34 339 78 c 0
 351 122 393 168 448 166 c 1
 515 407 l 1
 542 507 486 550 413 550 c 0
 342 550 254 508 214 436 c 1
 376 436 l 1
 364 392 l 1
 354 392 317 392 317 392 c 2
 275 392 265 348 264 346 c 2
 212 159 l 1
 268 154 294 116 293 77 c 0
 294 35 263 -8 205 -8 c 0
 128 -8 110 69 121 109 c 2
 181 324 l 2
 195 375 232 392 232 392 c 1
 152 392 l 1
 190 527 324 599 435 599 c 0
 537 599 619 539 591 413 c 1
 521 163 l 1
 521 163 609 149 630 94 c 1
 769 594 l 1
 842 594 l 1
419 61 m 2
 437 126 l 17
 407 129 381 104 373 78 c 0
 369 64 370 51 377 41 c 0
 384 31 412 28 419 61 c 2
209 31 m 0
 240 31 255 54 254 77 c 0
 254 99 240 121 210 121 c 0
 182 121 167 98 167 75 c 0
 167 53 181 31 209 31 c 0
EndSplineSet
EndChar
StartChar: uni0E0D
Encoding: 173 3597 141
Width: 762
Flags: W
HStem: -230 32<437 467> -10 42<213 233> 121 44<214 235> 392 44<214 232 214 364> 547 51<399 422>
VStem: 268 41<73 88>
Fore
691 104 m 2
 677 54 600 -8 515 -8 c 0
 433 -8 390 48 408 112 c 2
 490 407 l 1
 516 506 466 547 399 547 c 0
 332 547 250 505 214 436 c 1
 376 436 l 1
 364 392 l 1
 354 392 317 392 317 392 c 2
 275 392 266 354 266 352 c 2
 214 165 l 1
 223 165 l 0
 280 165 309 122 309 78 c 0
 309 34 280 -10 221 -10 c 0
 128 -10 110 69 121 109 c 2
 181 324 l 2
 195 375 232 392 232 392 c 1
 152 392 l 1
 193 527 319 598 422 598 c 0
 517 598 592 539 565 413 c 1
 478 101 l 2
 467 61 486 29 527 29 c 0
 569 29 605 60 616 100 c 2
 753 594 l 1
 827 594 l 1
 691 104 l 2
632 -108 m 2
 619 -155 559 -230 444 -230 c 0
 332 -230 341 -143 351 -111 c 0
 356 -93 379 -17 449 -38 c 0
 487 -49 498 -87 496 -107 c 0
 493 -143 463 -175 413 -169 c 0
 399 -167 387 -157 377 -149 c 1
 385 -179 409 -198 453 -198 c 0
 505 -198 553 -152 566 -106 c 2
 581 -52 l 1
 648 -52 l 1
 632 -108 l 2
223 32 m 0
 253 32 268 55 268 77 c 0
 268 99 254 121 224 121 c 0
 196 121 180 98 181 76 c 0
 181 54 195 32 223 32 c 0
465 -103 m 0
 465 -78 447 -66 429 -66 c 0
 411 -66 393 -78 393 -103 c 0
 394 -128 411 -141 429 -141 c 0
 447 -141 466 -128 465 -103 c 0
EndSplineSet
Substitution2: "Thai Descender Removal Single Substitution" uni0E0D.descless
EndChar
StartChar: uni0E0E
Encoding: 174 3598 142
Width: 583
Flags: W
HStem: -212 43<113 130> -83 43<157 177> 121 36<110 128> 392 44<222 241 222 374> 550 49<419 443>
VStem: 31 43<73 76 76.0312 87.3126>
AnchorPoint: "BelowBase" 418.186 -245.76 basechar 0
Fore
419 -241 m 1
 345 -241 l 0
 347 -217 317 -141 259 -111 c 1
 259 -111 200 -212 116 -212 c 0
 61 -212 26 -183 42 -126 c 0
 55 -78 111 -40 175 -40 c 0
 198 -40 221 -44 245 -55 c 1
 245 -55 275 -3 314 12 c 1
 344 -5 l 1
 297 -34 281 -69 281 -69 c 1
 350 -97 368 -160 368 -160 c 1
 525 407 l 2
 552 506 495 550 421 550 c 0
 349 550 262 509 222 436 c 1
 386 436 l 1
 374 392 l 1
 328 392 l 2
 284 392 270 343 270 341 c 2
 191 59 l 2
 176 4 146 -21 98 -9 c 0
 52 2 31 39 31 75 c 0
 31 117 60 157 112 157 c 0
 122 157 131 156 143 153 c 1
 193 332 l 2
 206 378 241 392 241 392 c 1
 161 392 l 1
 202 530 333 599 443 599 c 0
 549 599 634 535 599 407 c 2
 419 -241 l 1
116 32 m 0
 145 32 160 55 160 77 c 0
 160 99 146 121 117 121 c 0
 89 121 73 98 74 76 c 0
 74 54 88 32 116 32 c 0
225 -95 m 1
 202 -86 177 -83 157 -83 c 0
 127 -83 94 -94 85 -126 c 0
 75 -163 107 -169 128 -169 c 0
 174 -169 209 -121 225 -95 c 1
EndSplineSet
EndChar
StartChar: uni0E0F
Encoding: 175 3599 143
Width: 583
Flags: W
HStem: -163 48<287 301> -111 43<43 58> 121 36<107 125> 392 44<222 374> 550 49<419 443>
VStem: 31 43<73 76 76.0312 87.3126>
AnchorPoint: "BelowBase" 418.186 -245.76 basechar 0
Fore
116 32 m 0
 145 32 160 55 160 77 c 0
 160 99 146 121 117 121 c 0
 89 121 73 98 74 76 c 0
 74 54 88 32 116 32 c 0
95 -129 m 1
 81 -117 62 -111 46 -111 c 0
 -1 -111 -16 -135 -22 -154 c 0
 -27 -174 -23 -201 18 -198 c 0
 50 -195 70 -164 95 -129 c 1
123 -89 m 1
 144 -63 169 -40 206 -26 c 1
 225 -54 l 1
 195 -66 170 -89 151 -115 c 1
 170 -137 184 -164 185 -187 c 1
 218 -139 263 -115 301 -115 c 0
 330 -115 355 -128 369 -155 c 1
 525 407 l 2
 552 506 494 550 420 550 c 0
 349 550 262 509 222 436 c 1
 386 436 l 1
 374 392 l 1
 328 392 l 2
 284 392 270 343 270 341 c 2
 191 59 l 2
 176 4 146 -21 98 -9 c 0
 52 2 31 39 31 75 c 0
 31 117 60 157 112 157 c 0
 122 157 131 156 143 153 c 1
 193 332 l 2
 207 381 243 392 243 392 c 1
 161 392 l 1
 202 530 333 599 443 599 c 0
 549 599 634 535 599 407 c 2
 419 -241 l 1
 349 -241 l 1
 346 -189 320 -163 288 -163 c 0
 256 -163 218 -189 190 -240 c 1
 147 -240 l 1
 152 -210 139 -180 120 -157 c 1
 90 -197 61 -233 7 -240 c 0
 -66 -247 -73 -186 -64 -155 c 0
 -47 -95 8 -68 58 -68 c 0
 82 -68 104 -75 123 -89 c 1
EndSplineSet
EndChar
StartChar: uni0E10
Encoding: 176 3600 144
Width: 484
Flags: W
HStem: -276 53<143 262> -276 119<255 264> -233 35<11 23> -190 33<249 258> -127 33<38 58> -8 43<276 295> 319 38<199 218> 526 68<295 340>
VStem: 187 31<-130 -119>
Fore
589 571 m 0x0f80
 528 461 431 490 415 496 c 0
 362 515 325 526 295 526 c 0
 257 526 233 508 208 472 c 1
 452 401 l 1
 465 393 497 392 480 332 c 2
 417 106 l 2
 399 41 351 -8 276 -8 c 0
 214 -8 182 45 199 106 c 2
 223 190 l 1
 206 187 197 191 183 195 c 0
 153 204 119 241 127 287 c 0
 133 321 166 357 213 357 c 0
 290 358 329 319 316 270 c 2
 263 78 l 2
 257 58 264 35 288 35 c 0
 313 35 331 58 336 77 c 2
 404 321 l 2
 413 353 410 364 390 370 c 2
 149 439 l 1
 171 478 237 598 340 594 c 0
 386 594 454 560 513 560 c 0
 538 560 560 566 579 582 c 0
 590 591 598 587 589 571 c 0x0f80
328 -218 m 18
 321 -243 301 -276 262 -276 c 2x9f80
 89 -276 l 1x4f80
 103 -226 l 2
 111 -198 113 -175 101 -149 c 1
 99 -161 80 -233 11 -233 c 0x2f80
 -19 -233 -35 -214 -35 -178 c 0
 -35 -173 -34 -169 -33 -164 c 0
 -23 -129 12 -94 58 -94 c 0
 66 -94 74 -95 82 -97 c 1
 82 -97 87 -72 101 -57 c 1
 134 -61 l 1
 112 -81 114 -111 114 -111 c 1
 170 -135 143 -223 143 -223 c 1
 222 -223 l 2
 233 -223 251 -215 255 -201 c 2
 258 -190 l 1x9f80
 255 -190 245 -190 227 -181 c 0
 200 -167 187 -143 187 -119 c 0
 187 -79 219 -39 276 -46 c 0
 333 -54 363 -91 352 -131 c 2
 328 -218 l 18
208 229 m 0
 237 229 251 252 251 274 c 0
 251 296 236 319 208 319 c 0
 180 319 166 296 166 274 c 0
 166 252 180 229 208 229 c 0
255 -157 m 0x4f80
 277 -157 290 -138 289 -119 c 0
 289 -101 278 -83 256 -83 c 0
 231 -83 219 -102 218 -121 c 0
 218 -139 230 -157 255 -157 c 0x4f80
72 -132 m 1
 72 -132 53 -127 38 -127 c 0
 -5 -132 -22 -198 21 -198 c 0x2f80
 43 -198 68 -170 72 -132 c 1
EndSplineSet
Substitution2: "Thai Descender Removal Single Substitution" uni0E10.descless
EndChar
StartChar: uni0E11
Encoding: 177 3601 145
Width: 743
Flags: W
HStem: 0 21G<274 349 568 643> 281 31<211 216> 399 34<214 216> 529 58<671 714>
VStem: 258 30<346 360>
Fore
402 461 m 2
 411 495 415 524 394 524 c 1
 305 452 l 1
 258 524 l 1
 229 524 193 479 187 429 c 1
 187 429 181 433 214 433 c 0
 264 433 288 396 288 358 c 0
 288 320 263 281 213 281 c 0
 133 281 117 378 155 470 c 0
 187 545 235 581 277 593 c 1
 323 515 l 1
 415 591 l 1
 477 587 499 536 478 461 c 2
 446 347 l 1
 567 498 l 2
 615 557 671 587 714 587 c 0
 763 587 795 546 772 464 c 2
 643 0 l 1
 568 0 l 1
 698 468 l 2
 709 510 695 529 671 529 c 0
 649 529 619 512 596 482 c 2
 462 312 l 2
 435 275 411 223 409 216 c 2
 349 0 l 1
 274 0 l 1
 402 461 l 2
214 312 m 0
 243 312 258 334 258 356 c 0
 258 377 243 399 214 399 c 0
 187 399 174 378 174 356 c 0
 174 334 188 312 214 312 c 0
EndSplineSet
EndChar
StartChar: uni0E12
Encoding: 178 3602 146
Width: 763
Flags: W
HStem: 0 21G<96 172 586 662> 574 20G<752 827>
VStem: 249 37<338 346> 381 45<345 348>
Fore
331 293 m 0
 363 293 380 319 381 345 c 0
 381 370 365 395 332 395 c 0
 302 395 285 369 286 343 c 0
 286 318 300 293 331 293 c 0
404 63 m 0
 429 151 l 1
 403 152 377 118 368 88 c 0
 364 72 364 57 372 49 c 0
 378 43 400 37 404 63 c 0
827 594 m 1
 662 0 l 1
 586 0 l 1
 595 58 542 131 504 151 c 1
 497 127 484 81 484 81 c 2
 471 32 446 -8 381 -8 c 0
 322 -8 307 39 320 88 c 0
 335 139 381 193 442 197 c 1
 498 401 l 2
 521 482 520 515 482 538 c 1
 378 468 l 1
 308 538 l 1
 264 519 212 475 186 384 c 0
 180 359 181 301 190 272 c 0
 211 192 202 175 202 166 c 1
 227 200 302 239 316 261 c 1
 288 267 250 296 249 346 c 0
 248 389 293 444 356 431 c 0
 402 421 427 386 426 347 c 0
 426 322 416 295 394 273 c 0
 327 206 227 169 196 86 c 1
 172 0 l 1
 96 0 l 1
 122 94 l 2
 157 220 118 298 141 384 c 0
 182 531 277 578 329 594 c 1
 393 524 l 1
 495 594 l 1
 542 582 614 547 572 396 c 2
 516 194 l 1
 516 194 601 158 611 88 c 1
 752 594 l 1
 827 594 l 1
EndSplineSet
EndChar
StartChar: uni0E13
Encoding: 179 3603 147
Width: 762
Flags: W
HStem: -8 39<203 215 632 646> 392 44<214 234 214 364> 547 51<399 425>
VStem: 254 39<64.9693 76.9375 77.0313 87.0927> 687 43<77 87>
Fore
827 594 m 1
 709 169 l 2
 706 158 690 150 690 150 c 1
 690 147 l 1
 718 132 730 104 730 77 c 0
 731 35 700 -8 644 -8 c 0
 612 -8 575 17 564 55 c 0
 556 85 574 121 580 127 c 1
 507 103 460 17 451 0 c 1
 374 0 l 1
 488 410 l 2
 515 507 465 547 399 547 c 0
 331 547 247 504 214 436 c 1
 376 436 l 1
 364 392 l 1
 354 392 317 392 317 392 c 2
 275 392 260 337 260 335 c 2
 212 159 l 1
 268 154 294 116 293 77 c 0
 294 35 263 -8 205 -8 c 0
 128 -8 110 69 121 109 c 2
 181 326 l 2
 195 376 234 392 234 392 c 1
 152 392 l 1
 192 526 321 598 425 598 c 0
 519 598 592 540 565 416 c 1
 478 101 l 1
 478 101 540 177 634 169 c 1
 752 594 l 1
 827 594 l 1
642 32 m 0
 672 32 687 55 687 77 c 0
 687 99 673 121 643 121 c 0
 615 121 599 98 600 76 c 0
 600 54 614 32 642 32 c 0
209 31 m 0
 240 31 255 54 254 77 c 0
 254 99 240 121 210 121 c 0
 182 121 167 98 167 75 c 0
 167 53 181 31 209 31 c 0
EndSplineSet
EndChar
StartChar: uni0E14
Encoding: 180 3604 148
Width: 580
Flags: W
HStem: 0 21G<109 181 410 484> 551 47<403 430>
VStem: 272 35<351 361 361.031 371.694> 403 45<345.366 369>
Fore
484 0 m 1
 410 0 l 1
 520 396 l 2
 542 476 522 551 410 551 c 0
 353 551 236 516 199 384 c 0
 178 307 223 244 216 166 c 1
 241 203 328 257 336 273 c 1
 268 303 272 349 272 361 c 0
 272 387 296 461 378 445 c 0
 419 437 449 400 448 358 c 0
 448 333 438 306 414 283 c 0
 340 211 239 169 205 86 c 1
 181 0 l 1
 109 0 l 1
 135 94 l 2
 170 220 132 298 155 384 c 0
 197 533 336 598 423 598 c 0
 461 598 649 594 594 396 c 2
 484 0 l 1
357 309 m 0
 389 309 404 334 403 358 c 0
 403 384 387 409 356 409 c 0
 323 409 306 384 307 360 c 0
 307 334 324 309 357 309 c 0
EndSplineSet
EndChar
StartChar: uni0E15
Encoding: 181 3605 149
Width: 580
Flags: W
HStem: 0 21G<109 181 410 484>
VStem: 394 39<345 355.753>
Fore
484 0 m 1
 410 0 l 1
 525 416 l 2
 548 496 533 515 499 538 c 1
 395 468 l 1
 326 538 l 1
 290 528 225 475 199 384 c 0
 193 359 193 301 203 272 c 0
 225 192 218 166 223 174 c 0
 245 203 317 247 324 260 c 1
 262 281 258 325 257 347 c 0
 256 369 277 438 352 435 c 0
 388 434 433 396 433 345 c 0
 433 323 424 298 402 273 c 0
 339 201 236 157 202 74 c 1
 181 0 l 1
 109 0 l 1
 135 94 l 2
 170 220 132 298 155 384 c 0
 195 527 290 574 346 594 c 1
 410 524 l 1
 512 594 l 1
 559 584 634 542 594 396 c 2
 484 0 l 1
344 293 m 0
 376 293 393 319 394 345 c 0
 394 370 378 395 345 395 c 0
 313 395 296 369 296 343 c 0
 296 318 312 293 344 293 c 0
EndSplineSet
EndChar
StartChar: uni0E16
Encoding: 182 3606 150
Width: 574
Flags: W
HStem: -8 37<202 214> 392 44<212 230 212 363> 551 48<411 434>
VStem: 254 38<74 84.8136>
Fore
209 155 m 1
 265 150 292 112 292 74 c 0
 292 33 262 -8 204 -8 c 0
 127 -8 109 69 120 109 c 2
 180 326 l 2
 194 375 230 392 230 392 c 1
 150 392 l 1
 188 527 323 599 434 599 c 0
 535 599 617 540 590 416 c 1
 475 0 l 1
 402 0 l 1
 516 410 l 1
 541 508 485 551 412 551 c 0
 339 551 249 508 212 436 c 1
 375 436 l 1
 363 392 l 1
 352 392 316 392 316 392 c 2
 273 392 259 337 259 335 c 2
 209 155 l 1
208 29 m 0
 238 29 253 52 254 75 c 0
 254 97 239 119 209 119 c 0
 180 119 166 96 165 73 c 0
 166 51 180 29 208 29 c 0
EndSplineSet
EndChar
StartChar: uni0E17
Encoding: 183 3607 151
Width: 624
Flags: W
HStem: 0 21G<158 232 453 525> 459 21G<241.5 274> 560 38<253 266>
VStem: 173 36<507 521>
Fore
370 496 m 2
 328 347 l 1
 460 498 l 2
 509 559 563 589 603 589 c 0
 650 589 677 549 655 467 c 2
 525 0 l 1
 453 0 l 1
 584 472 l 2
 594 510 584 527 565 527 c 0
 544 527 514 508 489 476 c 2
 350 312 l 2
 321 275 300 240 293 216 c 2
 232 0 l 1
 158 0 l 1
 276 424 l 1
 261 420 248 421 236 425 c 0
 193 440 174 475 173 508 c 0
 173 553 207 598 264 598 c 0
 354 598 381 537 370 496 c 2
258 459 m 0
 290 459 306 484 306 510 c 0
 306 535 290 560 258 560 c 0
 225 560 209 535 209 510 c 0
 209 484 225 459 258 459 c 0
EndSplineSet
EndChar
StartChar: uni0E18
Encoding: 184 3608 152
Width: 484
Flags: W
HStem: 0 45<61 292> 526 68<296 340>
Fore
404 321 m 2
 413 353 410 364 390 370 c 2
 149 439 l 1
 171 478 237 598 340 594 c 0
 386 594 454 560 513 560 c 0
 537 560 560 566 579 582 c 0
 590 591 598 587 589 571 c 0
 528 461 431 490 415 496 c 0
 362 515 325 526 296 526 c 0
 257 526 233 508 208 472 c 1
 452 401 l 2
 467 397 497 392 480 332 c 2
 418 108 l 2
 398 35 353 0 292 0 c 2
 50 0 l 1
 62 45 l 1
 105 45 l 1
 194 364 l 1
 268 364 l 1
 179 45 l 1
 250 45 l 2
 302 45 333 66 347 114 c 2
 404 321 l 2
EndSplineSet
EndChar
StartChar: uni0E19
Encoding: 185 3609 153
Width: 632
Flags: W
HStem: 0 21G<158 227> 121 51<492 503> 459 21G<241.5 274> 560 38<251 266>
VStem: 173 36<507 520> 547 39<74 88>
Fore
370 496 m 2
 253 77 l 1
 253 77 328 175 494 172 c 1
 611 594 l 1
 687 594 l 1
 569 169 l 2
 565 155 545 146 545 146 c 1
 572 131 586 103 586 74 c 0
 585 34 559 -7 504 -9 c 0
 466 -11 430 16 421 54 c 0
 411 96 430 117 439 131 c 1
 320 124 239 15 227 0 c 1
 158 0 l 1
 276 424 l 1
 261 420 248 421 236 425 c 0
 193 439 174 475 173 508 c 0
 173 553 207 598 264 598 c 0
 354 598 381 537 370 496 c 2
258 459 m 0
 290 459 306 484 306 510 c 0
 306 535 290 560 258 560 c 0
 225 560 209 535 209 510 c 0
 209 484 225 459 258 459 c 0
502 32 m 0
 532 32 547 55 547 77 c 0
 547 99 533 121 503 121 c 0
 474 121 459 98 459 76 c 0
 459 54 473 32 502 32 c 0
EndSplineSet
EndChar
StartChar: uni0E1A
Encoding: 186 3610 154
Width: 618
Flags: W
HStem: 0 45<117 421> 459 21G<241.5 274> 560 38<249 266>
VStem: 173 36<507 516>
Fore
370 496 m 2
 244 45 l 1
 393 45 l 2
 425 45 463 66 478 118 c 2
 610 594 l 5
 684 594 l 1
 549 106 l 2
 541 66 498 0 421 0 c 2
 106 0 l 1
 118 45 l 1
 170 45 l 1
 276 424 l 1
 261 420 248 421 236 425 c 0
 193 439 174 475 173 508 c 0
 173 553 207 598 264 598 c 0
 354 598 381 537 370 496 c 2
258 459 m 0
 290 459 306 484 306 510 c 0
 306 535 290 560 258 560 c 0
 225 560 209 535 209 510 c 0
 209 484 225 459 258 459 c 0
EndSplineSet
EndChar
StartChar: uni0E1B
Encoding: 187 3611 155
Width: 634
Flags: W
HStem: 0 45<117 435> 459 21G<241.5 274> 560 38<249 266>
VStem: 173 36<506 516>
AnchorPoint: "AboveBase" 546.595 645.12 basechar 0
Fore
258 459 m 0
 290 459 306 484 306 510 c 0
 306 535 290 560 258 560 c 0
 225 560 209 535 209 510 c 0
 209 484 225 459 258 459 c 0
564 106 m 2
 556 66 513 0 435 0 c 2
 106 0 l 1
 118 45 l 1
 170 45 l 1
 276 425 l 1
 261 420 248 421 236 425 c 0
 193 440 173 474 173 508 c 0
 173 553 207 598 264 598 c 0
 354 598 382 537 370 496 c 2
 244 45 l 1
 408 45 l 2
 440 45 478 66 493 118 c 2
 730 974 l 1
 805 974 l 1
 564 106 l 2
EndSplineSet
EndChar
StartChar: uni0E1C
Encoding: 188 3612 156
Width: 618
Flags: W
HStem: 0 21G<88 164 445 520> 426 36<343 353> 559 39<332 350>
VStem: 396 32<508 515>
Fore
347 426 m 0
 328 426 309 432 288 447 c 1
 196 115 l 1
 415 401 l 1
 478 118 l 1
 610 594 l 1
 685 594 l 1
 520 0 l 1
 445 0 l 1
 451 22 l 2
 457 43 451 51 450 58 c 1
 392 316 l 1
 191 58 l 1
 186 51 176 45 170 22 c 2
 164 0 l 1
 88 0 l 1
 224 490 l 2
 235 529 268 598 332 598 c 0
 385 597 428 561 428 513 c 0
 428 469 395 426 347 426 c 0
349 462 m 0
 380 462 396 487 396 511 c 0
 396 535 381 559 350 559 c 0
 318 559 301 534 301 510 c 0
 302 486 317 462 349 462 c 0
EndSplineSet
EndChar
StartChar: uni0E1D
Encoding: 189 3613 157
Width: 634
Flags: W
HStem: 0 21G<88 164 460 535> 426 36<343 353> 559 39<332 350>
VStem: 396 32<508 515>
AnchorPoint: "AboveBase" 546.595 645.12 basechar 0
Fore
349 462 m 0
 380 462 396 487 396 511 c 0
 396 535 381 559 350 559 c 0
 318 559 301 534 301 510 c 0
 301 486 317 462 349 462 c 0
288 447 m 1
 196 117 l 1
 425 407 l 1
 493 118 l 1
 730 974 l 1
 805 974 l 1
 535 0 l 1
 460 0 l 1
 465 17 l 2
 471 38 464 46 463 54 c 1
 402 326 l 1
 190 54 l 1
 185 46 175 40 169 17 c 2
 164 0 l 1
 88 0 l 1
 224 490 l 2
 234 529 269 598 332 598 c 0
 385 597 428 561 428 513 c 0
 428 469 395 426 347 426 c 0
 329 426 309 432 288 447 c 1
EndSplineSet
EndChar
StartChar: uni0E1E
Encoding: 190 3614 158
Width: 689
Flags: W
HStem: 0 21G<159 237 511 590> 459 21G<241.5 274> 560 38<249 266>
VStem: 173 36<507 516> 511 38<0 588>
Fore
370 496 m 2
 265 115 l 1
 524 588 l 1
 551 588 l 1
 549 115 l 1
 682 594 l 1
 755 594 l 1
 590 0 l 1
 511 0 l 1
 511 490 l 1
 237 0 l 1
 159 0 l 1
 277 427 l 1
 263 423 248 421 236 425 c 0
 193 439 174 475 173 508 c 0
 173 553 207 598 264 598 c 0
 354 598 381 537 370 496 c 2
258 459 m 0
 290 459 306 484 306 510 c 0
 306 535 290 560 258 560 c 0
 225 560 209 535 209 510 c 0
 209 484 225 459 258 459 c 0
EndSplineSet
EndChar
StartChar: uni0E1F
Encoding: 191 3615 159
Width: 689
Flags: W
HStem: 0 21G<159 237 511 590> 459 21G<241.5 274> 560 38<249 266>
VStem: 173 36<507 516> 306 64<496 510> 511 37<0 591>
AnchorPoint: "AboveBase" 602.26 645.12 basechar 0
Fore
277 427 m 1
 263 423 248 421 236 425 c 0
 193 439 174 475 173 508 c 0
 173 553 207 598 264 598 c 0
 354 598 381 537 370 496 c 2
 370 495 264 111 264 111 c 1
 525 591 l 1
 552 591 l 1
 548 111 l 1
 787 974 l 1
 861 974 l 0
 590 0 l 1
 511 0 l 1
 511 490 l 1
 237 0 l 1
 159 0 l 1
 277 427 l 1
258 459 m 0
 290 459 306 484 306 510 c 0
 306 535 290 560 258 560 c 0
 225 560 209 535 209 510 c 0
 209 484 225 459 258 459 c 0
EndSplineSet
EndChar
StartChar: uni0E20
Encoding: 192 3616 160
Width: 590
Flags: W
HStem: -4 39<133 141> 124 35<133 141> 392 44<228 263 228 383> 549 50<427 451>
VStem: 56 38<75 86>
Fore
492 0 m 9
 418 0 l 1
 532 410 l 2
 559 507 501 549 427 549 c 0
 354 549 266 508 228 436 c 1
 395 436 l 1
 383 392 l 1
 347 392 l 2
 304 392 291 343 291 341 c 2
 219 83 l 2
 204 28 189 -4 138 -4 c 0
 83 -4 56 37 56 78 c 0
 56 119 83 159 135 159 c 0
 144 159 155 158 166 155 c 1
 215 332 l 2
 228 379 263 392 263 392 c 1
 166 392 l 1
 204 528 339 599 451 599 c 0
 553 599 635 540 607 416 c 1
 607 416 502 37 492 0 c 9
139 35 m 0
 168 35 183 57 182 80 c 0
 182 102 168 124 139 124 c 0
 109 124 94 102 94 80 c 0
 94 57 109 35 139 35 c 0
EndSplineSet
EndChar
StartChar: uni0E21
Encoding: 193 3617 161
Width: 616
Flags: W
HStem: -5 214<152 216> 459 21G<240.5 273> 560 38<248 265>
VStem: 172 36<507 516>
Fore
276 427 m 1
 262 423 247 421 235 425 c 0
 192 439 173 475 172 508 c 0
 172 553 206 598 263 598 c 0
 353 598 381 537 370 496 c 2
 288 203 l 1
 288 203 407 174 465 80 c 1
 608 594 l 1
 682 594 l 1
 517 0 l 1
 441 0 l 1
 404 127 274 147 274 147 c 1
 250 51 232 -5 152 -5 c 0
 84 -5 66 46 81 99 c 0
 97 154 148 210 216 209 c 1
 276 427 l 1
257 459 m 0
 289 459 305 484 305 510 c 0
 305 535 289 560 257 560 c 0
 224 560 208 535 208 510 c 0
 208 484 224 459 257 459 c 0
177 68 m 2
 202 157 l 1
 160 163 133 131 124 99 c 0
 119 78 121 58 132 49 c 0
 141 45 170 38 177 68 c 2
EndSplineSet
EndChar
StartChar: uni0E22
Encoding: 194 3618 162
Width: 553
Flags: W
HStem: -8 54<267 288> 309 41<311 340> 422 39<338 344> 574 20G<546 619>
VStem: 394 34<503 521>
Fore
497 154 m 2
 468 52 379 -8 269 -8 c 0
 160 -8 96 52 126 158 c 2
 126 158 145 227 146 229 c 0
 167 287 207 313 243 324 c 1
 211 327 190 358 189 379 c 0
 186 422 198 470 223 510 c 0
 260 567 302 602 344 598 c 0
 401 593 428 552 428 511 c 0
 428 467 398 424 340 422 c 0
 305 422 278 446 278 446 c 1
 254 394 274 350 323 350 c 2
 351 350 l 1
 340 309 l 1
 313 309 l 2
 272 309 233 276 220 232 c 2
 198 152 l 2
 180 86 217 46 286 46 c 0
 357 46 404 83 421 146 c 2
 421 146 549 605 546 594 c 1
 619 594 l 1
 497 154 l 2
344 461 m 0
 377 461 394 486 394 512 c 0
 394 537 377 562 344 562 c 0
 312 562 295 537 295 512 c 0
 295 486 312 461 344 461 c 0
EndSplineSet
EndChar
StartChar: uni0E23
Encoding: 195 3619 163
Width: 440
Flags: W
HStem: -4 39<232 250> 138 38<232 250> 530 64<298 340>
VStem: 154 37<75.1904 98.7636>
Fore
562 576 m 0
 505 468 416 501 413 502 c 0
 363 520 327 530 298 530 c 0
 259 530 234 512 207 472 c 1
 396 416 l 2
 410 413 439 399 430 367 c 2
 356 101 l 2
 351 82 320 -4 242 -4 c 0
 186 -4 153 45 154 85 c 0
 153 128 186 176 242 176 c 0
 263 176 289 167 298 156 c 1
 350 344 l 2
 358 364 361 381 337 387 c 2
 153 442 l 1
 171 476 241 594 340 594 c 0
 389 594 441 564 488 564 c 0
 510 564 531 570 550 588 c 0
 559 596 570 594 562 576 c 0
240 35 m 0
 272 35 287 61 287 86 c 0
 287 112 271 138 240 138 c 0
 207 138 190 112 191 86 c 0
 191 61 207 35 240 35 c 0
EndSplineSet
EndChar
StartChar: uni0E24
Encoding: 196 3620 164
Width: 569
Flags: W
HStem: -8 37<200 214> 392 44<212 229 212 361> 549 50<410 434>
VStem: 252 38<74 84.8136>
Fore
118 109 m 2
 178 324 l 2
 191 373 229 392 229 392 c 1
 150 392 l 1
 191 530 324 599 434 599 c 0
 538 599 622 537 587 410 c 2
 406 -240 l 1
 332 -240 l 25
 513 410 l 2
 539 506 483 549 410 549 c 0
 339 549 252 508 212 436 c 1
 373 436 l 1
 361 392 l 1
 350 392 316 392 314 392 c 0
 271 392 257 335 256 333 c 2
 207 155 l 1
 263 150 290 112 290 74 c 0
 290 33 260 -8 202 -8 c 0
 125 -8 107 69 118 109 c 2
206 29 m 0
 236 29 251 52 252 75 c 0
 252 97 237 119 207 119 c 0
 178 119 164 96 163 73 c 0
 164 51 178 29 206 29 c 0
EndSplineSet
EndChar
StartChar: uni0E25
Encoding: 197 3621 165
Width: 552
Flags: W
HStem: -9 37<192 204> 401 49<362 390> 539 59<390 420>
VStem: 244 38<73 83.8136>
Fore
199 154 m 1
 255 149 282 111 282 73 c 0
 282 32 252 -9 194 -9 c 0
 117 -9 99 68 110 108 c 2
 161 293 l 2
 183 372 272 450 370 450 c 0
 459 450 492 395 492 395 c 1
 535 521 442 539 390 539 c 0
 316 539 238 505 180 444 c 1
 161 467 l 1
 244 560 341 598 420 598 c 0
 526 598 601 530 574 433 c 2
 454 0 l 1
 381 0 l 1
 461 289 l 2
 479 353 441 401 376 401 c 0
 307 401 251 347 235 289 c 2
 199 154 l 1
198 28 m 0
 228 28 243 51 244 74 c 0
 244 96 229 118 199 118 c 0
 171 118 155 95 156 72 c 0
 156 50 170 28 198 28 c 0
EndSplineSet
EndChar
StartChar: uni0E26
Encoding: 198 3622 166
Width: 582
Flags: W
HStem: -4 39<111 119> 124 35<111 119> 392 44<224 243 224 374> 549 50<422 446>
VStem: 34 38<76 86>
Fore
144 155 m 1
 191 326 l 2
 205 375 243 392 243 392 c 1
 161 392 l 1
 201 529 335 599 446 599 c 0
 551 599 635 536 600 410 c 2
 419 -240 l 1
 345 -240 l 25
 526 410 l 2
 553 507 495 549 422 549 c 0
 349 549 261 507 224 436 c 1
 386 436 l 1
 374 392 l 1
 328 392 l 2
 284 392 267 337 267 335 c 2
 197 83 l 2
 182 28 167 -4 116 -4 c 0
 61 -4 34 37 34 78 c 0
 34 119 61 159 113 159 c 0
 122 159 133 158 144 155 c 1
117 35 m 0
 146 35 161 57 160 80 c 0
 160 102 146 124 117 124 c 0
 87 124 72 102 72 80 c 0
 72 57 87 35 117 35 c 0
EndSplineSet
EndChar
StartChar: uni0E27
Encoding: 199 3623 167
Width: 481
Flags: W
HStem: -6 37<287 295> 131 35<289 294> 545 53<340 373>
VStem: 206 37<73 82>
Fore
415 118 m 2
 393 41 360 -6 291 -6 c 0
 247 -6 206 31 206 77 c 0
 206 126 239 164 290 166 c 0
 311 166 338 156 348 145 c 1
 429 438 l 2
 447 502 403 545 340 545 c 0
 257 545 196 484 182 470 c 1
 150 479 l 1
 161 502 243 598 373 598 c 0
 464 598 529 531 503 438 c 2
 474 331 415 118 415 118 c 2
290 31 m 0
 322 31 338 56 337 80 c 0
 337 106 321 131 289 131 c 0
 257 131 242 106 243 82 c 0
 243 56 259 31 290 31 c 0
EndSplineSet
EndChar
StartChar: uni0E28
Encoding: 200 3624 168
Width: 561
Flags: W
HStem: 0 21G<96 172 393 465> 273 36<335 353> 407 37<335 346> 553 46<383 409>
Fore
343 309 m 0
 376 309 391 333 391 357 c 0
 391 382 375 407 342 407 c 0
 311 407 295 383 296 359 c 0
 296 334 312 309 343 309 c 0
511 473 m 1
 504 535 452 553 388 553 c 0
 295 553 210 479 192 413 c 0
 179 369 184 335 207 321 c 1
 233 376 260 444 339 444 c 0
 369 444 398 426 407 409 c 1
 436 421 480 447 511 473 c 1
587 482 m 1
 590 461 585 433 576 401 c 2
 465 0 l 1
 393 0 l 1
 504 401 l 2
 506 409 508 415 508 422 c 1
 481 404 450 389 424 377 c 1
 432 328 404 273 338 273 c 0
 296 273 278 296 268 308 c 1
 255 287 240 246 236 229 c 2
 172 0 l 1
 96 0 l 1
 158 224 l 2
 170 266 119 310 148 413 c 0
 177 519 289 599 402 599 c 0
 474 599 537 584 568 536 c 1
 589 565 607 601 618 641 c 1
 618 641 689 642 689 641 c 1
 672 582 633 528 587 482 c 1
EndSplineSet
EndChar
StartChar: uni0E29
Encoding: 201 3625 169
Width: 634
Flags: W
HStem: 0 45<117 451> 459 21G<236.5 269> 560 38<244 261>
VStem: 168 36<507 514>
Fore
274 427 m 1
 260 423 243 421 231 425 c 0
 188 439 169 475 168 508 c 0
 168 553 202 598 259 598 c 0
 349 598 381 537 370 496 c 2
 370 496 339 387 339 386 c 1
 349 392 366 387 378 382 c 0
 406 370 429 352 434 314 c 0
 442 260 402 219 368 216 c 1
 438 188 539 273 558 344 c 2
 628 594 l 1
 700 594 l 25
 564 103 l 2
 549 51 510 0 451 0 c 2
 106 0 l 1
 118 45 l 1
 168 45 l 1
 274 427 l 1
253 459 m 0
 285 459 301 484 301 510 c 0
 301 535 285 560 253 560 c 0
 220 560 204 535 204 510 c 0
 204 484 220 459 253 459 c 0
351 255 m 0
 379 255 393 277 392 300 c 0
 393 323 378 346 350 346 c 0
 321 346 306 324 306 301 c 0
 306 278 322 255 351 255 c 0
291 212 m 0
 244 45 l 1
 414 45 l 2
 447 45 482 69 491 101 c 2
 530 240 l 1
 481 169 334 129 291 212 c 0
EndSplineSet
EndChar
StartChar: uni0E2A
Encoding: 202 3626 170
Width: 552
Flags: W
HStem: -9 37<192 204> 538 60<390 417>
VStem: 244 38<73 83.8136>
Fore
199 154 m 1
 255 149 282 111 282 73 c 0
 282 32 252 -9 194 -9 c 0
 117 -9 99 68 110 108 c 2
 155 270 l 2
 173 335 246 413 337 425 c 1
 383 442 438 467 488 501 c 1
 467 526 431 538 390 538 c 0
 319 538 232 503 180 444 c 1
 161 467 l 1
 247 564 341 598 417 598 c 0
 476 598 524 578 550 551 c 1
 576 576 600 607 618 641 c 1
 689 641 l 1
 666 588 621 545 573 510 c 1
 582 482 580 456 573 429 c 2
 454 0 l 1
 381 0 l 1
 450 250 l 2
 468 315 435 378 370 378 c 0
 301 378 244 324 229 266 c 2
 199 154 l 1
198 28 m 0
 228 28 243 51 244 74 c 0
 244 96 229 118 199 118 c 0
 171 118 155 95 156 72 c 0
 156 50 170 28 198 28 c 0
396 424 m 1
 466 409 481 356 481 356 c 1
 484 369 499 422 499 422 c 2
 503 436 505 452 504 465 c 1
 463 445 423 430 396 424 c 1
EndSplineSet
EndChar
StartChar: uni0E2B
Encoding: 203 3627 171
Width: 623
Flags: W
HStem: 0 21G<150 224 450 525> 459 21G<232.5 265> 560 38<240 257 609 615>
VStem: 164 36<507 520> 524 43<500 516> 652 37<515 517>
Fore
359 493 m 2
 290 244 l 1
 400 383 541 460 535 456 c 1
 527 469 524 484 524 500 c 0
 524 547 556 596 609 596 c 0
 660 596 688 556 689 515 c 0
 688 481 668 447 624 437 c 1
 624 437 641 418 631 384 c 2
 525 0 l 1
 450 0 l 1
 554 376 l 2
 563 406 548 422 548 422 c 1
 418 352 296 190 284 172 c 0
 270 147 259 127 254 109 c 2
 224 0 l 1
 150 0 l 1
 268 427 l 1
 254 423 239 421 227 425 c 0
 184 439 165 475 164 508 c 0
 164 553 198 598 255 598 c 0
 345 598 370 534 359 493 c 2
249 459 m 0
 281 459 297 484 297 510 c 0
 297 535 281 560 249 560 c 0
 216 560 200 535 200 510 c 0
 200 484 216 459 249 459 c 0
608 472 m 0
 637 472 652 495 652 517 c 0
 651 539 638 561 609 561 c 0
 582 561 567 538 567 516 c 0
 567 494 581 472 608 472 c 0
EndSplineSet
EndChar
StartChar: uni0E2C
Encoding: 204 3628 172
Width: 681
Flags: W
HStem: 0 21G<151 226 506 583> 459 21G<234.5 267> 560 38<242 261> 607 38<657 664>
VStem: 166 36<507 518> 575 41<550.332 560 560.062 561.969 560 566>
Fore
269 427 m 1
 255 423 241 421 229 425 c 0
 186 439 167 475 166 508 c 0
 166 553 200 598 257 598 c 0
 347 598 375 537 364 496 c 2
 260 121 l 1
 512 556 l 1
 541 126 l 1
 639 478 l 1
 595 491 575 526 575 560 c 0
 575 603 607 645 662 645 c 0
 718 645 746 584 742 564 c 1
 780 609 784 639 787 659 c 1
 850 659 l 17
 813 536 722 502 722 502 c 1
 583 0 l 1
 506 0 l 1
 476 425 l 1
 226 0 l 1
 151 0 l 1
 269 427 l 1
251 459 m 0
 283 459 299 484 299 510 c 0
 299 535 283 560 251 560 c 0
 218 560 202 535 202 510 c 0
 202 484 218 459 251 459 c 0
660 516 m 0
 688 516 701 538 702 561 c 0
 702 584 687 607 659 607 c 0
 630 607 616 585 616 562 c 0
 615 539 631 516 660 516 c 0
EndSplineSet
EndChar
StartChar: uni0E2D
Encoding: 205 3629 173
Width: 553
Flags: W
HStem: -8 44<260 280> 270 39<287 293> 552 46<389 411>
VStem: 340 34<356 364>
Fore
496 146 m 2
 461 18 313 -8 260 -8 c 0
 194 -8 83 15 120 147 c 2
 170 327 l 2
 181 367 218 452 290 446 c 0
 349 441 374 402 374 362 c 0
 375 316 342 270 290 270 c 0
 274 270 254 275 234 286 c 1
 192 132 l 2
 174 68 222 36 278 36 c 0
 334 36 399 67 417 132 c 2
 498 425 l 2
 515 488 483 552 391 552 c 0
 287 552 234 500 198 468 c 1
 175 489 l 1
 219 531 294 598 409 598 c 0
 535 598 601 523 576 433 c 2
 496 146 l 2
291 309 m 0
 324 309 340 334 340 358 c 0
 340 384 323 409 290 409 c 0
 257 409 240 384 241 360 c 0
 241 334 258 309 291 309 c 0
EndSplineSet
EndChar
StartChar: uni0E2E
Encoding: 206 3630 174
Width: 553
Flags: W
HStem: -8 44<260 280> 185 40<258 278> 403 41<314 351> 553 43<383 402>
VStem: 316 35<273 280>
Fore
210 201 m 1
 191 132 l 2
 173 68 221 36 278 36 c 0
 334 36 399 67 417 132 c 2
 497 421 l 2
 500 432 506 450 505 461 c 1
 450 421 384 403 327 403 c 0
 253 403 195 433 198 485 c 0
 203 553 316 596 400 596 c 0
 479 596 521 565 533 559 c 1
 541 571 549 584 554 602 c 1
 631 602 l 17
 614 567 596 542 572 516 c 1
 583 495 583 458 575 429 c 2
 496 146 l 2
 461 18 313 -8 260 -8 c 0
 194 -8 83 15 120 147 c 2
 146 243 l 2
 157 283 195 368 266 362 c 0
 326 357 351 318 351 278 c 0
 351 232 318 185 265 185 c 0
 249 185 231 190 210 201 c 1
267 225 m 0
 300 225 316 250 316 275 c 0
 316 300 300 325 267 325 c 0
 234 325 217 300 217 275 c 0
 217 250 234 225 267 225 c 0
491 508 m 1
 480 531 449 553 386 553 c 0
 341 553 245 539 243 490 c 0
 242 462 282 444 332 444 c 0
 384 444 447 463 491 508 c 1
EndSplineSet
EndChar
StartChar: uni0E2F
Encoding: 207 3631 175
Width: 514
Flags: W
HStem: 0 21G<331 405> 412 50<293 322> 556 40<244.713 260>
Fore
405 0 m 1
 331 0 l 1
 460 465 l 1
 406 426 344 412 293 412 c 0
 244 412 204 424 189 438 c 0
 171 454 163 476 163 498 c 0
 163 546 200 596 256 596 c 0
 298 596 330 562 336 534 c 0
 345 494 322 462 322 462 c 1
 448 460 489 571 495 591 c 1
 569 591 l 1
 405 0 l 1
256 465 m 0
 285 465 299 487 299 510 c 0
 299 533 284 556 255 556 c 0
 226 556 211 534 212 511 c 0
 211 488 226 465 256 465 c 0
EndSplineSet
EndChar
StartChar: uni0E30
Encoding: 208 3632 176
Width: 438
Flags: W
HStem: 141 31<153 155> 551 30<262 268>
Fore
525 579 m 17
 470 445 359 406 264 418 c 1
 264 418 194 424 188 492 c 0
 186 523 200 581 264 581 c 0
 300 581 329 558 338 525 c 0
 348 489 326 461 326 461 c 1
 390 459 441 499 467 579 c 1
 525 579 l 17
150 8 m 1
 150 8 80 14 75 82 c 0
 72 113 89 172 153 172 c 0
 189 172 215 148 224 115 c 0
 234 79 212 51 212 51 c 1
 273 48 328 89 353 169 c 1
 411 169 l 17
 357 35 245 -3 150 8 c 1
266 468 m 0
 292 468 305 489 305 510 c 0
 305 530 292 551 266 551 c 0
 239 551 225 530 225 510 c 0
 226 489 239 468 266 468 c 0
153 58 m 0
 179 58 192 79 192 100 c 0
 192 120 179 141 153 141 c 0
 126 141 112 120 113 100 c 0
 113 79 126 58 153 58 c 0
EndSplineSet
EndChar
StartChar: uni0E31
Encoding: 209 3633 177
Width: 0
Flags: W
HStem: 676 52<44 70> 874 40<-31 -24>
VStem: -126 53<808 829>
AnchorPoint: "AboveMark" 167.284 967.68 basemark 0
AnchorPoint: "AboveBase" 77.833 645.12 mark 0
Fore
387 911 m 17
 306 747 159 676 44 676 c 0
 -20 676 -74 697 -102 737 c 0
 -118 760 -126 785 -126 808 c 0
 -126 865 -83 914 -29 914 c 0
 -26 914 l 0
 12 914 56 880 58 838 c 0
 62 754 -4 742 -4 742 c 1
 20 732 45 728 70 728 c 0
 165 728 257 799 303 911 c 1
 387 911 l 17
-27 782 m 0
 1 782 15 805 15 827 c 0
 15 851 0 874 -28 874 c 0
 -59 874 -73 851 -73 829 c 0
 -74 805 -58 782 -27 782 c 0
EndSplineSet
EndChar
StartChar: uni0E32
Encoding: 210 3634 178
Width: 407
Flags: W
HStem: 0 21G<235 311> 555 44<298 320>
Fore
311 0 m 1
 235 0 l 1
 361 456 l 2
 377 512 356 555 298 555 c 0
 233 555 174 513 155 496 c 1
 166 539 l 1
 190 559 245 599 320 599 c 0
 420 599 465 555 439 461 c 2
 311 0 l 1
EndSplineSet
EndChar
StartChar: uni0E33
Encoding: 211 3635 179
Width: 407
Flags: W
HStem: 0 21G<235 311> 555 44<298 320> 685 43<88 96> 829 47<91 96>
VStem: -1 42<768.745 784> 139 42<777 785>
Fore
311 0 m 1
 235 0 l 1
 361 456 l 2
 377 512 356 555 298 555 c 0
 233 555 174 513 155 496 c 1
 166 539 l 1
 190 559 245 599 320 599 c 0
 420 599 465 555 439 461 c 2
 311 0 l 1
90 685 m 0
 29 685 -1 732 -1 780 c 0
 -1 828 30 876 91 876 c 0
 151 876 181 829 181 781 c 0
 180 733 150 685 90 685 c 0
139 779 m 0
 139 808 118 829 91 829 c 0
 63 829 41 808 41 779 c 0
 41 751 63 728 91 728 c 0
 118 728 139 751 139 779 c 0
EndSplineSet
MultipleSubs2: "Thai Sara Am Decomposition" uni0E4D uni0E32
Substitution2: "Thai Sara Am Lakkhang" uni0E32
EndChar
StartChar: uni0E34
Encoding: 212 3636 180
Width: 0
Flags: W
AnchorPoint: "AboveMark" 130.662 967.68 basemark 0
AnchorPoint: "AboveBase" 77.8311 645.12 mark 0
Fore
101 651 m 1
 66 671 -2 713 -96 730 c 0
 -192 748 -255 737 -308 728 c 1
 -256 823 -149 900 -46 892 c 0
 76 883 131 796 101 651 c 1
65 717 m 1
 54 808 5 837 -62 843 c 0
 -126 849 -183 820 -222 777 c 1
 -179 782 -134 780 -84 773 c 0
 -2 760 65 717 65 717 c 1
EndSplineSet
EndChar
StartChar: uni0E35
Encoding: 213 3637 181
Width: 0
Flags: W
AnchorPoint: "AboveMark" 130.662 967.68 basemark 0
AnchorPoint: "AboveBase" 77.8311 645.12 mark 0
Fore
62 849 m 9
 91 951 l 1
 163 951 l 1
 163 951 108 753 107 751 c 0
 110 722 107 688 101 651 c 1
 66 671 -2 713 -96 730 c 0
 -192 748 -255 737 -308 728 c 1
 -256 823 -149 900 -46 892 c 0
 1 889 37 874 62 849 c 9
65 717 m 1
 54 808 5 837 -62 843 c 0
 -126 849 -183 820 -222 777 c 1
 -179 782 -134 780 -84 773 c 0
 -2 760 65 717 65 717 c 1
EndSplineSet
EndChar
StartChar: uni0E36
Encoding: 214 3638 182
Width: 0
Flags: W
HStem: 906 48<93 112>
VStem: 145 44<851.862 866>
AnchorPoint: "AboveMark" 132.127 967.68 basemark 0
AnchorPoint: "AboveBase" 77.833 645.12 mark 0
Fore
101 651 m 1
 51 684 -35 722 -106 731 c 0
 -203 748 -266 736 -306 728 c 1
 -259 822 -151 899 -48 894 c 1
 -5 889 10 880 10 880 c 1
 13 898 32 954 104 954 c 0
 158 954 189 908 189 862 c 0
 189 821 163 780 104 774 c 1
 104 774 118 731 101 651 c 1
103 820 m 0
 131 820 146 842 145 863 c 0
 145 884 131 906 103 906 c 0
 74 906 59 884 59 863 c 0
 60 842 74 820 103 820 c 0
65 717 m 1
 54 808 5 837 -62 843 c 0
 -126 849 -183 820 -222 777 c 1
 -179 782 -134 780 -84 773 c 0
 -2 760 65 717 65 717 c 1
EndSplineSet
EndChar
StartChar: uni0E37
Encoding: 215 3639 183
Width: 0
Flags: W
AnchorPoint: "AboveMark" 70.6025 967.68 basemark 0
AnchorPoint: "AboveBase" 77.8311 645.12 mark 0
Fore
101 648 m 1
 45 684 -24 714 -106 728 c 0
 -187 742 -246 737 -305 725 c 1
 -217 888 -53 876 -53 876 c 1
 -31 951 l 1
 35 951 l 1
 12 863 l 1
 45 852 63 831 63 831 c 1
 98 951 l 1
 163 951 l 1
 107 743 l 1
 107 743 114 714 101 648 c 1
64 714 m 1
 58 788 14 823 -66 829 c 0
 -119 834 -179 816 -226 773 c 1
 -184 779 -140 776 -82 768 c 0
 -6 757 64 714 64 714 c 1
EndSplineSet
EndChar
StartChar: uni0E38
Encoding: 216 3640 184
Width: 0
Flags: W
VStem: -321 35<-144 -134>
AnchorPoint: "BelowBase" -118.781 -69.1201 mark 0
Fore
-184 -307 m 1
 -260 -307 l 1
 -236 -220 l 1
 -240 -221 -249 -224 -269 -217 c 0
 -303 -205 -321 -174 -321 -144 c 0
 -321 -107 -296 -71 -243 -69 c 0
 -164 -66 -130 -95 -142 -155 c 1
 -184 -307 l 1
-248 -184 m 0
 -222 -184 -209 -164 -209 -144 c 0
 -209 -124 -222 -104 -248 -104 c 0
 -274 -104 -286 -124 -286 -144 c 0
 -286 -164 -273 -184 -248 -184 c 0
EndSplineSet
Substitution2: "Thai Sara U Mai Ek Reordering" uni0E48.low
Substitution2: "Thai Sara U Mai Tho Reordering" uni0E49.low
Substitution2: "Thai Sara U Mai Tri Reordering" uni0E4A.low
Substitution2: "Thai Sara U Mai Chattawa Reordering" uni0E4B.low
Substitution2: "Thai Sara U Thanthakhat Reordering" uni0E4C.low
Substitution2: "Thai Sara U Nikhahit Reordering" uni0E4D
EndChar
StartChar: uni0E39
Encoding: 217 3641 185
Width: 0
Flags: W
HStem: -307 34<-285 -272>
VStem: -424 29<-148 -137>
AnchorPoint: "BelowBase" -118.781 -69.1201 mark 0
Fore
-158 -212 m 2
 -172 -264 -216 -307 -274 -307 c 0
 -333 -307 -362 -275 -349 -226 c 2
 -344 -204 l 1
 -347 -206 -354 -207 -373 -202 c 0
 -407 -195 -424 -166 -424 -137 c 0
 -424 -104 -401 -71 -353 -68 c 0
 -275 -64 -266 -106 -281 -157 c 2
 -303 -238 l 2
 -308 -257 -302 -273 -283 -273 c 0
 -262 -273 -247 -261 -241 -238 c 2
 -194 -69 l 1
 -118 -69 l 1
 -158 -212 l 2
-321 -140 m 0
 -320 -117 -338 -101 -357 -101 c 0
 -378 -101 -394 -117 -395 -140 c 0
 -395 -158 -377 -178 -356 -178 c 0
 -337 -178 -321 -158 -321 -140 c 0
EndSplineSet
Substitution2: "Thai Sara UU Mai Ek Reordering" uni0E48.low
Substitution2: "Thai Sara UU Mai Tho Reordering" uni0E49.low
Substitution2: "Thai Sara UU Mai Tri Reordering" uni0E4A.low
Substitution2: "Thai Sara UU Mai Chattawa Reordering" uni0E4B.low
Substitution2: "Thai Sara UU Thanthakhat Reordering" uni0E4C.low
Substitution2: "Thai Sara UU Nikhahit Reordering" uni0E4D
EndChar
StartChar: uni0E3A
Encoding: 218 3642 186
Width: 0
Flags: W
AnchorPoint: "BelowBase" -115.799 -58.3682 mark 0
Fore
-164 -161 m 0
 -199 -161 -216 -134 -217 -108 c 0
 -217 -82 -199 -55 -164 -55 c 0
 -132 -55 -117 -81 -117 -108 c 0
 -117 -134 -133 -161 -164 -161 c 0
EndSplineSet
Substitution2: "Thai Phinthu Maitaikhu Reordering" uni0E47
Substitution2: "Thai Phinthu Mai Ek Reordering" uni0E48.low
Substitution2: "Thai Phinthu Mai Tho Reordering" uni0E49.low
Substitution2: "Thai Phinthu Mai Tri Reordering" uni0E4A.low
Substitution2: "Thai Phinthu Mai Chattawa Reordering" uni0E4B.low
Substitution2: "Thai Phinthu Thanthakhat Reordering" uni0E4C.low
Substitution2: "Thai Phinthu Nikhahit Reordering" uni0E4D
EndChar
StartChar: uni25CC
Encoding: 221 9676 188
Width: 618
Flags: W
HStem: 5 36<333 339> 41 39<198 204> 52 39<464 472> 134 36<132 137> 146 37<571 579> 276 37<645 651> 283 36<137 139> 412 37<643 650> 501 38<582 584> 508 37<340 342> 544 37<481 487>
VStem: 114 35<152 154> 183 36<61 63> 315 35<23 25> 321 38<527 529> 464 34<562 566> 565 36<519 521> 627 37<295 301>
Fore
208 453 m 2
329 544 m 2
190 78 m 2
121 169 m 2
459 88 m 2
562 181 m 2
636 447 m 2
573 536 m 2
634 312 m 2
127 318 m 2
471 579 m 2
217 455 m 0,11,12
 228 455 234 445 235 436 c 0,13,14
 235 425 227 416 216 416 c 0,15,16
 207 416 200 425 200 436 c 0,17,18
 199 445 208 455 217 455 c 0,11,12
340 545 m 0,19,20
 350 545 359 538 359 527 c 0,21,22
 359 518 350 508 340 508 c 0,23,24
 331 508 321 518 321 527 c 0,25,26
 321 538 331 545 340 545 c 0,19,20
202 80 m 0,27,28
 211 80 219 71 219 61 c 0,29,30
 219 51 210 41 201 41 c 0,31,32
 191 41 183 51 183 61 c 0,33,34
 183 71 192 80 202 80 c 0,27,28
132 170 m 0,35,36
 141 170 149 163 149 152 c 0,37,38
 149 141 141 134 132 134 c 0,39,40
 121 134 114 141 114 152 c 0,41,42
 114 163 121 170 132 170 c 0,35,36
470 91 m 0,43,44
 480 91 486 81 487 71 c 0,45,46
 487 61 479 52 469 52 c 0,47,48
 460 52 452 61 452 71 c 0,49,50
 451 81 461 91 470 91 c 0,43,44
574 183 m 0,51,52
 585 183 592 175 591 164 c 0,53,54
 592 154 584 146 573 146 c 0,55,56
 564 146 557 154 556 164 c 0,57,58
 557 175 565 183 574 183 c 0,51,52
648 449 m 0,59,60
 659 449 665 441 665 430 c 0,61,62
 665 419 658 412 647 412 c 0,63,64
 638 412 630 419 630 430 c 0,65,66
 630 441 639 449 648 449 c 0,59,60
582 539 m 0,67,68
 592 539 601 530 601 519 c 0,69,70
 601 510 592 501 582 501 c 0,71,72
 573 501 565 510 565 519 c 0,73,74
 565 530 573 539 582 539 c 0,67,68
645 313 m 0,75,76
 655 313 664 306 664 295 c 0,77,78
 664 284 655 276 645 276 c 0,79,80
 636 276 627 284 627 295 c 0,81,82
 627 306 636 313 645 313 c 0,75,76
137 319 m 0,83,84
 148 319 156 312 155 301 c 0,85,86
 155 292 148 283 137 283 c 0,87,88
 127 283 119 292 119 301 c 0,89,90
 120 312 127 319 137 319 c 0,83,84
333 41 m 0,91,92
 343 41 350 34 350 23 c 0,93,94
 350 12 343 5 333 5 c 0,95,96
 324 5 315 12 315 23 c 0,97,98
 315 34 324 41 333 41 c 0,91,92
481 581 m 0,99,100
 492 581 498 571 498 562 c 0,101,102
 498 551 492 544 481 544 c 0,103,104
 473 544 464 551 464 562 c 0,105,106
 464 571 473 581 481 581 c 0,99,100
EndSplineSet
EndChar
StartChar: uni0E40
Encoding: 224 3648 190
Width: 321
Flags: W
HStem: -6 41<205 216> 574 20G<258 334>
VStem: 258 37<68.3755 79.9375>
Fore
238 162 m 0
 277 147 296 114 295 80 c 0
 295 37 264 -6 207 -6 c 0
 118 -6 109 57 123 109 c 2
 258 594 l 1
 334 594 l 1
 215 167 l 1
 215 167 229 166 238 162 c 0
214 35 m 0
 244 35 259 58 258 80 c 0
 259 104 243 127 213 127 c 0
 184 127 169 104 170 82 c 0
 169 58 185 35 214 35 c 0
EndSplineSet
EndChar
StartChar: uni0E41
Encoding: 225 3649 191
Width: 580
Flags: W
HStem: -6 41<205 218 462 475> 574 20G<258 334 515 591>
VStem: 258 37<68.3755 79.9375> 515 37<68.3755 79.9375>
Fore
472 167 m 1
 472 167 486 166 495 162 c 0
 534 147 553 114 552 80 c 0
 552 37 521 -6 464 -6 c 0
 375 -6 366 57 380 109 c 2
 515 594 l 1
 591 594 l 1
 472 167 l 1
471 35 m 0
 501 35 516 58 515 80 c 0
 516 104 500 127 470 127 c 0
 441 127 426 104 427 82 c 0
 426 58 442 35 471 35 c 0
215 167 m 1
 215 167 229 166 238 162 c 0
 277 147 296 114 295 80 c 0
 295 37 264 -6 207 -6 c 0
 118 -6 109 57 123 109 c 2
 258 594 l 1
 334 594 l 1
 215 167 l 1
214 35 m 0
 244 35 259 58 258 80 c 0
 259 104 243 127 213 127 c 0
 184 127 169 104 170 82 c 0
 169 58 185 35 214 35 c 0
EndSplineSet
EndChar
StartChar: uni0E42
Encoding: 226 3650 192
Width: 315
Flags: W
HStem: -4 39<232 248> 127 40<238 248> 845 58<411 519>
VStem: 281 41<75 84>
Fore
570 909 m 0
 494 777 412 845 411 845 c 0
 360 879 327 892 302 892 c 0
 275 892 259 878 241 860 c 1
 373 770 l 2
 386 760 411 743 394 694 c 2
 248 167 l 1
 255 167 264 164 267 163 c 0
 305 149 322 116 322 84 c 0
 322 40 290 -4 235 -4 c 0
 182 -4 142 51 157 106 c 2
 322 700 l 2
 328 719 333 739 303 757 c 2
 182 836 l 1
 201 862 267 955 342 958 c 0
 393 961 464 903 519 903 c 0
 534 903 549 907 561 919 c 0
 571 926 578 923 570 909 c 0
239 35 m 0
 268 35 281 58 281 80 c 0
 282 104 267 127 238 127 c 0
 208 127 194 104 194 82 c 0
 193 58 209 35 239 35 c 0
EndSplineSet
EndChar
StartChar: uni0E43
Encoding: 227 3651 193
Width: 345
Flags: W
HStem: -4 39<248 268> 127 40<258 268> 678 41<236.046 255> 908 50<326 350>
VStem: 282 37<747 765> 301 41<75 84>
Fore
268 167 m 1xf8
 275 167 284 164 287 163 c 0
 325 149 342 116 342 84 c 0xf4
 342 40 310 -4 255 -4 c 0
 202 -4 162 51 177 106 c 2
 373 811 l 2
 387 862 372 906 326 908 c 0
 271 908 237 870 219 822 c 1
 242 837 266 828 273 825 c 0
 305 811 319 783 319 755 c 0
 319 716 292 678 246 678 c 0
 148 678 159 779 178 828 c 0
 206 900 268 958 350 958 c 0
 439 958 469 892 446 808 c 2
 268 167 l 1xf8
259 35 m 0
 288 35 301 58 301 80 c 0
 302 104 287 127 258 127 c 0
 228 127 214 104 214 82 c 0
 213 58 229 35 259 35 c 0
248 793 m 0
 224 793 211 777 212 756 c 0
 211 740 220 719 245 719 c 0
 269 719 282 738 282 757 c 0xf8
 282 775 271 793 248 793 c 0
EndSplineSet
EndChar
StartChar: uni0E44
Encoding: 228 3652 194
Width: 384
Flags: W
HStem: -4 39<294 313> 127 40<304 313> 654 37<249 266> 919 39<422 452>
VStem: 347 41<75 84>
Fore
311 167 m 1
 318 167 330 164 333 163 c 0
 371 149 388 116 388 84 c 0
 388 40 356 -4 301 -4 c 0
 248 -4 208 51 223 106 c 2
 439 883 l 2
 445 905 438 919 422 919 c 0
 402 919 387 900 382 883 c 2
 339 730 l 2
 328 688 298 654 249 654 c 0
 200 653 182 690 195 734 c 2
 243 909 l 2
 246 919 250 929 240 945 c 0
 232 957 227 958 217 971 c 2
 210 983 225 992 237 983 c 2
 295 962 l 2
 312 949 308 942 305 931 c 2
 247 720 l 2
 242 703 249 691 266 691 c 0
 282 691 298 702 303 720 c 2
 343 866 l 2
 357 917 394 958 452 958 c 0
 509 958 518 914 507 871 c 2
 311 167 l 1
305 35 m 0
 334 35 347 58 347 80 c 0
 348 104 333 127 304 127 c 0
 274 127 260 104 260 82 c 0
 259 58 275 35 305 35 c 0
EndSplineSet
EndChar
StartChar: uni0E45
Encoding: 229 3653 195
Width: 289
Flags: W
HStem: 555 44<181 202>
Fore
50 -240 m 1
 243 456 l 2
 259 512 239 555 181 555 c 0
 116 555 57 513 39 496 c 1
 50 539 l 1
 73 559 128 599 202 599 c 0
 302 599 348 555 322 461 c 2
 127 -240 l 1
 50 -240 l 1
EndSplineSet
EndChar
StartChar: uni0E46
Encoding: 230 3654 196
Width: 670
Flags: W
HStem: 262 33<411 427>
VStem: 460 32<335 340>
Fore
425 -240 m 0
 621 464 l 2
 632 504 623 518 602 524 c 1
 513 455 l 1
 504 468 463 524 463 524 c 1
 412 499 385 432 383 410 c 1
 383 410 413 422 440 412 c 0
 475 400 493 370 492 340 c 0
 492 301 465 262 413 262 c 0
 311 262 314 342 336 424 c 0
 351 479 408 565 484 598 c 1
 533 528 l 1
 623 599 l 1
 711 598 712 527 695 464 c 2
 499 -240 l 1
 425 -240 l 0
417 295 m 0
 446 295 460 317 460 338 c 0
 460 360 446 382 417 382 c 0
 390 382 376 360 376 338 c 0
 376 317 390 295 417 295 c 0
EndSplineSet
EndChar
StartChar: uni0E47
Encoding: 231 3655 197
Width: 0
Flags: W
HStem: 668 44<9.89163 79.0655> 757 57<-162.519 -87.8098> 795 39<8.1583 79.0399>
VStem: -28 32<737.158 790.547> 84 37<717.688 789.886> 138 75<959.197 1028>
AnchorPoint: "AboveBase" 54.3926 645.12 mark 0
Fore
213 1028 m 17xdc
 183 919 101 868 -39 892 c 0
 -105 905 -147 903 -177 837 c 0
 -191 806 -191 773 -186 762 c 1
 -186 762 -170 814 -113 814 c 0xdc
 -50 814 -50 742 -26 737 c 1
 -26 737 -28 747 -28 756 c 0
 -30 809 6 834 43 834 c 0xbc
 82 834 122 806 121 753 c 0
 120 696 78 668 45 668 c 0
 -113 668 -60 759 -126 757 c 0
 -171 756 -188 685 -178 668 c 1
 -217 668 l 1
 -249 705 -264 785 -222 865 c 0
 -197 911 -149 963 -11 943 c 0
 73 931 119 935 138 1028 c 1
 213 1028 l 17xdc
84 753 m 0
 84 781 63 795 43 795 c 0xbc
 23 795 4 781 4 754 c 0
 4 753 l 0
 4 726 23 712 43 712 c 0
 63 712 84 726 84 753 c 0
EndSplineSet
Substitution2: "Thai Mark High Variant" uni0E47.high
Substitution2: "Thai Phinthu Maitaikhu Reordering" uni0E3A
EndChar
StartChar: uni0E48
Encoding: 232 3656 198
Width: 0
Flags: W
AnchorPoint: "AboveMark" 135.057 967.68 mark 0
Fore
239 1210 m 1
 183 1009 l 5
 111 1009 l 1
 167 1210 l 1
 239 1210 l 1
EndSplineSet
MultipleSubs2: "Thai Tone Nikhahit Attachment" uni0E4D uni0E48
Substitution2: "Thai Tone Low Variant" uni0E48.low
Substitution2: "Thai Sara U Mai Ek Reordering" uni0E38
Substitution2: "Thai Sara UU Mai Ek Reordering" uni0E39
Substitution2: "Thai Phinthu Mai Ek Reordering" uni0E3A
EndChar
StartChar: uni0E49
Encoding: 233 3657 199
Width: 0
Flags: W
HStem: 1066 34<119 129> 1184 36<118 136>
VStem: 53 33<1132 1150>
AnchorPoint: "AboveMark" 215.626 967.68 mark 0
Fore
464 1213 m 17
 395 1040 202 951 39 978 c 1
 48 1008 l 1
 58 1011 100 1032 123 1066 c 1
 120 1066 l 1
 120 1066 114 1066 104 1069 c 0
 69 1079 53 1110 53 1140 c 0
 53 1180 80 1220 131 1220 c 0
 171 1220 209 1184 204 1135 c 0
 199 1080 128 1021 128 1021 c 1
 123 1017 l 1
 213 1025 348 1087 388 1213 c 1
 464 1213 l 17
129 1100 m 0
 156 1100 169 1121 168 1141 c 0
 170 1163 155 1184 128 1184 c 0
 99 1184 86 1163 86 1143 c 0
 86 1121 100 1100 129 1100 c 0
EndSplineSet
MultipleSubs2: "Thai Tone Nikhahit Attachment" uni0E4D uni0E49
Substitution2: "Thai Tone Low Variant" uni0E49.low
Substitution2: "Thai Sara U Mai Tho Reordering" uni0E38
Substitution2: "Thai Sara UU Mai Tho Reordering" uni0E39
Substitution2: "Thai Phinthu Mai Tho Reordering" uni0E3A
EndChar
StartChar: uni0E4A
Encoding: 234 3658 200
Width: 0
Flags: W
HStem: 988 30<110 120> 1172 54<152 167>
AnchorPoint: "AboveMark" 165.819 967.68 mark 0
Fore
456 1229 m 17
 426 1091 330 1009 209 992 c 1
 216 1017 l 1
 245 1033 267 1067 276 1098 c 0
 285 1132 280 1165 257 1172 c 1
 193 1134 l 1
 152 1172 l 1
 117 1172 86 1133 78 1109 c 1
 78 1109 98 1132 137 1121 c 0
 162 1114 184 1086 183 1056 c 0
 181 1015 156 988 115 988 c 0
 36 988 19 1043 39 1115 c 0
 53 1166 118 1226 167 1226 c 1
 167 1226 206 1180 207 1180 c 2
 270 1224 l 1
 332 1206 339 1161 328 1120 c 0
 320 1093 306 1068 293 1051 c 1
 357 1089 392 1157 395 1229 c 1
 456 1229 l 17
154 1055 m 0
 154 1080 136 1093 118 1093 c 0
 100 1093 82 1080 82 1055 c 0
 82 1030 100 1018 118 1018 c 0
 136 1018 154 1030 154 1055 c 0
EndSplineSet
MultipleSubs2: "Thai Tone Nikhahit Attachment" uni0E4D uni0E4A
Substitution2: "Thai Tone Low Variant" uni0E4A.low
Substitution2: "Thai Sara U Mai Tri Reordering" uni0E38
Substitution2: "Thai Sara UU Mai Tri Reordering" uni0E39
Substitution2: "Thai Phinthu Mai Tri Reordering" uni0E3A
EndChar
StartChar: uni0E4B
Encoding: 235 3659 201
Width: 0
Flags: W
HStem: 1080 58<48 134 209 291>
AnchorPoint: "AboveMark" 129.197 967.68 mark 0
Fore
291 1081 m 5
 191 1080 l 1
 165 992 l 1
 111 992 l 1
 134 1080 l 1
 32 1081 l 1
 48 1138 l 1
 149 1140 l 1
 172 1229 l 1
 235 1229 l 1
 209 1140 l 1
 307 1138 l 1
 291 1081 l 5
EndSplineSet
MultipleSubs2: "Thai Tone Nikhahit Attachment" uni0E4D uni0E4B
Substitution2: "Thai Tone Low Variant" uni0E4B.low
Substitution2: "Thai Sara U Mai Chattawa Reordering" uni0E38
Substitution2: "Thai Sara UU Mai Chattawa Reordering" uni0E39
Substitution2: "Thai Phinthu Mai Chattawa Reordering" uni0E3A
EndChar
StartChar: uni0E4C
Encoding: 236 3660 202
Width: 0
Flags: W
HStem: 902 29<100 118>
AnchorPoint: "AboveMark" 84.4609 890.88 mark 0
Fore
361 1143 m 17
 299 1040 140 1040 146 1036 c 0
 169 1021 180 998 180 974 c 0
 180 938 153 902 105 902 c 0
 61 902 31 940 37 983 c 0
 45 1041 107 1069 179 1081 c 0
 205 1086 293 1118 311 1172 c 1
 361 1143 l 17
108 931 m 0
 134 931 147 951 148 972 c 0
 147 993 134 1014 107 1014 c 0
 80 1014 67 994 67 973 c 0
 67 952 81 931 108 931 c 0
EndSplineSet
MultipleSubs2: "Thai Tone Nikhahit Attachment" uni0E4D uni0E4C
Substitution2: "Thai Tone Low Variant" uni0E4C.low
Substitution2: "Thai Sara U Thanthakhat Reordering" uni0E38
Substitution2: "Thai Sara UU Thanthakhat Reordering" uni0E39
Substitution2: "Thai Phinthu Thanthakhat Reordering" uni0E3A
EndChar
StartChar: uni0E4D
Encoding: 237 3661 203
Width: 0
Flags: W
HStem: 668 43<46 107> 813 46<47 108>
VStem: -14 42<762 776.5> 124 44<740 776.5>
AnchorPoint: "AboveMark" 133.592 967.68 basemark 0
AnchorPoint: "AboveBase" 110.659 645.12 mark 0
Fore
77 668 m 0
 15 668 -15 715 -14 763 c 0
 -15 811 16 859 78 859 c 0
 138 859 167 812 168 764 c 0
 168 716 137 668 77 668 c 0
124 762 m 0
 124 791 102 813 77 813 c 0
 49 813 28 791 28 762 c 0
 29 734 50 711 78 711 c 0
 103 712 124 732 124 762 c 0
EndSplineSet
Substitution2: "Thai Mark High Variant" uni0E4D.high
Substitution2: "Thai Sara U Nikhahit Reordering" uni0E38
Substitution2: "Thai Sara UU Nikhahit Reordering" uni0E39
Substitution2: "Thai Phinthu Nikhahit Reordering" uni0E3A
EndChar
StartChar: uni0E4E
Encoding: 238 3662 204
Width: 0
Flags: W
AnchorPoint: "AboveBase" 77.8311 645.12 mark 0
Fore
327 865 m 2
 261 923 200 862 207 816 c 1
 207 816 209 805 205 800 c 0
 194 788 156 759 142 762 c 0
 139 762 136 765 136 765 c 1
 93 831 -4 765 23 696 c 1
 23 696 30 687 22 682 c 0
 12 676 -21 654 -30 651 c 0
 -36 650 -40 657 -40 657 c 1
 -97 762 81 903 161 806 c 1
 162 808 l 1
 146 908 296 980 363 900 c 1
 363 900 364 897 361 892 c 0
 357 882 342 862 330 863 c 0
 329 863 327 865 327 865 c 2
EndSplineSet
EndChar
StartChar: uni0E4F
Encoding: 239 3663 205
Width: 702
Flags: W
HStem: -2 54<347 376> 164 43<397 413> 382 47<456 471> 539 55<491 519>
Fore
762 296 m 0
 708 101 504 -2 351 -2 c 0
 193 -2 50 101 104 296 c 0
 158 492 359 594 517 594 c 0
 670 594 816 492 762 296 c 0
665 296 m 0
 702 430 628 539 501 539 c 0
 370 539 237 430 200 296 c 0
 163 163 235 52 366 52 c 0
 493 52 628 163 665 296 c 0
561 296 m 0
 539 218 464 164 397 164 c 0
 324 164 282 218 304 296 c 0
 326 376 398 429 471 429 c 0
 538 429 583 376 561 296 c 0
494 296 m 0
 507 341 500 382 458 382 c 0
 415 382 387 341 374 296 c 0
 362 252 366 207 409 207 c 0
 451 207 482 252 494 296 c 0
EndSplineSet
EndChar
StartChar: uni0E50
Encoding: 240 3664 206
Width: 615
Flags: W
HStem: -8 45<304 330> 430 45<424 442>
Fore
625 232 m 0
 587 92 444 -8 306 -8 c 0
 162 -8 75 89 115 233 c 0
 153 373 296 475 440 475 c 0
 578 475 664 373 625 232 c 0
549 233 m 0
 577 336 531 430 427 430 c 0
 319 430 221 341 190 232 c 0
 161 126 215 37 318 37 c 0
 420 37 521 132 549 233 c 0
EndSplineSet
EndChar
StartChar: uni0E51
Encoding: 241 3665 207
Width: 615
Flags: W
HStem: 224 46<339 347> 430 45<419 438>
VStem: 258 44<178 186>
Fore
630 232 m 0
 595 104 495 0 373 -29 c 1
 345 -14 l 1
 481 32 531 146 556 233 c 0
 589 353 524 430 423 430 c 0
 323 430 224 352 189 232 c 0
 129 22 301 0 359 97 c 1
 359 97 349 90 312 99 c 0
 267 110 258 162 258 184 c 0
 258 228 291 270 343 270 c 0
 410 270 450 214 433 152 c 0
 370 -74 31 -65 113 232 c 0
 156 386 301 475 436 475 c 0
 570 475 672 384 630 232 c 0
381 183 m 0
 381 210 361 224 341 224 c 0
 322 224 302 210 302 183 c 0
 302 155 322 141 341 141 c 0
 361 141 381 155 381 183 c 0
EndSplineSet
EndChar
StartChar: uni0E52
Encoding: 242 3666 208
Width: 615
Flags: W
HStem: 0 45<197 468> 82 44<321 331>
VStem: 361 42<159 177>
Fore
637 232 m 0
 623 180 613 146 595 104 c 0
 568 46 544 0 450 0 c 2
 185 0 l 2
 88 0 61 54 81 126 c 2
 199 551 l 2
 225 644 217 664 217 664 c 2
 219 703 245 696 256 687 c 2
 256 687 279 643 279 641 c 0
 279 639 289 622 270 551 c 2
 151 124 l 2
 138 74 163 45 201 45 c 2
 455 45 l 2
 494 45 512 71 523 95 c 0
 551 166 547 160 568 233 c 0
 591 318 608 402 568 412 c 0
 539 418 493 350 477 312 c 0
 459 275 420 270 426 313 c 0
 431 352 420 418 388 412 c 0
 359 405 329 358 311 295 c 0
 307 280 304 265 301 249 c 1
 301 249 323 258 348 249 c 0
 385 237 403 202 403 168 c 0
 403 125 375 82 321 82 c 0
 246 82 220 110 226 184 c 0
 229 221 235 255 244 286 c 0
 279 399 332 474 401 472 c 0
 458 470 469 401 462 364 c 1
 467 364 l 1
 483 401 532 470 593 472 c 0
 677 473 671 352 637 232 c 0
361 166 m 0
 361 194 341 209 321 209 c 0
 301 209 281 194 281 166 c 0
 281 139 301 126 321 126 c 0
 341 126 361 139 361 166 c 0
EndSplineSet
EndChar
StartChar: uni0E53
Encoding: 243 3667 209
Width: 615
Flags: W
HStem: -8 42<200 211> 412 61<314 331 529 552>
VStem: 245 41<71 86>
Fore
402 238 m 0
 398 223 395 214 391 197 c 0
 380 160 334 161 344 197 c 0
 348 212 351 223 355 237 c 0
 383 339 362 412 316 412 c 0
 279 412 222 372 189 252 c 0
 181 224 175 190 170 152 c 1
 170 152 200 172 232 158 c 0
 278 138 286 100 286 77 c 0
 286 26 250 -8 202 -8 c 0
 118 -8 99 32 96 86 c 0
 93 132 99 191 115 249 c 0
 147 363 217 473 331 473 c 0
 408 473 412 370 412 370 c 1
 414 370 l 1
 459 450 505 473 552 473 c 0
 655 473 674 376 637 240 c 0
 617 171 584 92 539 11 c 1
 495 0 l 2
 481 -2 460 -8 476 25 c 0
 518 109 546 180 562 237 c 0
 594 352 577 412 529 412 c 0
 470 412 420 304 402 238 c 0
245 75 m 0
 245 104 225 118 205 118 c 0
 185 118 165 104 165 75 c 0
 165 48 185 34 205 34 c 0
 225 34 245 48 245 75 c 0
EndSplineSet
EndChar
StartChar: uni0E54
Encoding: 244 3668 210
Width: 615
Flags: W
HStem: 169 45<420 429> 298 47<420 428> 421 47<473 492> 424 48<387 409>
VStem: 463 41<252 268>
Fore
463 258 m 0xc8
 463 285 443 298 423 298 c 0
 403 298 383 284 382 257 c 0
 382 228 402 214 422 214 c 0
 442 214 462 229 463 258 c 0xc8
548 46 m 0
 554 46 571 49 577 49 c 0
 597 49 579 29 579 29 c 1
 555 0 l 1
 555 0 470 0 386 3 c 0
 346 5 314 -2 275 -5 c 0
 163 -11 74 78 119 243 c 0
 162 398 293 472 409 472 c 0xd8
 446 472 453 468 480 468 c 0
 570 468 657 536 699 690 c 1
 760 670 l 2
 765 668 770 664 765 650 c 0
 720 519 614 421 473 421 c 0xe8
 456 421 426 424 408 424 c 0xd8
 293 424 222 329 196 243 c 0
 166 134 183 35 310 45 c 0
 324 46 332 48 347 48 c 0
 368 48 390 45 390 45 c 1
 336 69 285 140 311 235 c 0
 332 309 373 345 426 345 c 0
 472 345 504 309 504 252 c 0
 504 198 464 169 425 169 c 0
 404 169 382 178 369 196 c 1
 332 159 436 37 548 46 c 0
EndSplineSet
EndChar
StartChar: uni0E55
Encoding: 245 3669 211
Width: 615
Flags: W
HStem: 169 45<420 431> 298 47<420 433> 566 44<466 476>
VStem: 369 42<497.696 505> 462 42<250 268>
Fore
462 258 m 0
 462 285 443 298 423 298 c 0
 403 298 383 284 382 257 c 0
 382 228 402 214 422 214 c 0
 442 214 462 229 462 258 c 0
548 46 m 0
 554 46 571 49 577 49 c 0
 597 49 579 29 579 29 c 1
 555 0 l 1
 555 0 470 0 386 3 c 0
 346 5 314 -2 275 -5 c 0
 163 -11 74 78 119 243 c 0
 160 390 278 459 380 469 c 1
 372 479 369 491 369 505 c 0
 369 579 428 610 472 610 c 0
 527 610 569 564 569 505 c 0
 570 496 569 500 568 491 c 1
 602 515 663 553 697 690 c 1
 760 670 l 2
 765 668 770 664 765 650 c 0
 719 515 606 422 480 421 c 0
 461 421 425 422 407 422 c 0
 292 422 222 329 196 243 c 0
 166 134 183 35 310 45 c 0
 324 46 332 48 347 48 c 0
 368 48 392 43 392 43 c 1
 338 68 285 140 311 235 c 0
 332 309 373 345 426 345 c 0
 472 345 504 309 504 252 c 0
 504 198 464 169 425 169 c 0
 404 169 382 178 369 196 c 1
 332 159 436 37 548 46 c 0
524 507 m 0
 525 545 496 566 466 566 c 0
 439 565 412 547 411 507 c 0
 410 492 423 474 431 468 c 1
 448 466 487 468 510 474 c 1
 520 482 523 496 524 507 c 0
EndSplineSet
EndChar
StartChar: uni0E56
Encoding: 246 3670 212
Width: 615
Flags: W
HStem: -8 45<288 324> 104 45<228 243> 233 47<227 242> 430 45<400 426>
VStem: 113 206<127 190> 277 42<183 201>
Fore
424 475 m 0xf8
 573 475 661 381 619 230 c 0
 581 94 467 -8 294 -8 c 0
 162 -8 113 58 113 127 c 0
 113 202 171 280 240 280 c 0
 284 280 319 238 319 190 c 0
 319 136 284 104 232 104 c 0
 204 104 180 134 180 134 c 1
 168 72 237 37 306 37 c 0
 412 37 512 118 543 230 c 0
 576 349 513 430 411 430 c 0
 370 430 310 419 262 393 c 0
 249 386 218 393 233 435 c 1
 263 544 260 610 239 674 c 0
 238 680 238 691 250 691 c 2
 324 691 l 1
 332 664 337 564 301 453 c 1
 332 468 383 475 424 475 c 0xf8
277 192 m 0xf4
 277 220 257 233 237 233 c 0
 217 233 197 220 197 192 c 0
 197 164 217 149 237 149 c 0
 257 149 277 164 277 192 c 0xf4
EndSplineSet
EndChar
StartChar: uni0E57
Encoding: 247 3671 213
Width: 615
Flags: W
HStem: -9 43<181 191> 118 45<181 191>
VStem: 78 68<75 94> 225 42<70 80>
Fore
746 671 m 0
 750 594 737 503 712 412 c 0
 658 218 550 29 437 -2 c 1
 437 -2 372 -18 389 22 c 1
 389 22 427 97 449 146 c 0
 471 196 486 237 496 271 c 0
 526 381 501 418 474 418 c 0
 434 418 397 366 377 326 c 0
 371 312 362 287 358 275 c 0
 345 240 307 238 313 275 c 0
 317 290 322 313 323 327 c 0
 327 370 315 418 280 418 c 0
 255 418 205 387 172 270 c 0
 164 238 156 199 150 153 c 1
 150 153 160 163 189 163 c 0
 231 163 267 126 267 78 c 0
 267 26 232 -9 183 -9 c 0
 96 -9 79 38 78 94 c 0
 79 150 86 206 100 257 c 0
 133 376 201 467 297 472 c 0
 336 473 366 427 357 362 c 1
 362 362 l 1
 388 427 449 473 489 472 c 0
 567 467 590 391 558 275 c 0
 540 211 506 135 454 52 c 1
 454 52 492 68 519 109 c 0
 571 184 616 279 644 380 c 0
 668 466 679 557 669 641 c 1
 716 687 l 2
 731 702 744 710 746 671 c 0
225 75 m 0
 225 104 206 118 186 118 c 0
 166 118 146 104 146 75 c 0
 146 48 165 34 185 34 c 0
 205 34 225 48 225 75 c 0
EndSplineSet
EndChar
StartChar: uni0E58
Encoding: 248 3672 214
Width: 615
Flags: W
HStem: -3 209<433 545> 160 46<540 547> 289 47<540 553> 421 47<477 494> 424 49<391 407>
VStem: 459 46<247 257.41>
Fore
637 240 m 0x6c
 602 71 503 -3 433 -3 c 0
 381 -3 291 6 313 152 c 1
 285 134 243 48 222 -6 c 1
 160 -8 57 69 106 243 c 0
 151 398 278 473 393 473 c 0xac
 421 473 455 468 477 468 c 0
 559 468 647 542 685 690 c 1
 746 668 l 2
 753 667 758 662 753 648 c 0
 707 519 593 421 480 421 c 0x34
 453 421 430 424 407 424 c 0
 287 424 209 338 182 241 c 0
 159 160 162 95 205 61 c 1
 205 61 257 192 334 220 c 1
 373 214 l 1
 315 2 498 2 547 160 c 1
 488 160 459 200 459 246 c 0
 459 310 503 336 551 336 c 0
 623 336 641 261 637 240 c 0x6c
584 247 m 0
 584 272 566 289 544 289 c 0
 521 289 505 272 505 247 c 0
 506 223 522 206 545 206 c 0
 567 206 585 223 584 247 c 0
EndSplineSet
EndChar
StartChar: uni0E59
Encoding: 249 3673 215
Width: 615
Flags: W
HStem: -9 41<244 254> 115 45<244 254> 346 60<582 597>
Fore
289 74 m 0
 288 97 269 115 249 115 c 0
 227 115 209 97 210 74 c 0
 209 51 228 32 250 32 c 0
 270 32 288 51 289 74 c 0
445 362 m 1
 449 356 459 327 462 318 c 0
 499 190 519 40 519 40 c 2
 530 -8 455 -29 446 20 c 2
 446 20 418 178 393 275 c 0
 360 390 316 439 246 398 c 0
 184 361 166 209 198 135 c 1
 198 135 216 160 252 160 c 0
 297 160 331 120 331 74 c 0
 331 27 293 -9 248 -9 c 0
 179 -9 157 11 135 51 c 0
 76 167 107 369 229 442 c 0
 259 461 359 496 416 407 c 1
 425 439 466 467 498 467 c 0
 570 468 553 406 595 406 c 0
 641 406 690 501 713 687 c 1
 783 664 l 1
 791 664 791 659 788 650 c 0
 743 449 670 346 582 346 c 0
 517 346 527 412 492 413 c 0
 465 415 449 389 445 362 c 1
EndSplineSet
EndChar
StartChar: uni0E5A
Encoding: 250 3674 216
Width: 697
Flags: W
HStem: 0 21G<331 405 514 588> 412 50<293 322> 556 40<244.713 260>
Fore
405 0 m 1
 331 0 l 1
 460 465 l 1
 406 426 344 412 293 412 c 0
 244 412 204 424 189 438 c 0
 171 454 163 476 163 498 c 0
 163 546 200 596 256 596 c 0
 298 596 330 562 336 534 c 0
 345 494 322 462 322 462 c 1
 448 460 489 571 495 591 c 1
 569 591 l 1
 405 0 l 1
256 465 m 0
 285 465 299 487 299 510 c 0
 299 533 284 556 255 556 c 0
 226 556 211 534 212 511 c 0
 211 488 226 465 256 465 c 0
678 591 m 1
 752 591 l 1
 588 0 l 1
 514 0 l 1
 678 591 l 1
EndSplineSet
EndChar
StartChar: uni0E5B
Encoding: 251 3675 217
Width: 1405
Flags: W
HStem: 210 42<408 427> 401 27<394 406>
VStem: 425 50<349 362>
Fore
1474 335 m 1
 1376 332 l 0
 1360 332 1353 330 1345 315 c 0
 1320 260 1256 261 1268 323 c 0
 1274 358 1239 347 1238 326 c 0
 1237 263 1189 204 1121 192 c 0
 1115 190 1094 190 1100 203 c 0
 1140 281 1162 376 1127 435 c 1
 1124 435 l 1
 1139 378 1093 218 990 170 c 1
 990 170 968 157 948 157 c 0
 933 157 944 175 944 175 c 1
 987 278 1006 427 965 473 c 1
 962 473 l 1
 977 390 924 187 772 123 c 1
 772 123 754 117 748 115 c 0
 737 112 728 121 732 131 c 0
 757 187 813 418 754 530 c 1
 751 530 l 1
 765 465 750 366 717 293 c 0
 684 218 573 66 386 49 c 0
 217 34 97 155 148 338 c 0
 206 547 368 637 494 619 c 0
 608 602 651 524 615 392 c 0
 592 309 504 210 410 210 c 0
 337 210 300 260 317 346 c 0
 327 398 356 428 400 428 c 0
 442 428 475 392 475 349 c 0
 475 284 416 275 396 280 c 2
 379 284 l 1
 380 264 390 252 423 252 c 0
 464 252 521 303 545 390 c 0
 567 468 567 559 479 573 c 0
 389 587 277 487 235 336 c 0
 195 192 271 69 397 91 c 0
 600 124 709 409 707 561 c 0
 707 587 735 593 749 587 c 0
 774 574 782 564 788 558 c 0
 881 464 856 312 781 167 c 1
 786 167 l 1
 850 215 919 381 930 504 c 1
 930 504 932 531 958 522 c 0
 973 518 985 508 985 508 c 2
 1092 449 1027 284 982 198 c 1
 985 198 l 1
 1043 249 1087 393 1099 464 c 1
 1099 464 1099 485 1123 478 c 0
 1136 473 1143 465 1143 465 c 2
 1222 416 1200 316 1140 224 c 1
 1143 224 l 2
 1169 237 1196 283 1211 329 c 0
 1230 392 1311 392 1297 330 c 0
 1291 300 1313 300 1326 329 c 0
 1342 364 1357 362 1385 361 c 2
 1480 358 l 1
 1474 335 l 1
425 349 m 0
 425 369 421 401 399 401 c 0
 379 401 372 372 372 349 c 0
 372 326 380 306 398 306 c 0
 416 306 425 324 425 349 c 0
EndSplineSet
EndChar
StartChar: uni0E38.low
Encoding: 252 63256 218
Width: 0
Flags: W
HStem: -376 29<-269 -252>
VStem: -326 32<-319 -301>
Fore
-216 -494 m 1
 -285 -494 l 1
 -252 -376 l 1
 -255 -376 -266 -381 -281 -376 c 0
 -311 -366 -326 -339 -326 -312 c 0
 -326 -280 -305 -249 -260 -246 c 0
 -205 -242 -162 -268 -170 -328 c 1
 -216 -494 l 1
-261 -347 m 0
 -238 -347 -226 -329 -226 -311 c 0
 -226 -293 -238 -275 -261 -275 c 0
 -283 -275 -294 -293 -294 -311 c 0
 -294 -329 -283 -347 -261 -347 c 0
EndSplineSet
EndChar
StartChar: uni0E39.low
Encoding: 253 63257 219
Width: 0
Flags: W
HStem: -493 29<-304 -295> -366 25<-365 -344> -273 27<-365 -350>
VStem: -415 24<-309 -306>
Fore
-192 -409 m 2
 -210 -455 -244 -493 -295 -493 c 0
 -347 -493 -371 -464 -359 -421 c 2
 -344 -366 l 1
 -356 -366 -361 -369 -374 -364 c 0
 -401 -355 -415 -330 -415 -306 c 0
 -416 -276 -395 -246 -356 -246 c 0
 -305 -246 -277 -278 -292 -323 c 2
 -322 -432 l 2
 -330 -449 -320 -464 -302 -464 c 0
 -284 -464 -272 -449 -265 -432 c 2
 -214 -250 l 1
 -148 -250 l 1
 -192 -409 l 2
-325 -307 m 0
 -326 -287 -340 -273 -358 -273 c 0
 -375 -273 -392 -287 -391 -307 c 0
 -391 -324 -376 -341 -359 -341 c 0
 -341 -341 -325 -324 -325 -307 c 0
EndSplineSet
EndChar
StartChar: uni0E3A.low
Encoding: 254 63258 220
Width: 0
Flags: W
Fore
-194 -318 m 0
 -221 -318 -235 -296 -235 -275 c 0
 -235 -254 -222 -233 -195 -233 c 0
 -169 -233 -156 -255 -156 -276 c 0
 -155 -297 -168 -318 -194 -318 c 0
EndSplineSet
EndChar
StartChar: multiply
Encoding: 256 215 221
Width: 590
Flags: W
Fore
533 115 m 1
 476 68 l 1
 361 238 l 1
 151 69 l 1
 119 117 l 1
 328 286 l 1
 214 456 l 1
 271 502 l 1
 387 333 l 1
 595 502 l 1
 626 456 l 1
 419 286 l 1
 533 115 l 1
EndSplineSet
EndChar
StartChar: divide
Encoding: 257 247 222
Width: 520
Flags: W
HStem: 14 104<264 293> 224 57<108 553> 387 106<367 397>
Fore
433 439 m 0
 424 409 396 387 367 387 c 0
 340 387 326 413 333 439 c 0
 341 468 369 493 397 493 c 0
 426 493 442 472 433 439 c 0
553 224 m 1
 93 224 l 1
 109 281 l 1
 569 281 l 1
 553 224 l 1
329 66 m 0
 320 34 293 14 264 14 c 0
 237 14 221 37 229 66 c 0
 237 92 265 118 293 118 c 0
 322 118 337 95 329 66 c 0
EndSplineSet
EndChar
StartChar: registered
Encoding: 258 174 223
Width: 700
Flags: W
HStem: -11 42<341 375> 154 13<256 388> 315 17<395 423> 492 13<352 365 353 493.862> 611 42<517 541>
Fore
751 323 m 0
 699 138 520 -11 350 -11 c 0
 177 -11 81 138 133 323 c 0
 183 504 361 653 534 653 c 0
 704 653 801 504 751 323 c 0
707 323 m 0
 749 476 666 611 522 611 c 0
 376 611 219 476 177 323 c 0
 132 164 216 31 362 31 c 0
 506 31 662 164 707 323 c 0
559 154 m 1
 500 154 l 0
 474 154 472 194 466 230 c 0
 449 306 465 316 395 315 c 1
 363 198 l 2
 357 175 356 169 380 169 c 2
 391 167 l 1
 388 154 l 1
 254 154 l 1
 257 167 l 1
 265 167 l 2
 290 169 298 169 306 197 c 2
 379 462 l 2
 386 488 384 492 357 492 c 2
 349 492 l 1
 353 505 l 1
 503 505 l 2
 578 505 609 481 593 422 c 0
 578 369 531 336 482 329 c 1
 481 323 l 1
 515 315 519 273 526 241 c 0
 533 206 531 169 562 167 c 1
 559 154 l 1
534 415 m 0
 549 467 527 492 478 492 c 2
 459 490 l 2
 442 490 438 467 433 452 c 2
 401 335 l 1
 419 332 l 1
 470 332 516 349 534 415 c 0
EndSplineSet
EndChar
StartChar: fi
Encoding: 259 64257 224
Width: 499
Flags: HW
HStem: -207 24<-65 -52> -7 44<343 381> 395 33<52 132 215 376> 659 22<363 388>
VStem: -141 66<-170 -145> -141 77<-147 -136> 294 77<41 49> 412 68<611 643>
Fore
132 395 m 1xfb
 45 395 l 1
 53 428 l 1
 139 428 l 1
 170 530 190 571 231 618 c 0
 267 658 322 681 378 681 c 0
 438 681 480 652 480 611 c 0
 480 586 464 568 439 568 c 0
 415 568 398 586 398 611 c 0
 398 621 400 627 406 634 c 0
 410 639 412 640 412 643 c 0
 412 653 398 659 376 659 c 0
 335 659 306 642 281 603 c 0
 261 573 246 533 215 428 c 1
 366 428 l 2
 393 428 420 431 447 434 c 0
 457 435 461 437 464 437 c 1
 470 434 l 1
 470 428 469 420 464 404 c 1
 463 401 l 1
 454 363 450 349 442 322 c 0
 403 179 371 54 371 47 c 0
 371 42 375 37 381 37 c 0
 393 37 419 59 447 91 c 0
 450 94 454 100 458 105 c 1
 475 97 l 1
 419 21 382 -7 343 -7 c 0
 313 -7 294 12 294 41 c 0
 294 64 313 142 357 294 c 0
 376 366 381 382 381 387 c 0
 381 393 376 395 365 395 c 2
 209 395 l 1
 138 76 l 1
 97 -108 26 -207 -63 -207 c 0
 -108 -207 -141 -182 -141 -145 c 0xfb
 -141 -123 -125 -105 -104 -105 c 0
 -83 -105 -64 -122 -64 -144 c 0xf7
 -64 -148 -66 -152 -70 -160 c 0
 -73 -164 -75 -167 -75 -170 c 0
 -75 -179 -69 -183 -54 -183 c 0
 -29 -183 -12 -170 6 -138 c 0
 23 -107 35 -63 64 86 c 0
 104 280 126 381 132 395 c 1xfb
EndSplineSet
LCarets2: 1 0 
Ligature2: "'liga' Standard Ligatures in Latin lookup 2 subtable" f i
EndChar
StartChar: fl
Encoding: 260 64258 225
Width: 499
Flags: HW
HStem: -204 25<-63 -51> -9 46<343 381> 395 33<46 130 215 375> 661 22<369 388>
VStem: -141 77<-144 -137> 294 77<41 53>
Fore
375 395 m 1
 209 395 l 1
 141 86 l 2
 98 -103 26 -204 -63 -204 c 0
 -108 -204 -141 -179 -141 -142 c 0
 -141 -120 -125 -103 -105 -103 c 0
 -83 -103 -64 -119 -64 -139 c 0
 -64 -144 -66 -149 -70 -157 c 0
 -73 -161 -75 -163 -75 -166 c 0
 -75 -174 -67 -179 -53 -179 c 0
 -34 -179 -21 -171 -7 -154 c 0
 1 -144 7 -132 12 -125 c 0
 38 -53 69 81 103 264 c 0
 105 283 117 337 130 395 c 1
 41 395 l 1
 47 428 l 1
 138 428 l 1
 168 527 189 568 231 615 c 0
 271 658 327 683 382 683 c 0
 400 683 423 680 444 675 c 0
 458 672 470 671 475 671 c 0
 480 671 480 671 495 677 c 2
 499 678 l 1
 502 680 l 2
 508 681 511 683 513 683 c 0
 516 683 519 678 519 672 c 0
 519 672 469 467 371 57 c 1
 371 47 l 1
 371 41 375 37 381 37 c 0
 395 37 415 53 458 105 c 1
 475 97 l 1
 416 15 385 -9 343 -9 c 0
 313 -9 294 12 294 41 c 0
 294 67 308 130 341 262 c 0
 365 347 368 357 375 395 c 1
215 428 m 1
 382 428 l 1
 419 573 l 1
 420 576 l 2
 420 579 419 584 415 590 c 0
 412 598 410 603 410 608 c 0
 410 614 413 621 417 628 c 0
 420 633 422 636 422 639 c 0
 422 649 401 661 379 661 c 0
 308 661 256 595 221 448 c 2
 215 428 l 1
EndSplineSet
LCarets2: 1 0 
Ligature2: "'liga' Standard Ligatures in Latin lookup 2 subtable" f l
EndChar
StartChar: ff
Encoding: 261 64256 226
Width: 553
Flags: HW
HStem: -207 21<-62 -52 185 195> 395 33<47 130 215 378 464 567> 637 22<370 381> 656 22<574 594>
VStem: -141 66<-170 -146> -141 77<-148 -142> 107 66<-170 -146> 107 76<-148 -142> 599 78<612 614>
Fore
463 604 m 1xe880
 467 609 l 0
 504 656 542 678 592 678 c 0
 640 678 677 650 677 612 c 0
 677 590 658 573 636 573 c 0
 614 573 599 589 599 612 c 0
 599 621 608 636 608 645 c 0
 608 650 599 656 586 656 c 0
 530 656 494 584 464 428 c 1
 573 428 l 1
 567 395 l 1
 457 395 l 1
 385 76 l 1
 344 -108 274 -207 186 -207 c 0
 142 -207 107 -180 107 -146 c 0xda80
 107 -123 123 -105 144 -105 c 0
 164 -105 183 -122 183 -144 c 0xd180
 183 -151 173 -163 173 -170 c 0
 173 -179 182 -186 193 -186 c 0
 236 -186 268 -130 290 -23 c 1
 378 395 l 1
 209 395 l 1
 138 76 l 1
 97 -108 26 -207 -62 -207 c 0
 -105 -207 -141 -180 -141 -146 c 0xda80
 -141 -123 -125 -105 -104 -105 c 0
 -83 -105 -64 -122 -64 -144 c 0xd480
 -64 -151 -75 -163 -75 -170 c 0
 -75 -179 -66 -186 -54 -186 c 0
 -12 -186 21 -130 42 -23 c 1
 130 395 l 1
 41 395 l 1
 48 428 l 1
 139 428 l 1
 170 524 187 564 223 599 c 0
 255 633 308 659 379 659 c 0
 423 659 457 636 463 604 c 1xe880
435 555 m 1
 431 554 428 554 423 554 c 0
 401 554 387 570 387 593 c 0
 387 602 395 617 395 625 c 0
 395 631 387 637 374 637 c 0xe080
 280 637 249 564 215 428 c 1
 387 428 l 1
 404 485 420 525 435 555 c 1
EndSplineSet
LCarets2: 1 0 
Ligature2: "'liga' Standard Ligatures in Latin lookup 2 subtable" f f
EndChar
StartChar: ffi
Encoding: 262 64259 227
Width: 553
Flags: HW
HStem: -207 21<-62 -52> -7 44<590 628> 395 33<47 130 215 379 463 620> 637 22<370 381> 659 22<610 631>
VStem: -141 77<-148 -136> 107 66<-170 -145> 107 76<-148 -136> 542 76<41 49> 659 69<611 643>
Fore
464 600 m 1xfec0
 469 606 473 612 479 618 c 0
 514 658 570 681 625 681 c 0
 686 681 728 652 728 611 c 0
 728 586 712 568 687 568 c 0
 662 568 646 586 646 611 c 0
 646 621 647 627 653 634 c 0
 658 639 659 640 659 643 c 0
 659 653 646 659 624 659 c 0
 583 659 554 642 529 603 c 0
 508 573 494 533 463 428 c 1
 614 428 l 2
 640 428 668 431 694 434 c 0
 705 435 709 437 712 437 c 1
 718 434 l 1
 718 428 716 420 712 404 c 1
 710 401 l 1
 702 363 697 349 690 322 c 0
 650 179 618 54 618 47 c 0
 618 42 623 37 628 37 c 0
 640 37 666 59 694 91 c 0
 697 94 702 100 706 105 c 1
 722 97 l 1
 666 21 630 -7 590 -7 c 0
 561 -7 542 12 542 41 c 0
 542 64 561 142 605 294 c 0
 624 366 628 382 628 387 c 0
 628 393 624 395 612 395 c 2
 457 395 l 1
 385 76 l 1
 344 -108 274 -207 185 -207 c 0
 139 -207 107 -182 107 -145 c 0xfec0
 107 -123 123 -105 144 -105 c 0
 164 -105 183 -122 183 -144 c 0xfdc0
 183 -148 182 -152 177 -160 c 0
 174 -164 173 -167 173 -170 c 0
 173 -179 179 -183 193 -183 c 0
 218 -183 236 -170 253 -138 c 0
 271 -107 283 -63 312 86 c 0
 352 280 374 381 379 395 c 1
 209 395 l 1
 138 76 l 1
 97 -108 26 -207 -62 -207 c 0
 -105 -207 -141 -180 -141 -146 c 0
 -141 -123 -125 -105 -104 -105 c 0
 -83 -105 -64 -122 -64 -144 c 0
 -64 -151 -75 -163 -75 -170 c 0
 -75 -179 -66 -186 -54 -186 c 0
 -12 -186 21 -130 42 -23 c 1
 130 395 l 1
 41 395 l 1
 48 428 l 1
 139 428 l 1
 170 524 187 564 223 599 c 0
 255 633 308 659 379 659 c 0
 425 659 460 635 464 600 c 1xfec0
435 555 m 1
 431 554 428 554 423 554 c 0
 401 554 387 570 387 593 c 0
 387 602 395 617 395 625 c 0
 395 631 387 637 374 637 c 0
 280 637 249 564 215 428 c 1
 387 428 l 1
 404 486 418 524 435 555 c 1
EndSplineSet
LCarets2: 2 0 0 
Ligature2: "'liga' Standard Ligatures in Latin lookup 2 subtable" ff i
Ligature2: "'liga' Standard Ligatures in Latin lookup 2 subtable" f f i
EndChar
StartChar: ffl
Encoding: 263 64260 228
Width: 553
Flags: HW
HStem: -207 21<-62 -52> -204 25<184 197> -9 46<590 628> 395 33<47 130 215 378 463 623> 637 22<370 381> 661 22<616 632>
VStem: -141 77<-148 -136> 107 76<-147 -137> 542 76<41 57>
Fore
463 428 m 1x3f80
 630 428 l 1
 666 573 l 1
 668 576 l 2
 668 579 666 584 662 590 c 0
 659 598 658 603 658 608 c 0
 658 614 661 621 665 628 c 0
 668 633 669 636 669 639 c 0
 669 649 649 661 627 661 c 0
 555 661 504 595 469 448 c 2
 463 428 l 1x3f80
464 598 m 1
 469 604 473 609 479 615 c 0
 519 658 574 683 630 683 c 0
 647 683 671 680 691 675 c 0
 706 672 718 671 722 671 c 0
 728 671 728 671 743 677 c 2
 747 678 l 1
 750 680 l 2
 756 681 759 683 760 683 c 0
 763 683 766 678 766 672 c 0
 766 672 716 467 618 57 c 1
 618 47 l 1
 618 41 623 37 628 37 c 0
 643 37 662 53 706 105 c 1
 722 97 l 1
 664 15 633 -9 590 -9 c 0
 561 -9 542 12 542 41 c 0
 542 67 555 130 589 262 c 0
 612 347 615 357 623 395 c 1
 457 395 l 1
 388 86 l 2
 346 -103 274 -204 185 -204 c 0
 139 -204 107 -179 107 -142 c 0
 107 -120 123 -103 142 -103 c 0
 164 -103 183 -119 183 -139 c 0
 183 -144 182 -149 177 -157 c 0
 174 -161 173 -163 173 -166 c 0
 173 -174 180 -179 195 -179 c 0x7f80
 214 -179 227 -171 240 -154 c 0
 249 -144 255 -132 259 -125 c 0
 286 -53 316 81 350 264 c 0
 353 283 365 337 378 395 c 1
 209 395 l 1
 138 76 l 1
 97 -108 26 -207 -62 -207 c 0
 -105 -207 -141 -180 -141 -146 c 0
 -141 -123 -125 -105 -104 -105 c 0
 -83 -105 -64 -122 -64 -144 c 0
 -64 -151 -75 -163 -75 -170 c 0
 -75 -179 -66 -186 -54 -186 c 0xbf80
 -12 -186 21 -130 42 -23 c 1
 130 395 l 1
 41 395 l 1
 48 428 l 1
 139 428 l 1
 170 524 187 564 223 599 c 0
 255 633 308 659 379 659 c 0
 426 659 461 634 464 598 c 1
435 555 m 1
 431 554 428 554 423 554 c 0
 401 554 387 570 387 593 c 0
 387 602 395 617 395 625 c 0
 395 631 387 637 374 637 c 0
 280 637 249 564 215 428 c 1
 385 428 l 1
 403 486 418 524 435 555 c 1
EndSplineSet
LCarets2: 2 0 0 
Ligature2: "'liga' Standard Ligatures in Latin lookup 2 subtable" ff l
Ligature2: "'liga' Standard Ligatures in Latin lookup 2 subtable" f f l
EndChar
StartChar: uni0E3F
Encoding: 223 3647 230
Width: 717
Flags: W
HStem: -106 144<320 356> 2 18<39 63.3733> 2 36<309 331> 3 17<34 39> 359 40<346 420> 359 363<335 420> 707 15<229 243>
Fore
684 200 m 0x42
 684 200 l 0
 650 77 538 11 388 3 c 1x12
 356 -106 l 1
 293 -106 l 1x80
 321 2 l 1x20
 34 3 l 1x10
 39 20 l 1
 126 20 149 54 158 88 c 2
 311 637 l 2
 320 670 316 705 229 707 c 1
 233 722 l 1
 265 722 519 723 521 723 c 1
 550 822 l 1
 613 822 l 1
 587 720 l 1
 702 708 778 656 746 541 c 0
 721 450 650 404 565 382 c 1
 563 376 l 1
 647 359 713 304 684 200 c 0x42
643 536 m 0
 664 614 634 659 574 674 c 1
 500 406 l 1
 570 422 624 467 643 536 c 0
431 399 m 1x08
 510 684 l 0
 450 687 424 682 415 650 c 2
 346 399 l 1
 431 399 l 1x08
331 38 m 9x84
 420 359 l 0x88
 412 359 335 359 335 359 c 1
 263 100 l 2
 252 60 257 38 331 38 c 9x84
572 203 m 0
 597 292 548 333 484 349 c 1
 399 45 l 1
 479 58 544 100 572 203 c 0
EndSplineSet
EndChar
